<svg width="232" height="58" viewBox="0 0 232 58" fill="none" xmlns="http://www.w3.org/2000/svg">
<path d="M3.58645 51.9571C3.17245 51.8191 2.41345 50.3701 2.34445 49.7491C2.34445 49.5421 2.68945 48.6451 2.27545 48.6451C1.86145 48.7141 2.13745 49.1281 1.72345 49.1971C-0.00155192 49.2661 10.4174 26.4961 15.7994 17.0431C17.8004 13.5931 18.1454 13.4551 19.3874 11.0401C21.8714 6.21006 23.5964 6.62406 23.5274 7.31406V7.72806C23.5274 7.93506 23.8724 8.07306 24.0105 8.21106C24.7004 8.69406 24.3554 9.59106 23.9414 10.2121C20.9744 14.1451 19.4564 17.3191 9.93445 35.4661C9.38245 36.4321 8.89945 37.6051 9.03745 38.7091C10.3484 37.9501 27.8054 18.4921 31.7384 14.6971C32.3594 14.0071 32.6355 15.1111 33.8774 15.5941C34.8434 15.9391 36.4304 15.2491 34.7744 19.3891C31.9454 26.0821 31.0485 29.4631 28.9094 33.4651C28.3574 34.5691 27.6675 35.6041 27.6675 36.8461C28.9785 35.6731 34.4294 27.3931 36.9135 24.4951L38.9144 22.1491C48.4365 10.4191 62.5814 3.17406 63.2024 6.07206C63.2715 6.41706 63.5474 6.69306 63.8234 6.69306C64.6515 6.90006 64.4444 7.79706 63.7545 8.07306C62.9265 8.21106 62.1675 8.48706 61.3395 8.90106C41.4674 19.1131 32.7735 38.9851 31.1174 38.5711C30.9794 38.5021 30.9104 38.5711 30.9794 38.7781C31.0485 38.8471 31.0485 38.9851 30.9104 38.9851C30.4964 38.9851 31.1174 38.9851 30.0825 40.7791C28.5644 43.1251 25.5284 48.6451 24.0105 49.9561C23.6654 50.1631 23.3894 50.9221 23.1824 51.6121C22.6304 54.0961 20.5604 53.3371 19.7324 50.3011L19.3874 48.9211C19.3874 48.9211 24.6314 35.0521 27.2534 28.9111C30.5655 21.0451 30.9794 20.3551 29.2544 22.4251C27.8054 24.0811 25.9425 25.5301 24.3554 27.1171C9.45145 41.3311 4.75945 52.0951 3.58645 51.9571ZM28.0125 40.9861C28.4264 40.5721 28.1505 40.2271 28.9785 39.3301C29.1854 39.1921 32.3594 35.5351 32.4974 35.2591C32.9114 34.6381 33.6014 32.4991 34.6365 32.3611C34.7055 32.3611 34.8434 32.1541 34.7744 31.8091C34.7744 31.0501 35.6715 31.3951 36.3614 30.2221C36.9135 29.0491 40.0875 25.6681 40.0875 25.2541C40.0185 24.8401 40.7775 24.7021 40.7775 24.3571C40.7775 24.0121 42.7095 21.8731 43.0544 21.8731C43.3994 21.8731 43.3994 21.7351 43.3305 21.3901C43.0544 20.7001 43.3305 21.1141 44.2275 20.1481C44.6414 19.8031 45.0554 19.4581 45.1245 19.4581C45.4004 19.4581 47.9534 16.4911 47.9534 16.1461C47.9534 16.0771 48.0225 15.9391 48.2294 15.9391C48.4365 15.9391 48.7815 15.6631 49.6785 14.7661C50.3685 14.0761 51.4034 14.0071 51.6105 13.5241C51.8175 12.6961 54.7155 12.2821 55.2674 10.8331C55.4055 10.4191 55.4745 9.93606 55.7505 9.59106C56.3715 8.97006 57.9585 8.97006 57.9585 7.79706C57.5445 7.65906 57.1304 8.14206 56.7165 8.48706C55.8884 9.03906 56.0955 8.34906 54.7155 9.79806C53.7495 10.8331 52.3694 11.3851 51.2655 12.2131C50.5065 12.6961 49.9545 13.3171 49.2645 13.9381C48.2985 14.7661 47.1944 15.3871 46.2285 16.1461C42.7095 18.8371 41.6745 21.3211 41.0535 22.1491C40.6395 22.7701 39.8115 22.9771 39.3284 23.5291C38.9144 23.9431 38.7765 24.6331 38.3624 25.1161C37.3274 26.3581 37.6724 25.0471 36.3614 27.9451C35.2575 30.0151 32.4974 32.7061 31.1174 35.0521C30.8414 35.6731 30.7035 35.6731 27.1844 40.0201C26.0805 41.3311 26.9774 41.8141 28.0125 40.9861ZM54.7155 12.4201C54.9224 12.4891 57.7514 10.7641 56.9925 10.7641C56.6475 10.8331 54.6465 12.3511 54.7155 12.4201ZM52.4385 14.0071C52.5075 14.3521 54.4395 12.7651 54.1635 12.7651C54.0255 12.7651 52.4385 13.8691 52.4385 14.0071ZM10.9694 38.7091C11.8664 38.7781 16.6274 33.3271 17.3174 32.4991C22.1474 26.0821 20.9744 28.4971 23.5274 25.4611C26.0805 22.3561 26.8394 22.5631 27.2534 21.1831C27.3224 21.0451 26.8394 21.0451 26.7704 21.0451C26.7704 21.0451 10.7624 37.9501 10.9694 38.7091ZM7.65745 36.2941C7.93345 36.2941 8.07145 35.4661 7.86445 35.5351C7.65745 35.5351 7.38145 36.2941 7.65745 36.2941ZM6.69145 38.2951C7.03645 38.0881 7.65745 37.0531 7.24345 37.1221C7.03645 37.1221 6.89845 37.2601 6.82945 37.5361C6.62245 38.0881 6.41545 38.5021 6.69145 38.2951ZM23.3894 42.9871C23.0444 43.4011 23.2514 43.8841 23.8724 42.8491C24.0794 42.4351 24.7004 41.4691 25.2524 40.6411C27.3224 37.9501 25.3214 38.5711 25.6664 39.1231C25.9425 39.5371 25.5284 39.8131 25.1834 39.6061C24.2864 38.9161 24.0105 42.0901 23.3894 42.9871ZM8.27845 39.5371C8.76145 39.6751 9.10645 39.2611 8.48545 39.3301C8.14045 39.3301 8.14045 39.3991 8.27845 39.5371ZM29.3924 40.8481C28.8404 41.6761 30.0134 40.5031 30.0134 40.4341C29.8754 40.1581 29.7375 40.3651 29.3924 40.8481ZM4.96645 42.6421L5.79445 40.6411C6.07045 40.1581 5.65645 40.5721 5.31145 41.1931C4.41445 42.6421 3.37945 46.7821 4.96645 42.6421ZM28.4264 42.2281C28.1505 42.5731 28.7714 42.2971 28.7714 42.1591C28.7714 41.8831 28.5644 41.8141 28.4264 42.2281ZM24.2174 49.1281C24.7004 48.7141 24.4244 48.0931 24.7004 48.0241C25.1144 48.0241 28.4264 42.5041 25.7354 46.2301C25.2524 46.9891 24.7694 47.5411 24.6314 47.5411C24.2864 47.6101 23.2514 49.9561 24.2174 49.1281ZM55.2734 26.5651C54.8594 26.9101 54.8594 26.9101 54.8594 25.9441C54.8594 24.8401 55.5494 23.5291 56.4464 22.9771C57.0674 22.5631 58.6544 22.6321 59.1374 23.2531C59.4824 23.6671 59.4134 24.3571 59.0684 24.7711C58.5854 25.2541 57.8954 25.1161 57.3434 25.1851C56.4464 25.2541 56.5844 25.5991 56.1014 26.0821C55.9634 26.3581 55.5494 26.3581 55.2734 26.5651ZM52.5134 41.6761L43.7504 46.7131C40.7834 48.3691 39.5414 47.2651 39.5414 45.3331C39.6104 43.9531 39.6794 43.8151 41.1284 41.8831C44.6474 37.1221 49.2014 31.5331 51.5474 28.9111C52.7894 27.3931 53.5484 27.3241 54.5144 28.2211C55.2734 28.9111 55.2734 29.3941 54.3074 29.6011C53.2724 29.7391 54.7214 30.6361 52.4444 32.3611C52.3064 32.4991 51.9614 32.5681 51.8924 32.3611C51.8924 32.2921 51.9614 32.1541 51.8924 32.0851C51.8924 31.7401 51.4094 31.6711 51.2024 32.0851C51.1334 32.2921 51.2024 32.6371 51.2024 32.9821C51.2714 33.3961 50.3744 34.5691 49.8914 34.5691C49.2014 34.5691 49.7534 34.8451 48.9254 35.6731C48.5804 36.0181 48.2354 36.4321 48.2354 36.7081C48.2354 37.1221 47.0624 38.5021 46.5104 38.7091C46.3034 38.7781 46.1654 38.9851 46.2344 39.1921C46.5794 39.8131 42.7154 43.0561 42.8534 44.1601C45.2684 43.7461 52.3064 39.5371 55.2734 37.6741C56.5154 36.9151 57.7574 36.0181 59.1374 35.6041C59.9654 35.3971 61.0694 34.2931 61.9664 34.4311C62.1734 34.4311 62.2424 34.5691 62.3114 34.7071C62.6564 35.3971 60.7934 36.4321 60.3794 36.7081C57.8264 38.4331 55.2734 40.1581 52.5134 41.6761ZM87.1185 22.2181C87.2565 22.3561 86.9115 22.5631 86.7735 22.6321C84.2205 22.8391 81.7365 22.6321 79.2525 22.9771C78.6315 23.0461 78.1485 22.7701 77.7345 23.1151C76.4235 24.8401 75.2505 26.4961 73.9395 26.9101C73.5255 27.1171 72.2145 27.5311 71.9385 27.9451C71.7315 28.1521 72.7665 28.5661 72.6285 28.9801C72.0075 30.4291 71.3175 31.7401 70.3515 33.0511C69.4545 34.2931 68.2815 35.1211 67.3845 36.2941C66.3495 37.6051 65.3145 38.9161 63.4515 41.8831C62.8305 42.7111 62.0025 43.4011 61.3815 44.2291C61.1745 44.3671 61.1055 44.6431 61.1745 44.7811C61.2435 44.9881 61.5885 44.9191 61.7955 44.9191C61.7955 44.7811 74.7675 37.1221 74.7675 37.1911C76.0785 36.5011 77.3205 35.9491 78.6315 35.3971C78.9765 35.1901 80.1495 34.3621 80.8395 34.4311C80.9085 34.4311 81.0465 34.5691 81.1155 34.7071C81.4605 35.3971 79.6665 36.4321 79.2525 36.7081C77.5275 37.8811 75.8715 38.9161 74.0775 40.0201C71.8005 41.4691 63.4515 46.4371 61.5885 47.8171C61.0365 48.2311 60.3465 48.7141 59.5875 48.7141C58.6215 48.7831 57.7245 48.0241 57.4485 47.1271C57.2415 45.8851 58.0695 44.3671 58.6215 43.3321C59.7255 41.3311 61.1055 39.6061 62.4855 37.7431C64.4175 35.3971 66.4185 33.1201 68.1435 30.7051C70.2135 27.9451 72.2145 25.1851 74.0775 22.3561C74.0775 22.2871 74.2155 22.2871 74.2155 22.2181C74.2155 22.1491 74.0085 22.0111 73.8705 22.0111C72.6975 22.1491 71.5245 22.2871 70.3515 22.5631C70.2825 22.6321 68.6265 22.7011 68.6955 22.5631C69.0405 21.7351 70.6275 20.2861 71.3175 20.2171C73.0425 19.8721 73.9395 19.6651 75.1125 19.7341C77.5965 19.7341 75.5955 19.3891 81.5295 13.8691C83.1855 12.2131 84.3585 11.9371 84.5655 14.2831C84.6345 14.9041 84.9795 15.8011 83.3235 16.4221C81.4605 17.1811 82.0815 17.3191 81.7365 18.0781C81.3915 18.8371 80.2875 18.6301 80.0115 19.3891C79.3215 21.2521 82.4265 20.0791 83.5995 21.1141C83.1165 20.8381 81.8745 21.1141 81.9435 21.3901C81.9435 21.4591 82.0815 21.5971 82.2195 21.7351C82.9785 22.2181 85.1865 22.1491 86.0145 22.1491C86.3595 22.0111 86.7045 22.0111 86.9115 22.0111C87.0495 22.1491 87.1185 22.1491 87.1185 22.2181ZM83.8065 21.3211L83.5995 21.1141C83.7375 21.1831 83.8065 21.2521 83.8065 21.3211ZM64.9005 36.3631C65.3835 36.8461 65.9355 35.2591 65.7285 35.2591C65.5905 35.2591 64.8315 36.2941 64.9005 36.3631ZM62.7615 39.1231C63.2445 39.1921 63.8655 37.4671 62.8305 38.5021C62.4855 38.9161 62.4165 39.1231 62.7615 39.1231ZM62.2095 39.5371C61.5885 40.0891 62.7615 40.2271 62.7615 39.9511C62.7615 39.6061 62.4165 39.3301 62.2095 39.5371ZM90.4677 54.5101C85.7757 51.1291 105.234 29.8081 98.6097 33.9481C97.2297 34.7761 95.7807 35.6041 95.7807 35.9491C95.7807 36.0181 83.0847 46.3681 83.0157 46.5751C82.5327 47.1961 81.7047 46.9891 81.4977 47.2651C81.2907 47.6791 80.8767 47.2651 81.0147 46.7821C81.2907 46.0231 80.6007 45.8851 80.3937 46.5751C79.6347 48.5071 78.3237 46.2991 78.0477 46.1611L78.4617 44.5051C80.5317 36.7081 102.198 9.45306 102.198 13.1101C102.198 13.5241 101.991 12.9031 101.577 13.9381C99.2307 20.5621 106.338 9.72906 86.3277 36.3631C85.1547 37.9501 84.3267 39.6061 83.0847 40.9861C82.7397 41.4001 81.4287 43.1251 81.6357 43.7461C83.1537 43.7461 84.6027 41.7451 92.4687 35.8801C96.1257 33.1891 100.473 30.9121 101.301 31.1191C104.061 32.0851 102.336 35.8801 101.232 37.5361C98.2647 42.5041 97.9887 42.9181 97.2297 43.8841C97.1607 43.9531 96.5397 44.9881 96.5397 44.2981C96.5397 44.1601 96.6087 43.9531 96.7467 43.9531C96.8157 43.9531 97.0227 43.8151 97.0227 43.5391C97.0227 43.2631 96.9537 43.2631 96.5397 43.7461C95.7117 44.5741 96.1947 44.6431 95.4357 45.1261C95.3667 45.1261 95.1597 45.3331 95.0907 45.4711L95.0217 46.1611C95.2977 46.0231 95.7807 45.3331 95.9877 45.6091C96.2637 46.0231 94.6767 46.7821 91.8477 51.5431C91.4337 52.2331 91.2267 52.8541 91.2957 53.6821C91.3647 54.3031 91.3647 55.0621 90.4677 54.5101ZM96.6087 21.3211C96.6087 21.5971 97.0917 21.5971 97.0917 21.3211C97.0917 20.9761 96.6087 20.9071 96.6087 21.3211ZM85.7757 35.8111C85.7757 36.2251 86.3277 35.8111 86.3277 35.6041C86.3277 35.5351 85.7757 35.6041 85.7757 35.8111ZM95.4357 43.8841C95.7807 43.6771 96.1257 42.9181 96.5397 42.9181C96.7467 42.9181 96.8157 42.6421 96.7467 42.4351C96.7467 42.0901 96.9537 41.8831 97.5057 41.8141C98.0577 41.6761 98.3337 41.4001 98.6787 40.5721C99.2997 38.9161 99.5757 39.6751 99.5757 39.1231C99.5757 38.5711 100.887 37.6741 100.749 37.2601C100.68 37.1221 102.129 35.8111 100.887 35.8801C99.9897 35.8801 98.4027 39.1231 98.0577 39.8131C97.5057 41.2621 95.3667 42.1591 95.4357 43.8841ZM83.7747 39.3991C84.1887 38.9851 83.4987 38.7781 83.3607 39.1231C83.0847 39.5371 83.4297 39.7441 83.7747 39.3991ZM79.3587 46.7131C79.3587 47.0581 79.3587 47.0581 79.6347 46.6441C79.8417 45.9541 79.9797 45.6091 79.6347 45.8161C79.5657 45.9541 80.5317 42.5731 81.6357 41.1931C83.4297 38.7091 82.0497 37.1221 79.6347 43.1251C77.9097 47.4031 79.2897 45.5401 79.3587 46.7131ZM121.548 56.1661C121.479 55.9591 121.203 55.8211 121.065 55.8211C119.961 55.8211 118.65 53.4751 119.892 52.9231C120.168 52.8541 120.72 52.6471 120.651 52.0951C121.065 51.7501 121.617 52.3711 121.893 52.4401C122.445 52.6471 123.48 52.4401 124.032 52.4401C134.865 52.4401 132.795 51.8191 138.039 44.5741C143.145 37.3291 148.458 31.7401 148.458 31.2571C148.458 30.9811 149.148 31.1191 149.217 30.8431C149.493 30.0151 154.737 24.0811 155.289 24.0121C155.427 24.0121 155.496 23.9431 155.427 23.8741C155.289 23.5981 156.255 22.5631 156.6 22.6321C156.945 22.7011 157.773 22.2181 157.842 21.8731C157.98 21.1831 157.428 21.1831 161.085 18.2161C164.466 15.5251 162.81 15.2491 178.128 4.76106C181.233 2.55306 185.166 5.96046e-05 188.478 1.86306C189.651 2.41506 189.858 4.07106 189.858 4.41606C189.72 6.21006 188.202 8.90106 187.236 10.2811C186.891 10.6951 186.753 10.6261 186.477 10.4191C186.132 10.1431 185.166 9.52206 185.58 9.10806C186.408 8.07306 187.581 6.90006 187.857 5.45106C188.202 3.93306 188.064 3.58806 186.408 3.65706C183.303 3.79506 179.37 7.38306 175.368 9.10806C173.919 9.79806 173.919 10.6951 173.574 11.1091C172.125 12.4201 172.884 11.4541 165.501 18.0781C161.223 21.9421 160.947 22.8391 158.739 24.4951L153.702 30.0151C151.287 32.6371 147.216 38.0881 146.25 38.0881C145.836 38.0881 144.801 39.1231 145.767 38.7781C146.043 38.7091 146.388 38.7091 146.181 38.9851L145.836 39.2611C145.491 39.6751 145.629 39.9511 145.56 40.2271C145.491 40.9171 142.317 43.3321 138.798 49.6801C137.97 51.1981 138.591 50.9221 139.419 50.8531C142.041 50.7841 152.529 49.9561 153.012 50.0941C153.288 50.1631 153.702 50.5081 154.461 50.5771C154.599 50.5771 154.737 50.5771 154.944 50.7151C155.082 50.7841 155.151 50.9221 155.082 51.1291C154.944 51.4051 151.977 51.1291 152.046 51.5431C152.046 51.6811 152.391 51.6811 152.943 51.6121C154.53 51.2671 154.737 52.0951 156.117 52.1641C156.531 52.2331 157.221 52.0261 157.497 52.4401C157.566 52.5781 157.566 52.7851 157.497 52.8541C157.359 52.9231 139.419 54.6481 139.419 54.6481C133.761 54.9931 121.962 57.4771 121.548 56.1661ZM175.575 7.93506C175.299 8.28006 175.851 8.14206 175.851 7.93506C175.851 7.65906 175.713 7.65906 175.575 7.93506ZM135.21 51.2671C135.693 50.9911 148.113 33.1891 149.286 33.5341C149.976 33.7411 149.769 33.1891 149.493 33.1891C148.113 33.1891 162.327 18.2161 170.055 12.4201C178.197 6.41706 171.642 9.72906 162.534 18.4231C148.734 31.6711 150.597 30.4291 145.353 36.8461C140.178 43.1251 135.003 51.3361 135.21 51.2671ZM152.391 30.2911C152.529 30.4291 153.357 29.3941 153.012 29.4631C152.874 29.4631 152.184 30.1531 152.391 30.2911ZM147.492 36.0181C147.699 36.2251 148.113 35.9491 148.113 35.6041C148.113 35.0521 147.147 35.8111 147.492 36.0181ZM150.39 50.7841C150.597 50.8531 150.873 50.8531 151.011 50.7841C151.425 50.5771 149.769 50.5771 150.39 50.7841ZM147.63 51.9571C148.044 52.0261 148.458 51.9571 148.458 51.8191C148.872 51.2671 145.905 51.7501 147.63 51.9571ZM143.973 52.0261C144.318 52.3711 146.25 52.3711 146.25 52.0261C146.25 51.6811 143.766 51.7501 143.973 52.0261ZM138.177 52.6471C138.453 52.9231 140.799 52.6471 141.351 52.3711C141.834 52.0261 140.454 51.9571 140.247 52.1641C140.04 52.5091 137.694 52.1641 138.177 52.6471ZM153.495 52.3711C153.771 52.4401 154.185 52.4401 154.323 52.3711C154.944 52.1641 152.943 52.2331 153.495 52.3711ZM164.984 48.7831C160.292 50.3011 160.982 43.4701 164.432 38.9851C176.093 23.8051 174.782 29.6011 176.852 29.3251C177.404 29.3251 178.715 30.2911 178.991 31.0501C179.474 32.5681 178.163 34.3621 177.404 35.5351C176.852 36.4321 176.3 37.6741 175.679 38.7781C178.784 38.5021 182.786 36.4321 185.201 35.3971C185.546 35.1901 186.65 34.3621 187.34 34.4311C187.409 34.4311 187.616 34.5691 187.685 34.7071C188.03 35.3971 186.167 36.4321 185.753 36.7081C182.855 38.5711 179.405 41.1931 175.886 41.6071C174.92 41.6761 173.816 41.4691 172.988 41.2621C171.746 42.5731 168.434 47.6791 164.984 48.7831ZM172.574 37.9501C173.195 37.6741 173.678 36.7771 175.61 34.0171C178.577 29.7391 174.161 33.1201 171.884 36.3631C171.884 36.9151 172.16 37.5361 172.574 37.9501ZM178.094 33.5341C178.094 33.8101 178.163 33.8791 178.37 33.5341C178.646 33.3271 178.094 33.1891 178.094 33.5341ZM176.645 36.2941L176.852 35.8801C176.99 35.5351 176.852 35.5351 176.3 35.8111C176.024 35.9491 175.748 36.0871 175.748 36.2251C175.748 36.2251 176.576 36.3631 176.645 36.2941ZM164.501 45.7471C165.674 45.5401 168.848 42.2971 169.676 41.4001C170.435 40.5721 170.435 40.6411 170.021 39.5371C169.469 38.9161 169.262 38.4331 169.262 37.8811C168.779 37.2601 163.19 45.8161 164.501 45.7471ZM174.437 38.5021C174.506 38.5021 175.334 37.8811 174.782 37.8811C174.23 37.7431 174.368 38.4331 174.437 38.5021ZM173.678 39.3301C173.954 38.9851 173.126 38.9161 173.195 39.2611C173.333 39.6061 173.402 39.6061 173.678 39.3301ZM172.022 40.5721C172.436 39.9511 171.953 40.0201 171.746 40.4341C171.47 40.9861 171.677 41.0551 172.022 40.5721ZM169.4 43.8151C169.607 43.7461 169.607 43.6771 169.469 43.4011C169.262 43.1251 169.262 43.1251 169.676 43.2631C170.435 43.5391 170.849 41.7451 171.608 41.4691C172.091 41.4001 171.608 40.9861 170.849 40.9171C170.435 40.8481 170.435 40.9171 170.504 41.4001C170.918 42.8491 169.883 40.9861 168.848 43.1251C168.434 43.8841 168.641 44.0911 169.4 43.8151ZM164.915 46.5751C165.536 46.6441 166.226 45.1261 165.122 46.1611C164.915 46.3681 164.708 46.5751 164.915 46.5751ZM167.054 46.0231C167.606 46.0231 166.916 45.7471 166.709 45.8851C166.64 45.9541 166.778 46.0231 167.054 46.0231ZM165.881 47.0581C166.295 46.5751 166.088 46.2991 165.674 46.7131C165.26 47.1961 165.398 47.4721 165.881 47.0581ZM185.583 47.5411C185.1 46.0231 183.996 45.7471 184.548 44.2291C184.962 43.0561 185.583 42.0211 186.135 40.9171L189.861 34.0171L192.345 29.6701C192.621 29.3251 192.828 28.9111 192.828 28.8421C192.828 28.4971 193.656 27.2551 194.208 26.8411C195.105 26.1511 196.071 26.9101 196.416 27.8071C196.761 29.1871 195.726 29.0491 194.76 29.6701C194.622 29.7391 194.346 29.8771 194.277 30.0841C194.208 30.2221 194.208 30.4981 194.346 30.6361C193.932 30.6361 193.656 31.0501 193.518 31.3951C193.449 31.8091 193.449 32.2231 193.449 32.6371C193.38 33.8101 192.276 34.8451 191.724 35.9491L189.93 39.2611C189.723 39.6061 189.654 40.0201 189.723 40.0891C189.792 40.2271 194.484 36.8461 194.622 36.6391C194.622 36.4321 200.832 32.2921 201.798 31.8091C204.351 30.4981 205.386 29.8771 208.008 29.3251C208.767 29.1871 209.388 29.1871 209.388 29.3251C209.388 29.4631 209.319 29.4631 209.595 29.6011C210.492 29.8771 209.664 30.4981 207.732 31.2571C200.073 34.1551 194.829 39.1921 189.033 44.7121C187.998 45.7471 186.894 46.7821 185.583 47.5411ZM206.076 31.1191C206.421 31.2571 208.146 30.6361 208.146 30.4291C208.284 30.1531 208.008 30.1531 206.904 30.4291C206.49 30.4981 206.007 30.7051 206.007 30.9121C206.007 30.9811 206.007 31.1191 206.076 31.1191ZM199.728 34.2241C199.659 34.2931 200.073 34.2241 200.556 33.9481L202.074 33.3271C203.592 32.6371 205.386 31.6711 205.455 31.3951C205.455 31.1191 205.386 30.9811 205.248 30.9811C204.834 30.9121 199.728 33.8791 199.728 34.2241ZM231.442 34.7071C231.787 35.3971 230.062 36.4321 229.648 36.7081L224.542 40.0201C221.92 41.6761 219.436 43.7461 211.57 47.0581C210.535 47.5411 209.431 47.9551 208.258 48.0241C205.981 48.3001 203.29 47.0581 203.566 44.3671C203.98 40.7791 209.914 35.1901 213.985 32.9131C215.434 32.0851 217.09 31.0501 218.815 30.4981C219.85 30.1531 221.23 29.8771 222.334 30.0841C223.576 30.2911 223.99 32.2231 223.783 33.3271C223.438 34.6381 222.955 35.1211 221.23 36.2941C219.298 37.6051 210.259 41.2621 208.051 41.6071C206.119 41.8141 204.739 44.9881 207.154 45.7471C210.88 46.8511 226.06 36.9151 227.233 36.3631L229.234 35.2591C229.786 34.9831 230.476 34.3621 231.166 34.4311C231.304 34.4311 231.373 34.5691 231.442 34.7071ZM210.604 38.1571C209.224 39.3991 209.431 39.3991 212.605 38.2951H212.674L212.95 38.0881C212.95 38.1571 213.019 38.1571 213.088 38.1571C212.812 38.3641 213.157 38.2951 212.26 38.5711C212.191 38.8471 211.708 38.9161 211.777 39.1921C212.053 39.0541 212.191 39.1231 212.26 39.1231C212.26 38.9161 212.812 38.7781 212.812 38.8471C212.95 38.9161 212.95 38.8471 213.019 38.7781C213.157 38.3641 213.502 38.7781 213.433 38.5021C213.364 38.4331 215.296 37.6741 215.572 37.7431C215.848 37.8811 215.917 37.6741 215.641 37.6051C215.572 37.5361 216.676 37.4671 216.676 37.3291C216.4 37.1221 217.09 37.1911 217.297 36.9151H216.883C216.538 36.7081 217.504 36.2941 217.642 36.2251C218.125 35.9491 218.47 35.5351 218.953 35.3971C219.436 35.1901 220.126 35.0521 220.609 34.7071C220.954 34.5691 221.23 34.2241 221.506 33.9481C221.782 33.7411 222.196 33.6031 222.472 33.3961C222.679 33.1201 222.61 32.9821 222.61 32.6371C222.541 32.2231 222.61 31.7401 222.541 31.3951C222.472 31.0501 222.265 31.3951 222.196 31.4641C221.851 31.6711 221.644 30.4981 221.23 31.3951C221.023 31.7401 220.402 32.1541 218.194 33.1201C216.331 33.9481 214.261 34.9831 210.604 38.1571ZM218.401 36.6391C218.47 36.6391 218.47 36.6391 218.47 36.5011C218.401 36.4321 217.987 36.6391 218.056 36.5011C218.056 36.4321 217.918 36.5011 217.711 36.6391C217.228 36.7771 217.711 36.5011 217.573 36.4321C217.297 36.3631 217.159 37.1221 217.78 36.7771C218.194 36.6391 218.332 36.9151 218.332 36.7081C218.194 36.6391 218.332 36.5011 218.401 36.6391ZM213.364 38.8471C213.088 39.3991 216.883 37.8811 216.814 37.6051C216.814 37.5361 213.433 38.7781 213.364 38.8471ZM224.216 54.3031C223.802 54.1651 224.906 54.0271 226.217 52.1641C228.356 49.4731 228.149 49.5421 228.425 48.4381C228.563 48.2311 228.356 48.0931 228.149 48.0931C227.528 48.0931 227.735 47.4031 228.356 46.7821C229.115 46.1611 229.805 46.2991 230.288 46.7821C231.53 48.0931 231.116 49.0591 230.012 50.3701C228.632 52.0261 226.355 53.4061 226.217 53.4751C224.423 54.4411 224.561 54.5101 224.216 54.3031Z" fill="white"/>
</svg>
