<svg width="38" height="42" viewBox="0 0 38 42" fill="none" xmlns="http://www.w3.org/2000/svg">
<path d="M13.5369 10.0016C11.5466 8.23317 8.84855 8.38245 6.80732 10.3547C4.06964 13.0044 3.51474 17.6493 5.7315 20.8876C9.24773 26.0205 14.0804 29.187 20.1531 30.3726C21.0648 30.5506 21.9651 30.8406 22.0755 31.9516C22.1915 33.1343 21.4781 33.8549 20.4363 34.1448C19.8219 34.3171 19.1 34.3975 18.4913 34.2511C11.49 32.563 5.57579 29.1325 1.79626 22.7249C-1.48215 17.1642 -0.143039 10.3001 4.75477 6.50208C7.79821 4.1423 11.1191 3.70307 14.5561 5.51741C15.6658 6.10305 16.3057 6.05137 17.172 5.07818C19.3661 2.60931 22.0585 0.875358 25.3199 0.220819C31.8399 -1.08539 37.3889 3.5337 37.9438 10.6274C38.2354 14.3623 37.3691 17.8618 35.8799 21.1976C32.8223 28.0444 29.0994 34.5209 24.9321 40.7333C24.6461 41.1582 24.2752 41.718 23.8534 41.8127C23.106 41.985 22.0613 42.1515 21.563 41.761C21.0676 41.3735 20.7222 40.1505 20.9572 39.5591C21.5885 37.9831 22.5907 36.5649 23.4004 35.0578C26.2429 29.7841 29.207 24.5679 31.8484 19.1909C33.3234 16.1881 34.0595 12.9154 33.1451 9.45899C32.0664 5.39397 29.224 3.64279 25.2406 4.80259C22.9899 5.45712 21.2148 6.88103 19.7879 8.70972C19.5445 9.01976 19.7172 9.80349 19.8955 10.2944C20.6373 12.3355 21.6366 14.2963 22.1944 16.3833C22.704 18.2895 22.1717 20.1871 20.9742 21.8005C18.8848 24.6196 15.1761 24.5306 13.2141 21.6168C11.4645 19.0187 11.6683 16.1881 12.3789 13.3432C12.6649 12.2006 13.1462 11.1068 13.534 9.9987L13.5369 10.0016ZM17.2031 19.3862C18.3582 17.8761 18.0638 15.4962 16.6369 14.1814C15.68 16.3431 15.864 18.2264 17.2031 19.3862Z" fill="white"/>
</svg>
