<svg width="39" height="41" viewBox="0 0 39 41" fill="none" xmlns="http://www.w3.org/2000/svg">
<g clip-path="url(#clip0_730_73)">
<path d="M17.4325 10.7024C16.2397 8.89612 14.0837 8.43723 12.0589 9.54282C9.34236 11.0292 7.9222 14.5402 8.98223 17.5433C10.6644 22.3041 13.7994 25.8091 18.3302 28.0309C19.0103 28.3644 19.6578 28.783 19.5096 29.6747C19.3506 30.6236 18.6363 31.0344 17.7546 31.0387C17.2344 31.0423 16.6489 30.9511 16.2006 30.7068C11.0451 27.8944 7.11437 23.9523 5.49469 18.1395C4.09031 13.0952 6.5977 8.01758 11.2582 6.09473C14.1542 4.9001 16.862 5.2653 19.1843 7.4161C19.9341 8.11043 20.4489 8.20654 21.337 7.63093C23.5873 6.16989 26.0743 5.38938 28.7809 5.57366C34.1914 5.94387 37.5829 10.7367 36.5182 16.3978C35.9573 19.3783 34.5344 21.9278 32.6557 24.2167C28.7988 28.9143 24.4964 33.1806 19.9 37.1457C19.5849 37.4167 19.1744 37.775 18.8222 37.759C18.1972 37.7342 17.3394 37.6414 17.0297 37.2301C16.7216 36.8216 16.7085 35.7923 17.0187 35.3804C17.8494 34.2836 18.9388 33.3893 19.8954 32.3844C23.2498 28.8701 26.688 25.4267 29.906 21.7888C31.7031 19.7571 32.9754 17.357 32.987 14.4612C32.9982 11.0549 31.1307 9.08025 27.7487 9.13675C25.8379 9.16807 24.1388 9.90199 22.6281 11.0265C22.3708 11.2168 22.3409 11.866 22.3774 12.2876C22.5294 14.0407 22.9013 15.7859 22.8987 17.5356C22.8964 19.1338 22.0756 20.5029 20.7912 21.5081C18.5493 23.2652 15.6478 22.4045 14.7197 19.7092C13.892 17.306 14.6517 15.1378 15.8134 13.0664C16.2804 12.2347 16.8909 11.4827 17.4309 10.6996L17.4325 10.7024ZM18.3329 18.8172C19.5621 17.8838 19.834 15.9614 18.9888 14.6297C17.7777 16.1146 17.524 17.6254 18.3329 18.8172Z" fill="white"/>
</g>
<defs>
<clipPath id="clip0_730_73">
<rect width="38.8119" height="40.923" fill="white"/>
</clipPath>
</defs>
</svg>
