<svg width="32" height="36" viewBox="0 0 32 36" fill="none" xmlns="http://www.w3.org/2000/svg">
<path d="M13.4591 33.6635C9.42041 29.2136 4.54108 25.1433 1.87162 19.6236C-4.0531 7.60936 5.265 0.196826 13.4329 12.3036C15.5213 7.41722 19.9506 0.448259 26.0539 1.21442C31.3857 2.94124 30.276 9.98848 28.8925 14.1514C26.9064 20.3423 23.4345 25.9142 19.8935 31.3247C18.5909 33.711 15.9309 36.4672 13.4567 33.6635H13.4591ZM25.4634 9.73231C25.6039 8.65541 26.2706 6.01537 24.3656 6.55856C24.5823 6.99501 24.7061 7.47652 24.7633 7.9699C25.1562 8.46328 25.3872 9.10135 25.4657 9.73231H25.4634Z" fill="white"/>
</svg>
