<svg width="352" height="728" viewBox="0 0 352 728" fill="none" xmlns="http://www.w3.org/2000/svg">
<path d="M304.325 528.608C304.325 528.928 304.28 529.24 304.287 529.559C304.287 529.719 304.318 529.879 304.325 530.038C304.325 530.107 304.325 530.594 304.348 530.244C304.333 530.472 304.272 530.693 304.257 530.921C304.242 531.195 304.287 531.461 304.325 531.735C304.378 532.054 304.356 531.522 304.333 531.872C304.325 532.031 304.333 532.191 304.318 532.351C304.303 532.511 304.295 532.67 304.302 532.83C304.325 532.678 304.333 532.655 304.318 532.769C304.295 532.929 304.272 533.081 304.257 533.241C304.227 533.553 304.227 533.88 304.227 534.192C304.227 534.58 304.325 534.937 304.371 535.317C304.318 534.907 304.333 535.348 304.333 535.416C304.333 535.599 304.318 535.781 304.318 535.964C304.31 536.763 305.024 537.523 305.837 537.485C306.65 537.447 307.341 536.816 307.356 535.964C307.356 535.652 307.394 535.34 307.371 535.028C307.356 534.8 307.31 534.557 307.265 534.329C307.25 534.268 307.242 534.214 307.227 534.154C307.257 534.367 307.265 534.382 307.257 534.192C307.272 534.062 307.257 533.918 307.257 533.781C307.257 533.72 307.257 533.15 307.242 533.507C307.257 533.119 307.333 532.739 307.341 532.351C307.348 531.963 307.341 531.59 307.272 531.195C307.242 531.012 307.242 531.012 307.272 531.195C307.265 531.103 307.265 531.012 307.272 530.921L307.257 531.05C307.288 530.868 307.31 530.693 307.333 530.51C307.363 530.183 307.318 529.879 307.31 529.559C307.303 529.24 307.341 528.928 307.348 528.608C307.364 527.81 306.634 527.049 305.829 527.087C305.024 527.125 304.325 527.756 304.31 528.608H304.325Z" fill="white"/>
<path d="M284.925 547.823C285.464 547.724 285.897 547.663 286.451 547.67C287.036 547.686 287.591 547.594 288.175 547.572C288.813 547.541 289.459 547.579 290.089 547.465C290.598 547.374 290.986 547.282 291.51 547.29C291.761 547.29 292.011 547.336 292.269 547.328C292.558 547.328 292.847 547.206 293.128 547.214C293.409 547.222 293.705 547.359 293.994 547.359C294.282 547.359 294.594 547.206 294.852 547.184C295.444 547.13 295.999 547.328 296.576 547.366C296.857 547.389 297.161 547.412 297.442 547.397C297.746 547.381 298.05 547.237 298.308 547.199C299.121 547.092 299.827 546.575 299.827 545.678C299.827 544.94 299.128 544.05 298.308 544.156C297.685 544.24 297.199 544.4 296.576 544.324C296.006 544.255 295.437 544.118 294.852 544.141C294.571 544.156 294.237 544.308 293.994 544.316C293.72 544.316 293.416 544.171 293.128 544.171C292.839 544.171 292.55 544.27 292.269 544.285C291.943 544.301 291.616 544.24 291.297 544.247C290.659 544.247 290.097 544.384 289.482 544.491C288.95 544.582 288.388 544.491 287.849 544.552C287.256 544.605 286.725 544.635 286.125 544.635C285.418 544.635 284.803 544.757 284.112 544.886C283.307 545.039 282.843 546.012 283.048 546.758C283.284 547.61 284.104 547.967 284.917 547.823H284.925Z" fill="white"/>
<path d="M310.081 545.373C310.293 545.328 310.506 545.198 310.711 545.175C310.65 545.175 311.083 545.213 311.182 545.213C311.699 545.198 312.185 545.122 312.701 545.122C313.18 545.122 313.643 545.023 314.122 545.016C314.114 545.016 314.722 545.031 314.448 545C314.744 545.031 315.033 545.137 315.337 545.137C315.61 545.137 315.884 545.039 316.15 545.039C316.347 545.039 316.56 545.084 316.757 545.107C317.228 545.16 317.699 545.229 318.178 545.221C318.656 545.213 319.119 545.282 319.59 545.32C319.849 545.343 320.107 545.373 320.358 545.366C320.547 545.343 320.737 545.32 320.927 545.29C320.798 545.305 320.828 545.305 321.018 545.305C322.97 545.328 322.978 542.285 321.018 542.262C320.927 542.262 320.084 542.331 320.358 542.323C320.099 542.323 319.841 542.3 319.59 542.277C319.112 542.239 318.656 542.171 318.178 542.178C317.631 542.178 317.099 542.095 316.56 542.042C316.355 542.019 316.157 542.004 315.952 542.019C316.241 541.996 315.041 542.08 315.42 542.102C314.912 542.072 314.433 541.958 313.917 541.973C313.362 541.988 312.838 542.057 312.291 542.064C311.813 542.064 311.349 542.171 310.871 542.163C310.278 542.163 309.823 542.331 309.268 542.445C308.463 542.612 308 543.563 308.205 544.316C308.433 545.153 309.268 545.541 310.073 545.381L310.081 545.373Z" fill="white"/>
<path d="M304.743 550.827C304.781 552.173 304.865 553.467 304.735 554.805C304.682 555.368 304.644 555.916 304.591 556.471C304.53 557.103 304.485 557.818 304.515 558.457C304.523 558.7 304.667 558.997 304.675 559.194C304.675 559.552 304.546 559.932 304.546 560.305C304.546 560.959 304.492 561.598 304.515 562.26C304.538 562.838 304.432 563.256 304.333 563.796C304.249 564.245 304.386 564.587 304.378 565.029C304.378 565.302 304.295 565.599 304.265 565.881C304.173 566.702 305.024 567.402 305.784 567.402C306.68 567.402 307.212 566.702 307.303 565.881C307.341 565.531 307.417 565.196 307.402 564.838C307.379 564.633 307.348 564.428 307.31 564.222C307.28 564.473 307.295 564.466 307.371 564.199C307.591 563.606 307.584 562.891 307.561 562.267C307.538 561.644 307.576 560.967 307.591 560.313C307.599 559.94 307.721 559.575 307.721 559.202C307.721 558.921 307.584 558.624 307.569 558.365C307.493 557.3 307.683 556.076 307.781 555.003C307.91 553.596 307.842 552.25 307.804 550.835C307.751 548.88 304.713 548.872 304.766 550.835L304.743 550.827Z" fill="white"/>
<path d="M329.725 497.32C329.7 497.99 329.601 498.498 329.564 499.242C329.533 499.862 329.545 500.482 329.508 501.096C329.471 501.709 329.533 502.335 329.514 502.955C329.496 503.674 329.458 504.282 329.409 504.877C329.359 505.528 330.016 506.148 330.647 506.117C331.359 506.086 331.829 505.571 331.885 504.877C331.897 504.722 331.897 504.691 331.885 504.796C331.903 504.641 331.928 504.486 331.947 504.331C331.959 504.195 331.959 504.059 331.959 503.916C331.959 503.594 331.972 503.278 331.978 502.955C331.996 502.335 331.928 501.715 331.972 501.096C332.015 500.476 331.996 499.862 332.027 499.242C332.033 499.106 332.046 498.969 332.052 498.833C332.064 498.678 332.064 498.647 332.052 498.752C332.071 498.659 332.089 498.573 332.108 498.48C332.17 498.095 332.176 497.711 332.194 497.327C332.219 496.676 331.606 496.056 330.956 496.087C330.263 496.118 329.743 496.632 329.718 497.327L329.725 497.32Z" fill="white"/>
<path d="M316.581 510.921C317.392 510.76 318.209 510.654 319.013 510.45C319.23 510.394 319.038 510.406 319.298 510.425C319.558 510.443 319.571 510.425 319.725 510.456C320.202 510.567 320.548 510.487 321.019 510.462C321.39 510.443 321.576 510.53 321.916 510.611C322.288 510.704 322.69 510.729 323.068 510.797C323.965 510.952 324.875 511.045 325.779 511.169C326.441 511.256 327.017 510.536 327.017 509.929C327.017 509.185 326.447 508.776 325.779 508.689C324.98 508.584 324.182 508.478 323.383 508.348C322.585 508.218 321.731 507.933 320.839 507.989C321.025 507.976 320.128 508.038 320.375 508.063C320.171 508.044 319.979 507.976 319.769 507.958C319.298 507.92 318.797 507.914 318.339 508.057C317.608 508.28 316.723 508.367 315.906 508.528C315.25 508.658 314.872 509.439 315.039 510.053C315.225 510.735 315.906 511.051 316.562 510.921H316.581Z" fill="white"/>
<path d="M329.745 514.857C329.726 515.136 329.683 515.409 329.67 515.688C329.664 515.806 329.658 515.923 329.652 516.041C329.652 516.084 329.608 516.562 329.639 516.301C329.602 516.618 329.54 516.909 329.565 517.225C329.584 517.374 329.602 517.523 329.627 517.671C329.615 517.541 329.608 517.547 329.615 517.702C329.584 517.975 329.646 517.547 329.602 517.845C329.516 518.428 329.466 519.017 329.478 519.599C329.478 519.878 329.485 520.157 329.491 520.43C329.491 520.628 329.509 520.796 329.547 521C329.553 521.05 329.615 521.521 329.596 521.267C329.646 521.911 330.135 522.538 330.834 522.507C331.465 522.476 332.122 521.961 332.072 521.267C332.053 521.037 332.016 520.808 331.979 520.579C331.93 520.318 331.954 520.715 331.973 520.436C331.992 520.157 331.961 519.878 331.961 519.605C331.961 519.37 331.948 519.128 331.973 518.893C331.992 518.731 332.016 518.576 332.023 518.415C332.035 518.143 331.992 518.564 332.035 518.273C332.103 517.839 332.084 517.516 332.035 517.076C332.023 516.983 332.023 516.996 332.035 517.107C332.035 517.027 332.035 516.946 332.035 516.872C332.016 517.231 332.115 516.283 332.084 516.518C332.146 515.973 332.171 515.409 332.214 514.857C332.264 514.206 331.608 513.586 330.976 513.617C330.265 513.648 329.794 514.163 329.738 514.857H329.745Z" fill="white"/>
<path d="M336.614 511.466C336.756 511.466 336.744 511.466 336.583 511.454C336.651 511.466 336.719 511.479 336.781 511.491C336.942 511.516 337.14 511.553 337.307 511.547C337.536 511.547 337.759 511.485 337.982 511.46C337.759 511.479 338.05 511.46 338.118 511.46C338.731 511.411 339.35 511.448 339.957 511.336C340.025 511.324 340.309 511.287 340.087 511.299C340.241 511.287 340.396 511.299 340.551 511.299C340.823 511.299 341.096 511.28 341.362 511.268C341.628 511.256 341.906 511.299 342.179 511.287C342.358 511.28 342.532 511.249 342.705 511.218C342.773 511.206 343.2 511.138 342.872 511.169C343.516 511.107 344.141 510.642 344.11 509.929C344.085 509.309 343.565 508.621 342.872 508.689C342.662 508.708 342.451 508.739 342.247 508.782C342.197 508.795 342.148 508.807 342.098 508.813C342.006 508.832 342.03 508.832 342.179 508.807C342.08 508.863 341.82 508.788 341.715 508.788C341.597 508.788 341.486 508.788 341.368 508.788C340.755 508.807 340.136 508.776 339.53 508.888C339.461 508.9 339.177 508.937 339.4 508.925C339.245 508.931 339.09 508.925 338.935 508.925C338.663 508.925 338.397 508.956 338.124 508.981C338.007 508.987 337.895 508.999 337.778 509.012C337.629 509.03 337.481 509.049 337.332 509.074C337.468 509.055 337.462 509.055 337.314 509.074H337.215C337.375 509.092 337.388 509.092 337.245 509.067C337.041 509.018 336.825 508.993 336.614 508.993C335.964 508.981 335.345 509.569 335.376 510.233C335.407 510.896 335.921 511.46 336.614 511.473V511.466Z" fill="white"/>
<path d="M282.433 455.788C281.24 453.982 279.084 453.523 277.059 454.629C274.342 456.115 272.922 459.626 273.982 462.629C275.664 467.39 278.799 470.895 283.33 473.117C284.01 473.45 284.658 473.869 284.51 474.76C284.351 475.709 283.636 476.12 282.755 476.124C282.234 476.128 281.649 476.037 281.201 475.793C276.045 472.98 272.114 469.038 270.495 463.225C269.09 458.181 271.598 453.103 276.258 451.18C279.154 449.986 281.862 450.351 284.184 452.502C284.934 453.196 285.449 453.292 286.337 452.717C288.587 451.256 291.074 450.475 293.781 450.659C299.191 451.03 302.583 455.822 301.518 461.483C300.957 464.464 299.534 467.014 297.656 469.302C293.799 474 289.496 478.266 284.9 482.231C284.585 482.502 284.174 482.861 283.822 482.845C283.197 482.82 282.339 482.727 282.03 482.316C281.722 481.907 281.708 480.878 282.019 480.466C282.849 479.369 283.939 478.475 284.895 477.47C288.25 473.956 291.688 470.512 294.906 466.874C296.703 464.843 297.975 462.443 297.987 459.547C297.998 456.141 296.131 454.166 292.749 454.222C290.838 454.254 289.139 454.988 287.628 456.112C287.371 456.302 287.341 456.952 287.377 457.373C287.529 459.126 287.901 460.872 287.899 462.621C287.896 464.219 287.076 465.589 285.791 466.594C283.549 468.351 280.648 467.49 279.72 464.795C278.892 462.392 279.652 460.223 280.813 458.152C281.28 457.32 281.891 456.568 282.431 455.785L282.433 455.788ZM283.333 463.903C284.562 462.969 284.834 461.047 283.989 459.715C282.778 461.2 282.524 462.711 283.333 463.903Z" fill="white"/>
<path fill-rule="evenodd" clip-rule="evenodd" d="M49.6713 425.425C48.9735 425.773 43.4823 429.964 36.5419 435.408C34.5518 436.982 32.7765 438.346 32.6155 438.452C32.4256 438.559 31.8351 438.424 31.2447 438.133C30.6791 437.866 28.7427 437.01 26.9674 436.236C25.2168 435.462 22.4216 434.179 20.7784 433.381C15.5308 430.816 14.1601 430.443 13.3013 431.406C13.0329 431.672 12.843 432.18 12.843 432.529C12.843 433.061 15.2088 436.506 21.0468 444.38C22.017 445.687 22.7685 446.863 22.7437 446.969C22.69 447.104 21.7198 447.826 20.5926 448.596C17.0419 451.025 11.9842 455.003 9.96527 456.949C8.35094 458.497 8 458.977 8 459.673C8 460.607 8.53674 461.275 9.47809 461.517C9.82903 461.599 12.0874 461.304 14.5069 460.849C20.0765 459.833 28.1482 458.633 28.4166 458.792C28.5239 458.874 28.7675 459.567 28.9533 460.341C29.5974 463.196 32.3967 472.274 32.8549 472.967C33.9036 474.54 35.6253 474.433 36.352 472.778C36.5667 472.299 36.9961 470.324 37.2933 468.428C38.02 463.864 39.176 457.805 39.337 457.67C39.4196 457.588 41.7317 457.752 44.5021 458.018C47.3014 458.26 51.8719 458.551 54.6959 458.604C59.6999 458.764 59.861 458.739 60.4266 458.178C62.012 456.605 60.695 455.4 51.5498 449.931C47.7844 447.69 44.5558 445.769 44.3411 445.634C43.8291 445.314 43.6144 445.822 50.9594 430.39C52.4912 427.186 52.6522 426.388 51.8182 425.613C51.1204 424.974 50.6333 424.921 49.6671 425.425H49.6713ZM44.0768 437.359C42.4625 440.64 41.0092 443.766 40.8482 444.298C40.5261 445.261 40.6335 447.129 41.0092 447.502C41.2775 447.768 47.706 451.664 51.2319 453.667C54.4854 455.535 54.8363 455.884 53.1683 455.671C52.5242 455.564 50.53 455.429 48.7547 455.351C45.4476 455.191 43.7507 455.085 39.7417 454.79C37.669 454.63 37.4007 454.683 36.9713 455.163C36.6492 455.511 36.1662 457.244 35.5469 460.181C35.0349 462.635 34.6303 464.773 34.6303 464.933C34.6303 465.708 34.0647 464.347 33.1522 461.357C31.8062 456.977 31.348 456.072 30.1382 455.593C29.2506 455.22 28.7138 455.273 22.3349 456.285C18.5695 456.9 15.4193 457.354 15.3657 457.272C15.2583 457.166 21.0427 452.574 24.325 450.197C26.2366 448.809 26.5586 448.407 26.5586 447.473C26.5586 447.207 24.8081 444.642 22.7107 441.787C18.5406 436.207 18.2723 435.835 18.648 436.048C18.7842 436.13 20.1797 436.822 21.7693 437.543C26.315 439.677 29.7047 440.853 31.67 441.013L33.4453 441.119L35.7038 439.599C36.9672 438.743 38.9572 437.305 40.1421 436.396C44.4195 433.086 46.8679 431.242 46.9463 431.324C46.9752 431.353 45.6829 434.073 44.0686 437.359H44.0768Z" fill="#F15583"/>
<path fill-rule="evenodd" clip-rule="evenodd" d="M257.816 680.821C256.986 681.551 256.778 682.32 255.363 690.331C254.532 695.105 253.841 699.354 253.841 699.773C253.841 700.469 253.566 700.503 248.587 700.887C245.685 701.131 242.643 701.306 241.846 701.306C239.114 701.306 237.63 702.489 238.079 704.303C238.427 705.661 239.634 706.114 244.888 706.882C247.655 707.267 250.592 707.788 251.456 708.031L252.977 708.484L253.219 710.538C253.321 711.687 253.702 715.137 254.015 718.203C254.811 725.693 255.397 727.086 257.922 727.086C259.095 727.086 260.167 726.005 260.688 724.297C260.896 723.635 261.621 719.805 262.277 715.795C262.934 711.79 263.625 708.408 263.764 708.271C263.904 708.13 266.667 707.609 269.917 707.088C273.133 706.567 276.001 706.007 276.311 705.832C278.247 704.786 278.59 702.416 276.967 701.233C275.794 700.362 272.612 699.91 267.116 699.91H262.587L262.345 698.586C262.243 697.89 262.138 694.858 262.104 691.898C262.07 684.092 261.794 681.517 260.79 680.714C259.718 679.843 258.922 679.877 257.816 680.817V680.821Z" fill="white"/>
<path d="M0.81 19.0858V12.1058H5.8V12.8558H1.67V15.0958H4.58V15.8458H1.67V19.0858H0.81ZM9.56391 19.2058C8.97724 19.2058 8.46724 19.0591 8.03391 18.7658C7.60057 18.4658 7.26391 18.0458 7.02391 17.5058C6.79057 16.9591 6.67391 16.3225 6.67391 15.5958C6.67391 14.8625 6.79057 14.2258 7.02391 13.6858C7.26391 13.1458 7.60057 12.7291 8.03391 12.4358C8.46724 12.1358 8.97724 11.9858 9.56391 11.9858C10.1506 11.9858 10.6606 12.1358 11.0939 12.4358C11.5272 12.7291 11.8606 13.1458 12.0939 13.6858C12.3339 14.2258 12.4539 14.8625 12.4539 15.5958C12.4539 16.3225 12.3339 16.9591 12.0939 17.5058C11.8606 18.0458 11.5272 18.4658 11.0939 18.7658C10.6606 19.0591 10.1506 19.2058 9.56391 19.2058ZM9.56391 18.4558C9.96391 18.4558 10.3106 18.3391 10.6039 18.1058C10.9039 17.8725 11.1339 17.5425 11.2939 17.1158C11.4606 16.6825 11.5439 16.1758 11.5439 15.5958C11.5439 15.0158 11.4606 14.5125 11.2939 14.0858C11.1339 13.6591 10.9039 13.3291 10.6039 13.0958C10.3106 12.8558 9.96391 12.7358 9.56391 12.7358C9.16391 12.7358 8.81391 12.8558 8.51391 13.0958C8.22057 13.3291 7.99057 13.6591 7.82391 14.0858C7.65724 14.5125 7.57391 15.0158 7.57391 15.5958C7.57391 16.1758 7.65724 16.6825 7.82391 17.1158C7.99057 17.5425 8.22057 17.8725 8.51391 18.1058C8.81391 18.3391 9.16391 18.4558 9.56391 18.4558ZM14.1478 16.0658V15.3158H15.9778C16.3045 15.3158 16.5911 15.2658 16.8378 15.1658C17.0911 15.0591 17.2878 14.9091 17.4278 14.7158C17.5745 14.5158 17.6478 14.2858 17.6478 14.0258C17.6478 13.7858 17.5845 13.5791 17.4578 13.4058C17.3311 13.2325 17.1611 13.0991 16.9478 13.0058C16.7345 12.9058 16.4978 12.8558 16.2378 12.8558H14.1478V12.1058H16.2378C16.6845 12.1058 17.0811 12.1825 17.4278 12.3358C17.7811 12.4891 18.0578 12.7091 18.2578 12.9958C18.4578 13.2825 18.5578 13.6258 18.5578 14.0258C18.5578 14.2925 18.4978 14.5491 18.3778 14.7958C18.2645 15.0358 18.0945 15.2525 17.8678 15.4458C17.6411 15.6325 17.3678 15.7825 17.0478 15.8958C16.7278 16.0091 16.3611 16.0658 15.9478 16.0658H14.1478ZM13.5278 19.0858V12.1058H14.3878V19.0858H13.5278ZM17.6078 19.0858C17.5545 18.7658 17.4578 18.4525 17.3178 18.1458C17.1845 17.8391 17.0045 17.5458 16.7778 17.2658C16.5578 16.9858 16.2811 16.7225 15.9478 16.4758C15.6145 16.2291 15.2278 16.0025 14.7878 15.7958L15.7478 15.5758C16.2145 15.8025 16.6111 16.0525 16.9378 16.3258C17.2645 16.5925 17.5345 16.8758 17.7478 17.1758C17.9678 17.4691 18.1345 17.7758 18.2478 18.0958C18.3611 18.4158 18.4378 18.7458 18.4778 19.0858H17.6078ZM26.6056 17.1958V16.4458H30.3956V17.1958H26.6056ZM27.8556 12.1058H29.0656L31.3556 19.0858H30.4656L28.8856 14.2458L28.4656 12.8358L28.0456 14.2558L26.4556 19.0858H25.5756L27.8556 12.1058ZM32.7095 19.0858V12.1058H33.5695V18.3358H37.3195V19.0858H32.7095ZM39.0134 19.0858V12.1058H39.8734V18.3358H43.6234V19.0858H39.0134ZM53.2413 19.0858V12.8558H50.9213V12.1058H56.4313V12.8558H54.1113V19.0858H53.2413ZM61.6452 19.0858V12.1058H62.5052V19.0858H61.6452ZM57.4652 19.0858V12.1058H58.3252V19.0858H57.4652ZM58.1952 15.8458V15.0958H61.7752V15.8458H58.1952ZM63.8991 19.0858V12.1058H68.8591V12.8558H64.7691V15.0958H67.6391V15.8458H64.7691V18.3358H68.8991V19.0858H63.8991ZM76.3769 19.0858V12.1058H78.4669C78.9669 12.1058 79.4169 12.1891 79.8169 12.3558C80.2235 12.5158 80.5702 12.7491 80.8569 13.0558C81.1435 13.3558 81.3635 13.7191 81.5169 14.1458C81.6702 14.5725 81.7469 15.0491 81.7469 15.5758C81.7469 16.1091 81.6702 16.5925 81.5169 17.0258C81.3635 17.4525 81.1435 17.8225 80.8569 18.1358C80.5702 18.4425 80.2235 18.6791 79.8169 18.8458C79.4169 19.0058 78.9669 19.0858 78.4669 19.0858H76.3769ZM77.2469 18.3358H78.4669C78.9469 18.3358 79.3635 18.2225 79.7169 17.9958C80.0769 17.7691 80.3502 17.4491 80.5369 17.0358C80.7302 16.6158 80.8269 16.1291 80.8269 15.5758C80.8269 15.0225 80.7302 14.5425 80.5369 14.1358C80.3502 13.7291 80.0769 13.4158 79.7169 13.1958C79.3635 12.9691 78.9469 12.8558 78.4669 12.8558H77.2469V18.3358ZM83.3408 17.1958V16.4458H87.1308V17.1958H83.3408ZM84.5908 12.1058H85.8008L88.0908 19.0858H87.2008L85.6208 14.2458L85.2008 12.8358L84.7808 14.2558L83.1908 19.0858H82.3108L84.5908 12.1058ZM91.0547 19.0858V16.2558L88.7047 12.1058H89.6647L90.8547 14.2058L91.4947 15.4858L92.1547 14.1958L93.3447 12.1058H94.2947L91.9147 16.2558V19.0858H91.0547ZM97.9186 19.2058C97.3919 19.2058 96.9286 19.1058 96.5286 18.9058C96.1353 18.7058 95.8286 18.4125 95.6086 18.0258C95.3886 17.6391 95.2786 17.1691 95.2786 16.6158H96.1386C96.1386 17.2025 96.2986 17.6558 96.6186 17.9758C96.9386 18.2958 97.3719 18.4558 97.9186 18.4558C98.3786 18.4558 98.7519 18.3491 99.0386 18.1358C99.3319 17.9158 99.4786 17.6091 99.4786 17.2158C99.4786 16.9558 99.4019 16.7458 99.2486 16.5858C99.1019 16.4191 98.9053 16.2891 98.6586 16.1958C98.4186 16.0958 98.1553 16.0091 97.8686 15.9358C97.5819 15.8558 97.2919 15.7725 96.9986 15.6858C96.7119 15.5925 96.4453 15.4791 96.1986 15.3458C95.9586 15.2058 95.7653 15.0225 95.6186 14.7958C95.4719 14.5691 95.3986 14.2791 95.3986 13.9258C95.3986 13.5458 95.4953 13.2091 95.6886 12.9158C95.8886 12.6225 96.1653 12.3958 96.5186 12.2358C96.8786 12.0691 97.3019 11.9858 97.7886 11.9858C98.2619 11.9858 98.6853 12.0725 99.0586 12.2458C99.4319 12.4191 99.7286 12.6658 99.9486 12.9858C100.169 13.2991 100.285 13.6758 100.299 14.1158H99.4286C99.4219 13.8358 99.3453 13.5925 99.1986 13.3858C99.0519 13.1791 98.8553 13.0191 98.6086 12.9058C98.3686 12.7925 98.0953 12.7358 97.7886 12.7358C97.3419 12.7358 96.9819 12.8425 96.7086 13.0558C96.4419 13.2625 96.3086 13.5425 96.3086 13.8958C96.3086 14.1358 96.3819 14.3291 96.5286 14.4758C96.6753 14.6225 96.8686 14.7425 97.1086 14.8358C97.3553 14.9225 97.6219 15.0025 97.9086 15.0758C98.2019 15.1491 98.4919 15.2325 98.7786 15.3258C99.0719 15.4125 99.3386 15.5291 99.5786 15.6758C99.8253 15.8225 100.022 16.0191 100.169 16.2658C100.315 16.5125 100.389 16.8258 100.389 17.2058C100.389 17.6191 100.279 17.9758 100.059 18.2758C99.8453 18.5758 99.5519 18.8058 99.1786 18.9658C98.8053 19.1258 98.3853 19.2058 97.9186 19.2058ZM108.216 19.0858L107.346 12.1058H108.176L108.756 16.7858L108.886 18.2758L109.126 16.7858L110.036 12.1058H110.856L111.766 16.7858L112.016 18.2958L112.116 16.7858L112.686 12.1058H113.506L112.626 19.0858H111.456L110.656 14.7958L110.446 13.3758L110.236 14.7958L109.396 19.0858H108.216ZM114.33 19.0858V12.1058H119.29V12.8558H115.2V15.0958H118.07V15.8458H115.2V18.3358H119.33V19.0858H114.33ZM130.988 19.0858V12.1058H131.848V19.0858H130.988ZM126.808 19.0858V12.1058H127.668V19.0858H126.808ZM127.538 15.8458V15.0958H131.118V15.8458H127.538ZM133.772 17.1958V16.4458H137.562V17.1958H133.772ZM135.022 12.1058H136.232L138.522 19.0858H137.632L136.052 14.2458L135.632 12.8358L135.212 14.2558L133.622 19.0858H132.742L135.022 12.1058ZM141.336 19.0858L139.016 12.1058H139.916L141.556 16.9158L141.946 18.3258L142.336 16.9258L143.976 12.1058H144.866L142.546 19.0858H141.336ZM145.85 19.0858V12.1058H150.81V12.8558H146.72V15.0958H149.59V15.8458H146.72V18.3358H150.85V19.0858H145.85ZM160.958 19.2058C160.431 19.2058 159.968 19.1058 159.568 18.9058C159.174 18.7058 158.868 18.4125 158.648 18.0258C158.428 17.6391 158.318 17.1691 158.318 16.6158H159.178C159.178 17.2025 159.338 17.6558 159.658 17.9758C159.978 18.2958 160.411 18.4558 160.958 18.4558C161.418 18.4558 161.791 18.3491 162.078 18.1358C162.371 17.9158 162.518 17.6091 162.518 17.2158C162.518 16.9558 162.441 16.7458 162.288 16.5858C162.141 16.4191 161.944 16.2891 161.698 16.1958C161.458 16.0958 161.194 16.0091 160.908 15.9358C160.621 15.8558 160.331 15.7725 160.038 15.6858C159.751 15.5925 159.484 15.4791 159.238 15.3458C158.998 15.2058 158.804 15.0225 158.658 14.7958C158.511 14.5691 158.438 14.2791 158.438 13.9258C158.438 13.5458 158.534 13.2091 158.728 12.9158C158.928 12.6225 159.204 12.3958 159.558 12.2358C159.918 12.0691 160.341 11.9858 160.828 11.9858C161.301 11.9858 161.724 12.0725 162.098 12.2458C162.471 12.4191 162.768 12.6658 162.988 12.9858C163.208 13.2991 163.324 13.6758 163.338 14.1158H162.468C162.461 13.8358 162.384 13.5925 162.238 13.3858C162.091 13.1791 161.894 13.0191 161.648 12.9058C161.408 12.7925 161.134 12.7358 160.828 12.7358C160.381 12.7358 160.021 12.8425 159.748 13.0558C159.481 13.2625 159.348 13.5425 159.348 13.8958C159.348 14.1358 159.421 14.3291 159.568 14.4758C159.714 14.6225 159.908 14.7425 160.148 14.8358C160.394 14.9225 160.661 15.0025 160.948 15.0758C161.241 15.1491 161.531 15.2325 161.818 15.3258C162.111 15.4125 162.378 15.5291 162.618 15.6758C162.864 15.8225 163.061 16.0191 163.208 16.2658C163.354 16.5125 163.428 16.8258 163.428 17.2058C163.428 17.6191 163.318 17.9758 163.098 18.2758C162.884 18.5758 162.591 18.8058 162.218 18.9658C161.844 19.1258 161.424 19.2058 160.958 19.2058ZM168.812 19.0858V12.1058H169.672V19.0858H168.812ZM164.632 19.0858V12.1058H165.492V19.0858H164.632ZM165.362 15.8458V15.0958H168.942V15.8458H165.362ZM171.595 17.1958V16.4458H175.385V17.1958H171.595ZM172.845 12.1058H174.055L176.345 19.0858H175.455L173.875 14.2458L173.455 12.8358L173.035 14.2558L171.445 19.0858H170.565L172.845 12.1058ZM178.049 16.0658V15.3158H179.879C180.206 15.3158 180.493 15.2658 180.739 15.1658C180.993 15.0591 181.189 14.9091 181.329 14.7158C181.476 14.5158 181.549 14.2858 181.549 14.0258C181.549 13.7858 181.486 13.5791 181.359 13.4058C181.233 13.2325 181.063 13.0991 180.849 13.0058C180.636 12.9058 180.399 12.8558 180.139 12.8558H178.049V12.1058H180.139C180.586 12.1058 180.983 12.1825 181.329 12.3358C181.683 12.4891 181.959 12.7091 182.159 12.9958C182.359 13.2825 182.459 13.6258 182.459 14.0258C182.459 14.2925 182.399 14.5491 182.279 14.7958C182.166 15.0358 181.996 15.2525 181.769 15.4458C181.543 15.6325 181.269 15.7825 180.949 15.8958C180.629 16.0091 180.263 16.0658 179.849 16.0658H178.049ZM177.429 19.0858V12.1058H178.289V19.0858H177.429ZM181.509 19.0858C181.456 18.7658 181.359 18.4525 181.219 18.1458C181.086 17.8391 180.906 17.5458 180.679 17.2658C180.459 16.9858 180.183 16.7225 179.849 16.4758C179.516 16.2291 179.129 16.0025 178.689 15.7958L179.649 15.5758C180.116 15.8025 180.513 16.0525 180.839 16.3258C181.166 16.5925 181.436 16.8758 181.649 17.1758C181.869 17.4691 182.036 17.7758 182.149 18.0958C182.263 18.4158 182.339 18.7458 182.379 19.0858H181.509ZM183.673 19.0858V12.1058H188.633V12.8558H184.543V15.0958H187.413V15.8458H184.543V18.3358H188.673V19.0858H183.673ZM189.847 19.0858V12.1058H191.937C192.437 12.1058 192.887 12.1891 193.287 12.3558C193.694 12.5158 194.041 12.7491 194.327 13.0558C194.614 13.3558 194.834 13.7191 194.987 14.1458C195.141 14.5725 195.217 15.0491 195.217 15.5758C195.217 16.1091 195.141 16.5925 194.987 17.0258C194.834 17.4525 194.614 17.8225 194.327 18.1358C194.041 18.4425 193.694 18.6791 193.287 18.8458C192.887 19.0058 192.437 19.0858 191.937 19.0858H189.847ZM190.717 18.3358H191.937C192.417 18.3358 192.834 18.2225 193.187 17.9958C193.547 17.7691 193.821 17.4491 194.007 17.0358C194.201 16.6158 194.297 16.1291 194.297 15.5758C194.297 15.0225 194.201 14.5425 194.007 14.1358C193.821 13.7291 193.547 13.4158 193.187 13.1958C192.834 12.9691 192.417 12.8558 191.937 12.8558H190.717V18.3358ZM198.131 19.0858V18.0258H199.191V19.0858L198.571 20.8158H197.851L198.101 20.3158L198.751 19.0758L198.131 19.0858ZM1.39 31.1958V30.4458H5.18V31.1958H1.39ZM2.64 26.1058H3.85L6.14 33.0858H5.25L3.67 28.2458L3.25 26.8358L2.83 28.2558L1.24 33.0858H0.36L2.64 26.1058ZM7.02391 33.0858V26.1058H8.08391L11.3139 31.9258L11.2439 29.8958V26.1058H12.0939V33.0858H11.0339L7.79391 27.3158L7.87391 29.2858V33.0858H7.02391ZM13.3378 33.0858V26.1058H15.4278C15.9278 26.1058 16.3778 26.1891 16.7778 26.3558C17.1845 26.5158 17.5311 26.7491 17.8178 27.0558C18.1045 27.3558 18.3245 27.7191 18.4778 28.1458C18.6311 28.5725 18.7078 29.0491 18.7078 29.5758C18.7078 30.1091 18.6311 30.5925 18.4778 31.0258C18.3245 31.4525 18.1045 31.8225 17.8178 32.1358C17.5311 32.4425 17.1845 32.6791 16.7778 32.8458C16.3778 33.0058 15.9278 33.0858 15.4278 33.0858H13.3378ZM14.2078 32.3358H15.4278C15.9078 32.3358 16.3245 32.2225 16.6778 31.9958C17.0378 31.7691 17.3111 31.4491 17.4978 31.0358C17.6911 30.6158 17.7878 30.1291 17.7878 29.5758C17.7878 29.0225 17.6911 28.5425 17.4978 28.1358C17.3111 27.7291 17.0378 27.4158 16.6778 27.1958C16.3245 26.9691 15.9078 26.8558 15.4278 26.8558H14.2078V32.3358ZM26.6056 31.1958V30.4458H30.3956V31.1958H26.6056ZM27.8556 26.1058H29.0656L31.3556 33.0858H30.4656L28.8856 28.2458L28.4656 26.8358L28.0456 28.2558L26.4556 33.0858H25.5756L27.8556 26.1058ZM32.7095 33.0858V26.1058H33.5695V32.3358H37.3195V33.0858H32.7095ZM39.0134 33.0858V26.1058H39.8734V32.3358H43.6234V33.0858H39.0134ZM53.2413 33.0858V26.8558H50.9213V26.1058H56.4313V26.8558H54.1113V33.0858H53.2413ZM61.6452 33.0858V26.1058H62.5052V33.0858H61.6452ZM57.4652 33.0858V26.1058H58.3252V33.0858H57.4652ZM58.1952 29.8458V29.0958H61.7752V29.8458H58.1952ZM63.8991 33.0858V26.1058H68.8591V26.8558H64.7691V29.0958H67.6391V29.8458H64.7691V32.3358H68.8991V33.0858H63.8991ZM76.3769 33.0858V26.1058H78.4669C78.9669 26.1058 79.4169 26.1891 79.8169 26.3558C80.2235 26.5158 80.5702 26.7491 80.8569 27.0558C81.1435 27.3558 81.3635 27.7191 81.5169 28.1458C81.6702 28.5725 81.7469 29.0491 81.7469 29.5758C81.7469 30.1091 81.6702 30.5925 81.5169 31.0258C81.3635 31.4525 81.1435 31.8225 80.8569 32.1358C80.5702 32.4425 80.2235 32.6791 79.8169 32.8458C79.4169 33.0058 78.9669 33.0858 78.4669 33.0858H76.3769ZM77.2469 32.3358H78.4669C78.9469 32.3358 79.3635 32.2225 79.7169 31.9958C80.0769 31.7691 80.3502 31.4491 80.5369 31.0358C80.7302 30.6158 80.8269 30.1291 80.8269 29.5758C80.8269 29.0225 80.7302 28.5425 80.5369 28.1358C80.3502 27.7291 80.0769 27.4158 79.7169 27.1958C79.3635 26.9691 78.9469 26.8558 78.4669 26.8558H77.2469V32.3358ZM83.3408 31.1958V30.4458H87.1308V31.1958H83.3408ZM84.5908 26.1058H85.8008L88.0908 33.0858H87.2008L85.6208 28.2458L85.2008 26.8358L84.7808 28.2558L83.1908 33.0858H82.3108L84.5908 26.1058ZM91.0547 33.0858V30.2558L88.7047 26.1058H89.6647L90.8547 28.2058L91.4947 29.4858L92.1547 28.1958L93.3447 26.1058H94.2947L91.9147 30.2558V33.0858H91.0547ZM97.9186 33.2058C97.3919 33.2058 96.9286 33.1058 96.5286 32.9058C96.1353 32.7058 95.8286 32.4125 95.6086 32.0258C95.3886 31.6391 95.2786 31.1691 95.2786 30.6158H96.1386C96.1386 31.2025 96.2986 31.6558 96.6186 31.9758C96.9386 32.2958 97.3719 32.4558 97.9186 32.4558C98.3786 32.4558 98.7519 32.3491 99.0386 32.1358C99.3319 31.9158 99.4786 31.6091 99.4786 31.2158C99.4786 30.9558 99.4019 30.7458 99.2486 30.5858C99.1019 30.4191 98.9053 30.2891 98.6586 30.1958C98.4186 30.0958 98.1553 30.0091 97.8686 29.9358C97.5819 29.8558 97.2919 29.7725 96.9986 29.6858C96.7119 29.5925 96.4453 29.4791 96.1986 29.3458C95.9586 29.2058 95.7653 29.0225 95.6186 28.7958C95.4719 28.5691 95.3986 28.2791 95.3986 27.9258C95.3986 27.5458 95.4953 27.2091 95.6886 26.9158C95.8886 26.6225 96.1653 26.3958 96.5186 26.2358C96.8786 26.0691 97.3019 25.9858 97.7886 25.9858C98.2619 25.9858 98.6853 26.0725 99.0586 26.2458C99.4319 26.4191 99.7286 26.6658 99.9486 26.9858C100.169 27.2991 100.285 27.6758 100.299 28.1158H99.4286C99.4219 27.8358 99.3453 27.5925 99.1986 27.3858C99.0519 27.1791 98.8553 27.0191 98.6086 26.9058C98.3686 26.7925 98.0953 26.7358 97.7886 26.7358C97.3419 26.7358 96.9819 26.8425 96.7086 27.0558C96.4419 27.2625 96.3086 27.5425 96.3086 27.8958C96.3086 28.1358 96.3819 28.3291 96.5286 28.4758C96.6753 28.6225 96.8686 28.7425 97.1086 28.8358C97.3553 28.9225 97.6219 29.0025 97.9086 29.0758C98.2019 29.1491 98.4919 29.2325 98.7786 29.3258C99.0719 29.4125 99.3386 29.5291 99.5786 29.6758C99.8253 29.8225 100.022 30.0191 100.169 30.2658C100.315 30.5125 100.389 30.8258 100.389 31.2058C100.389 31.6191 100.279 31.9758 100.059 32.2758C99.8453 32.5758 99.5519 32.8058 99.1786 32.9658C98.8053 33.1258 98.3853 33.2058 97.9186 33.2058ZM110.526 33.2058C110 33.2058 109.536 33.1058 109.136 32.9058C108.743 32.7058 108.436 32.4125 108.216 32.0258C107.996 31.6391 107.886 31.1691 107.886 30.6158H108.746C108.746 31.2025 108.906 31.6558 109.226 31.9758C109.546 32.2958 109.98 32.4558 110.526 32.4558C110.986 32.4558 111.36 32.3491 111.646 32.1358C111.94 31.9158 112.086 31.6091 112.086 31.2158C112.086 30.9558 112.01 30.7458 111.856 30.5858C111.71 30.4191 111.513 30.2891 111.266 30.1958C111.026 30.0958 110.763 30.0091 110.476 29.9358C110.19 29.8558 109.9 29.7725 109.606 29.6858C109.32 29.5925 109.053 29.4791 108.806 29.3458C108.566 29.2058 108.373 29.0225 108.226 28.7958C108.08 28.5691 108.006 28.2791 108.006 27.9258C108.006 27.5458 108.103 27.2091 108.296 26.9158C108.496 26.6225 108.773 26.3958 109.126 26.2358C109.486 26.0691 109.91 25.9858 110.396 25.9858C110.87 25.9858 111.293 26.0725 111.666 26.2458C112.04 26.4191 112.336 26.6658 112.556 26.9858C112.776 27.2991 112.893 27.6758 112.906 28.1158H112.036C112.03 27.8358 111.953 27.5925 111.806 27.3858C111.66 27.1791 111.463 27.0191 111.216 26.9058C110.976 26.7925 110.703 26.7358 110.396 26.7358C109.95 26.7358 109.59 26.8425 109.316 27.0558C109.05 27.2625 108.916 27.5425 108.916 27.8958C108.916 28.1358 108.99 28.3291 109.136 28.4758C109.283 28.6225 109.476 28.7425 109.716 28.8358C109.963 28.9225 110.23 29.0025 110.516 29.0758C110.81 29.1491 111.1 29.2325 111.386 29.3258C111.68 29.4125 111.946 29.5291 112.186 29.6758C112.433 29.8225 112.63 30.0191 112.776 30.2658C112.923 30.5125 112.996 30.8258 112.996 31.2058C112.996 31.6191 112.886 31.9758 112.666 32.2758C112.453 32.5758 112.16 32.8058 111.786 32.9658C111.413 33.1258 110.993 33.2058 110.526 33.2058ZM116.28 33.0858V26.8558H113.96V26.1058H119.47V26.8558H117.15V33.0858H116.28ZM122.584 33.0858V26.1058H123.454V33.0858H122.584ZM120.794 26.1058H125.244V26.8558H120.794V26.1058ZM120.794 32.3358H125.244V33.0858H120.794V32.3358ZM127.268 33.0858V26.1058H128.128V32.3358H131.878V33.0858H127.268ZM133.572 33.0858V26.1058H134.432V32.3358H138.182V33.0858H133.572ZM147.8 33.0858V26.8558H145.48V26.1058H150.99V26.8558H148.67V33.0858H147.8ZM154.554 33.2058C153.967 33.2058 153.457 33.0591 153.024 32.7658C152.59 32.4658 152.254 32.0458 152.014 31.5058C151.78 30.9591 151.664 30.3225 151.664 29.5958C151.664 28.8625 151.78 28.2258 152.014 27.6858C152.254 27.1458 152.59 26.7291 153.024 26.4358C153.457 26.1358 153.967 25.9858 154.554 25.9858C155.14 25.9858 155.65 26.1358 156.084 26.4358C156.517 26.7291 156.85 27.1458 157.084 27.6858C157.324 28.2258 157.444 28.8625 157.444 29.5958C157.444 30.3225 157.324 30.9591 157.084 31.5058C156.85 32.0458 156.517 32.4658 156.084 32.7658C155.65 33.0591 155.14 33.2058 154.554 33.2058ZM154.554 32.4558C154.954 32.4558 155.3 32.3391 155.594 32.1058C155.894 31.8725 156.124 31.5425 156.284 31.1158C156.45 30.6825 156.534 30.1758 156.534 29.5958C156.534 29.0158 156.45 28.5125 156.284 28.0858C156.124 27.6591 155.894 27.3291 155.594 27.0958C155.3 26.8558 154.954 26.7358 154.554 26.7358C154.154 26.7358 153.804 26.8558 153.504 27.0958C153.21 27.3291 152.98 27.6591 152.814 28.0858C152.647 28.5125 152.564 29.0158 152.564 29.5958C152.564 30.1758 152.647 30.6825 152.814 31.1158C152.98 31.5425 153.21 31.8725 153.504 32.1058C153.804 32.3391 154.154 32.4558 154.554 32.4558ZM167.292 33.2058C166.678 33.2058 166.145 33.0491 165.692 32.7358C165.245 32.4225 164.902 31.9958 164.662 31.4558C164.422 30.9091 164.302 30.2858 164.302 29.5858C164.302 28.8525 164.428 28.2158 164.682 27.6758C164.935 27.1358 165.288 26.7191 165.742 26.4258C166.195 26.1325 166.718 25.9858 167.312 25.9858C167.798 25.9858 168.235 26.0825 168.622 26.2758C169.008 26.4625 169.325 26.7325 169.572 27.0858C169.818 27.4391 169.965 27.8558 170.012 28.3358H169.052C168.998 27.8558 168.815 27.4691 168.502 27.1758C168.188 26.8825 167.788 26.7358 167.302 26.7358C166.888 26.7358 166.525 26.8525 166.212 27.0858C165.898 27.3191 165.652 27.6525 165.472 28.0858C165.298 28.5125 165.212 29.0158 165.212 29.5958C165.212 30.1825 165.302 30.6925 165.482 31.1258C165.662 31.5525 165.908 31.8825 166.222 32.1158C166.535 32.3425 166.892 32.4558 167.292 32.4558C167.632 32.4558 167.928 32.3858 168.182 32.2458C168.442 32.1058 168.648 31.9091 168.802 31.6558C168.962 31.4025 169.058 31.1058 169.092 30.7658H170.042C169.995 31.2525 169.852 31.6825 169.612 32.0558C169.378 32.4225 169.065 32.7058 168.672 32.9058C168.278 33.1058 167.818 33.2058 167.292 33.2058ZM173.465 33.2058C172.879 33.2058 172.369 33.0591 171.935 32.7658C171.502 32.4658 171.165 32.0458 170.925 31.5058C170.692 30.9591 170.575 30.3225 170.575 29.5958C170.575 28.8625 170.692 28.2258 170.925 27.6858C171.165 27.1458 171.502 26.7291 171.935 26.4358C172.369 26.1358 172.879 25.9858 173.465 25.9858C174.052 25.9858 174.562 26.1358 174.995 26.4358C175.429 26.7291 175.762 27.1458 175.995 27.6858C176.235 28.2258 176.355 28.8625 176.355 29.5958C176.355 30.3225 176.235 30.9591 175.995 31.5058C175.762 32.0458 175.429 32.4658 174.995 32.7658C174.562 33.0591 174.052 33.2058 173.465 33.2058ZM173.465 32.4558C173.865 32.4558 174.212 32.3391 174.505 32.1058C174.805 31.8725 175.035 31.5425 175.195 31.1158C175.362 30.6825 175.445 30.1758 175.445 29.5958C175.445 29.0158 175.362 28.5125 175.195 28.0858C175.035 27.6591 174.805 27.3291 174.505 27.0958C174.212 26.8558 173.865 26.7358 173.465 26.7358C173.065 26.7358 172.715 26.8558 172.415 27.0958C172.122 27.3291 171.892 27.6591 171.725 28.0858C171.559 28.5125 171.475 29.0158 171.475 29.5958C171.475 30.1758 171.559 30.6825 171.725 31.1158C171.892 31.5425 172.122 31.8725 172.415 32.1058C172.715 32.3391 173.065 32.4558 173.465 32.4558ZM176.799 33.0858L177.339 26.1058H178.499L179.549 30.6358L179.769 31.8558L179.989 30.6358L181.059 26.1058H182.189L182.739 33.0858H181.879L181.579 28.4058L181.529 27.0058L181.239 28.4058L180.139 33.0858H179.359L178.279 28.4058L177.999 26.9858L177.939 28.4058L177.649 33.0858H176.799ZM183.673 33.0858V26.1058H188.633V26.8558H184.543V29.0958H187.413V29.8458H184.543V32.3358H188.673V33.0858H183.673ZM191.837 33.0858V32.0158H192.897V33.0858H191.837ZM0.29 47.0858L0.83 40.1058H1.99L3.04 44.6358L3.26 45.8558L3.48 44.6358L4.55 40.1058H5.68L6.23 47.0858H5.37L5.07 42.4058L5.02 41.0058L4.73 42.4058L3.63 47.0858H2.85L1.77 42.4058L1.49 40.9858L1.43 42.4058L1.14 47.0858H0.29ZM7.69391 45.1958V44.4458H11.4839V45.1958H7.69391ZM8.94391 40.1058H10.1539L12.4439 47.0858H11.5539L9.97391 42.2458L9.55391 40.8358L9.13391 42.2558L7.54391 47.0858H6.66391L8.94391 40.1058ZM15.4078 47.0858V44.2558L13.0578 40.1058H14.0178L15.2078 42.2058L15.8478 43.4858L16.5078 42.1958L17.6978 40.1058H18.6478L16.2678 44.2558V47.0858H15.4078ZM28.0256 47.0858V40.8558H25.7056V40.1058H31.2156V40.8558H28.8956V47.0858H28.0256ZM36.4295 47.0858V40.1058H37.2895V47.0858H36.4295ZM32.2495 47.0858V40.1058H33.1095V47.0858H32.2495ZM32.9795 43.8458V43.0958H36.5595V43.8458H32.9795ZM38.6834 47.0858V40.1058H43.6434V40.8558H39.5534V43.0958H42.4234V43.8458H39.5534V46.3358H43.6834V47.0858H38.6834ZM46.9273 47.0858V44.2558L44.5773 40.1058H45.5373L46.7273 42.2058L47.3673 43.4858L48.0273 42.1958L49.2173 40.1058H50.1673L47.7873 44.2558V47.0858H46.9273ZM61.2552 43.4258C61.5085 43.4925 61.7385 43.5991 61.9452 43.7458C62.1518 43.8925 62.3152 44.0825 62.4352 44.3158C62.5618 44.5491 62.6252 44.8258 62.6252 45.1458C62.6252 45.5325 62.5285 45.8725 62.3352 46.1658C62.1485 46.4591 61.8785 46.6858 61.5252 46.8458C61.1718 47.0058 60.7552 47.0858 60.2752 47.0858H57.6352V40.1058H60.1652C60.8785 40.1058 61.4385 40.2625 61.8452 40.5758C62.2518 40.8891 62.4552 41.3058 62.4552 41.8258C62.4552 42.0725 62.4085 42.3058 62.3152 42.5258C62.2218 42.7458 62.0852 42.9358 61.9052 43.0958C61.7318 43.2491 61.5152 43.3591 61.2552 43.4258ZM60.1452 40.8558H58.4952V43.1258H60.1452C60.5785 43.1258 60.9185 43.0191 61.1652 42.8058C61.4185 42.5925 61.5452 42.3091 61.5452 41.9558C61.5452 41.6091 61.4185 41.3391 61.1652 41.1458C60.9118 40.9525 60.5718 40.8558 60.1452 40.8558ZM58.4952 46.3358H60.2552C60.7085 46.3358 61.0652 46.2258 61.3252 46.0058C61.5852 45.7791 61.7152 45.4791 61.7152 45.1058C61.7152 44.7125 61.5752 44.4091 61.2952 44.1958C61.0152 43.9825 60.6285 43.8758 60.1352 43.8758H58.4952V46.3358ZM63.8991 47.0858V40.1058H68.8591V40.8558H64.7691V43.0958H67.6391V43.8458H64.7691V46.3358H68.8991V47.0858H63.8991ZM76.4569 47.0858V40.1058H81.4469V40.8558H77.3169V43.0958H80.2269V43.8458H77.3169V47.0858H76.4569ZM84.7608 47.0858V40.1058H85.6308V47.0858H84.7608ZM82.9708 40.1058H87.4208V40.8558H82.9708V40.1058ZM82.9708 46.3358H87.4208V47.0858H82.9708V46.3358ZM89.4447 47.0858V40.1058H90.3047V46.3358H94.0547V47.0858H89.4447ZM95.7486 47.0858V40.1058H96.6086V46.3358H100.359V47.0858H95.7486ZM101.723 47.0858V40.1058H106.683V40.8558H102.593V43.0958H105.463V43.8458H102.593V46.3358H106.723V47.0858H101.723ZM107.896 47.0858V40.1058H109.986C110.486 40.1058 110.936 40.1891 111.336 40.3558C111.743 40.5158 112.09 40.7491 112.376 41.0558C112.663 41.3558 112.883 41.7191 113.036 42.1458C113.19 42.5725 113.266 43.0491 113.266 43.5758C113.266 44.1091 113.19 44.5925 113.036 45.0258C112.883 45.4525 112.663 45.8225 112.376 46.1358C112.09 46.4425 111.743 46.6791 111.336 46.8458C110.936 47.0058 110.486 47.0858 109.986 47.0858H107.896ZM108.766 46.3358H109.986C110.466 46.3358 110.883 46.2225 111.236 45.9958C111.596 45.7691 111.87 45.4491 112.056 45.0358C112.25 44.6158 112.346 44.1291 112.346 43.5758C112.346 43.0225 112.25 42.5425 112.056 42.1358C111.87 41.7291 111.596 41.4158 111.236 41.1958C110.883 40.9691 110.466 40.8558 109.986 40.8558H108.766V46.3358ZM1.05 61.0858L0.18 54.1058H1.01L1.59 58.7858L1.72 60.2758L1.96 58.7858L2.87 54.1058H3.69L4.6 58.7858L4.85 60.2958L4.95 58.7858L5.52 54.1058H6.34L5.46 61.0858H4.29L3.49 56.7958L3.28 55.3758L3.07 56.7958L2.23 61.0858H1.05ZM9.11391 61.0858V54.1058H9.98391V61.0858H9.11391ZM7.32391 54.1058H11.7739V54.8558H7.32391V54.1058ZM7.32391 60.3358H11.7739V61.0858H7.32391V60.3358ZM15.4178 61.0858V54.8558H13.0978V54.1058H18.6078V54.8558H16.2878V61.0858H15.4178ZM23.8217 61.0858V54.1058H24.6817V61.0858H23.8217ZM19.6417 61.0858V54.1058H20.5017V61.0858H19.6417ZM20.3717 57.8458V57.0958H23.9517V57.8458H20.3717ZM32.7095 61.0858V54.1058H33.5695V60.3358H37.3195V61.0858H32.7095ZM41.0834 61.2058C40.4968 61.2058 39.9868 61.0591 39.5534 60.7658C39.1201 60.4658 38.7834 60.0458 38.5434 59.5058C38.3101 58.9591 38.1934 58.3225 38.1934 57.5958C38.1934 56.8625 38.3101 56.2258 38.5434 55.6858C38.7834 55.1458 39.1201 54.7291 39.5534 54.4358C39.9868 54.1358 40.4968 53.9858 41.0834 53.9858C41.6701 53.9858 42.1801 54.1358 42.6134 54.4358C43.0468 54.7291 43.3801 55.1458 43.6134 55.6858C43.8534 56.2258 43.9734 56.8625 43.9734 57.5958C43.9734 58.3225 43.8534 58.9591 43.6134 59.5058C43.3801 60.0458 43.0468 60.4658 42.6134 60.7658C42.1801 61.0591 41.6701 61.2058 41.0834 61.2058ZM41.0834 60.4558C41.4834 60.4558 41.8301 60.3391 42.1234 60.1058C42.4234 59.8725 42.6534 59.5425 42.8134 59.1158C42.9801 58.6825 43.0634 58.1758 43.0634 57.5958C43.0634 57.0158 42.9801 56.5125 42.8134 56.0858C42.6534 55.6591 42.4234 55.3291 42.1234 55.0958C41.8301 54.8558 41.4834 54.7358 41.0834 54.7358C40.6834 54.7358 40.3334 54.8558 40.0334 55.0958C39.7401 55.3291 39.5101 55.6591 39.3434 56.0858C39.1768 56.5125 39.0934 57.0158 39.0934 57.5958C39.0934 58.1758 39.1768 58.6825 39.3434 59.1158C39.5101 59.5425 39.7401 59.8725 40.0334 60.1058C40.3334 60.3391 40.6834 60.4558 41.0834 60.4558ZM46.7773 61.0858L44.4573 54.1058H45.3573L46.9973 58.9158L47.3873 60.3258L47.7773 58.9258L49.4173 54.1058H50.3073L47.9873 61.0858H46.7773ZM51.2913 61.0858V54.1058H56.2513V54.8558H52.1613V57.0958H55.0313V57.8458H52.1613V60.3358H56.2913V61.0858H51.2913ZM59.4552 61.0858V60.0158H60.5152V61.0858H59.4552Z" fill="#F15583"/>
<path d="M55.9574 144.898C60.2702 152.625 59.8848 158.395 54.83 162.319C48.8487 166.96 41.0923 165.766 34.4018 159.22C32.0281 160.414 29.7733 161.863 27.3136 162.721C22.0497 164.555 16.9539 163.057 14.035 159.163C11.0587 155.194 11.1694 150.147 14.3425 145.407C14.5598 145.079 14.7812 144.75 15.0599 144.332C14.6459 144.028 14.3343 143.786 14.0145 143.56C10.3126 140.934 8.30789 137.507 9.218 132.849C10.1732 127.978 13.2766 125.031 17.9911 123.919C19.5818 123.546 21.3938 123.632 23.0049 123.981C24.5013 124.305 25.0834 123.891 25.5959 122.602C27.1496 118.679 29.5807 115.646 33.9221 114.55C40.9365 112.782 46.5489 116.155 48.2051 123.107C48.3404 123.681 49.0988 124.486 49.6236 124.535C54.5431 124.986 58.3024 127.12 59.9423 131.934C61.5739 136.735 60.3686 140.946 56.4904 144.315C56.2895 144.492 56.1296 144.713 55.9656 144.902L55.9574 144.898ZM46.0692 159.278C46.6227 159.237 47.2458 159.253 47.8444 159.138C50.3656 158.65 52.6819 157.759 53.3542 154.948C54.0142 152.186 53.1656 149.814 50.9354 148.005C50.4066 147.574 49.804 147.233 49.2915 146.786C47.4221 145.148 47.7009 142.916 49.8941 141.812C50.4435 141.537 51.0174 141.319 51.5668 141.049C54.6415 139.53 55.9779 136.35 54.7071 133.584C53.3255 130.576 50.1032 129.476 46.8441 130.904C44.3064 132.016 42.0803 130.658 41.9983 127.888C41.9737 127.087 42.2361 126.275 42.355 125.471C42.8141 122.352 41.3014 120.246 38.239 119.738C35.0126 119.204 32.7251 120.39 31.2943 123.48C30.5482 125.085 30.0726 126.817 29.2978 128.409C28.2319 130.609 26.6044 131.085 24.3947 130.075C23.5912 129.71 22.7835 129.312 21.9349 129.094C19.0693 128.356 16.1094 129.944 14.9615 132.763C13.9448 135.258 14.9369 137.733 17.6345 139.3C18.3355 139.707 19.1349 139.949 19.8646 140.318C22.5089 141.644 22.8327 143.995 20.7952 146.105C19.8113 147.122 18.9176 148.28 18.2248 149.511C17.204 151.316 16.8801 153.278 18.2002 155.121C19.5408 156.992 21.4184 157.825 23.7142 157.583C26.6536 157.271 29.2609 156.147 31.4009 154.091C34.5289 151.087 35.9924 151.206 38.2226 154.903C40.01 157.866 42.56 159.339 46.0651 159.29L46.0692 159.278Z" fill="#F15583"/>
<path fill-rule="evenodd" clip-rule="evenodd" d="M329.794 2.16512C328.751 2.74354 325.807 4.24997 323.262 5.53476C304.98 14.7578 294.967 21.4928 282.441 32.9952C277.563 37.465 269.563 45.3933 269.459 45.8456C269.364 46.3195 269.731 47.1689 270.118 47.3436C270.56 47.5433 274.351 46.0868 280.904 43.1896C289.854 39.2255 298.103 36.265 304.467 34.7521C311.915 32.9455 328.9 29.9427 334.17 29.4867C338.818 29.0826 339.074 29.0316 339.388 28.408C340.061 27.0943 339.011 26.6868 335.275 26.8834C329.324 27.1805 315.517 29.5346 304.736 32.1194C299.758 33.2909 295.782 34.6127 287.942 37.6938C283.686 39.3756 280.219 40.7096 280.244 40.6543C280.335 40.4114 288.067 35.7154 291.013 34.0919C299.902 29.1838 306.212 26.315 317.922 21.8108C327.027 18.318 327.543 18.098 327.654 17.6673C327.846 17.0193 327.725 16.7651 327.072 16.37C326.578 16.0982 326.274 16.1427 323.754 16.8885C320.644 17.8363 309.971 22.0361 305.392 24.1403C299.71 26.7292 292.21 30.5781 287.409 33.3629C285.869 34.2671 284.508 35.0369 284.384 35.0836C284.055 35.1833 285.929 33.4646 289.058 30.8079C299.913 21.5688 308.701 15.9648 326.35 7.00615C332.337 3.95592 334.596 2.64177 334.92 2.03553C335.247 1.38214 335.068 0.853346 334.348 0.525729C333.685 0.226162 332.69 0.578065 329.798 2.15661L329.794 2.16512Z" fill="#F15583"/>
<path fill-rule="evenodd" clip-rule="evenodd" d="M253.612 38.9507C253.191 39.4104 250.286 44.1213 246.657 50.1867C245.62 51.9349 244.683 53.465 244.594 53.5908C244.482 53.7248 244.003 53.7898 243.479 53.7375C242.98 53.6967 241.29 53.5988 239.744 53.5172C238.215 53.4286 235.762 53.2524 234.307 53.1149C229.657 52.6656 228.527 52.7722 228.16 53.7405C228.036 54.0171 228.039 54.4536 228.139 54.7161C228.291 55.1175 231.04 57.0452 237.646 61.329C238.744 62.0396 239.64 62.7133 239.652 62.8006C239.651 62.9176 239.132 63.7353 238.51 64.6345C236.552 67.4692 233.91 71.897 232.958 73.9344C232.194 75.5578 232.069 76.0183 232.267 76.5432C232.534 77.2471 233.125 77.5986 233.897 77.5147C234.183 77.4772 235.785 76.6164 237.462 75.5897C241.331 73.2494 247.016 70.0629 247.262 70.1074C247.365 70.1388 247.745 70.5917 248.104 71.1228C249.4 73.0927 254.081 79.1432 254.62 79.5355C255.852 80.4246 257.108 79.8576 257.178 78.4048C257.202 77.9829 256.959 76.3733 256.64 74.8597C255.88 71.2148 255.014 66.3215 255.096 66.1741C255.134 66.089 256.908 65.5589 259.052 64.9764C261.212 64.3671 264.708 63.2942 266.832 62.536C270.614 61.2417 270.727 61.1777 270.989 60.5948C271.724 58.961 270.397 58.4256 262.008 56.8891C258.557 56.2648 255.597 55.7295 255.398 55.6883C254.925 55.5922 254.91 56.0358 255.991 42.3286C256.221 39.4811 256.113 38.8335 255.269 38.4857C254.566 38.2013 254.187 38.2989 253.609 38.9518L253.612 38.9507ZM252.84 49.5262C252.571 52.4557 252.377 55.2223 252.409 55.6692C252.443 56.4858 253.057 57.8634 253.443 58.0382C253.72 58.163 259.632 59.2818 262.836 59.7948C265.799 60.283 266.16 60.4462 264.854 60.7572C264.343 60.859 262.815 61.3209 261.467 61.7641C258.952 62.5787 257.654 62.9781 254.577 63.8892C252.983 64.3547 252.798 64.4707 252.614 64.9534C252.473 65.3069 252.607 66.7494 252.982 69.1383C253.3 71.1324 253.608 72.8585 253.654 72.9789C253.875 73.5625 253.064 72.6973 251.53 70.7014C249.275 67.7813 248.675 67.2286 247.634 67.2093C246.865 67.1793 246.48 67.3712 242.005 69.9372C239.369 71.4648 237.146 72.6981 237.083 72.6515C236.972 72.6016 239.981 67.5052 241.754 64.7865C242.785 63.1994 242.911 62.8058 242.645 62.1018C242.569 61.9011 240.53 60.4633 238.149 58.9042C233.443 55.8779 233.136 55.6728 233.477 55.7271C233.603 55.7504 234.842 55.8776 236.235 55.9717C240.238 56.2951 243.105 56.223 244.618 55.7878L245.974 55.3662L247.227 53.5822C247.926 52.5797 249.002 50.9334 249.627 49.913C251.877 46.209 253.179 44.1275 253.261 44.1671C253.291 44.1805 253.102 46.596 252.834 49.5285L252.84 49.5262Z" fill="#F15583"/>
<path d="M268.459 422.749C264.42 418.299 259.541 414.229 256.872 408.709C250.947 396.695 260.265 389.283 268.433 401.389C270.521 396.503 274.951 389.534 281.054 390.3C286.386 392.027 285.276 399.074 283.892 403.237C281.906 409.428 278.434 415 274.893 420.41C273.591 422.797 270.931 425.553 268.457 422.749H268.459ZM280.463 398.818C280.604 397.741 281.271 395.101 279.366 395.644C279.582 396.081 279.706 396.562 279.763 397.056C280.156 397.549 280.387 398.187 280.466 398.818H280.463Z" fill="white"/>
<path d="M322.262 432.653C321.467 432.108 320.934 431.375 320.622 430.462C320.517 430.151 320.436 429.836 320.374 429.515C313.073 422.473 314.009 408.656 318.445 400.271C323.255 392.735 329.402 400.169 330.454 406.108C333.778 402.833 339.096 398.848 343.928 400.997C347.838 403.509 346.971 409.261 345.025 412.79C340.891 420.381 333.659 425.533 327.261 431.107C325.946 432.312 324.058 433.851 322.262 432.653Z" fill="white"/>
</svg>
