<svg width="329" height="245" viewBox="0 0 329 245" fill="none" xmlns="http://www.w3.org/2000/svg">
<g clip-path="url(#clip0_663_319)">
<path d="M52.105 167.867C51.5843 167.933 51.1744 167.93 50.8005 168.041C46.6543 169.283 42.5053 170.514 38.3758 171.812C37.2624 172.161 36.9051 171.939 36.8968 170.736C36.8857 169.175 36.6586 167.617 36.3013 165.979C35.6006 167.878 34.9248 169.788 34.1936 171.673C31.3436 179.028 29.1057 186.596 26.4745 194.029C26.1062 195.066 25.5772 195.296 24.5967 194.908C24.1397 194.728 23.619 194.692 23.1232 194.642C20.7136 194.398 18.2985 194.209 15.8944 193.924C15.0469 193.824 14.95 193.192 15.2131 192.457C17.8276 185.135 20.4339 177.811 23.0512 170.492C23.2673 169.888 23.5885 169.325 23.8212 168.726C24.0871 168.039 23.8877 167.567 23.0872 167.758C21.6913 168.091 20.3037 168.479 18.9355 168.915C16.7613 169.608 14.6231 170.417 12.4406 171.077C9.37185 172.008 6.2726 172.843 3.19274 173.736C2.84376 173.835 2.53632 174.129 2.19012 174.171C1.77744 174.218 1.32598 174.14 0.938229 173.993C0.860678 173.966 0.985313 173.384 1.02686 173.056C1.06286 172.763 1.20966 172.438 1.13211 172.18C0.716656 170.78 0.835751 170.162 0.907762 168.28C0.954847 167.071 0.536627 165.798 0.118408 164.629C-0.213952 163.703 0.218116 163.409 0.888375 163.234C3.44477 162.566 6.00948 161.923 8.5825 161.31C10.729 160.797 12.8949 160.37 15.0358 159.844C15.8778 159.636 16.6616 159.211 17.498 158.973C20.8438 158.014 24.2006 157.096 27.5464 156.137C27.9175 156.032 28.369 155.843 28.5656 155.549C29.15 154.662 29.7372 154.413 30.5349 155.258C30.5653 155.291 30.6096 155.352 30.6373 155.347C33.2353 154.809 34.9774 157.365 37.5006 157.226C38.8882 157.152 39.2427 157.892 38.6583 159.211C38.2041 160.243 37.7637 161.28 37.1322 162.749C38.9546 162.328 40.3672 162.075 41.7381 161.67C45.3027 160.617 48.8368 159.472 52.4041 158.424C53.2766 158.169 53.6643 157.731 53.8194 156.838C54.6337 152.123 55.4785 147.412 56.3703 142.713C56.9187 139.822 57.6056 136.955 58.1512 134.064C58.3201 133.168 58.6331 132.905 59.5332 133.091C62.3057 133.667 65.0809 134.255 67.8782 134.671C69.1661 134.862 69.2631 135.483 69.0221 136.478C68.0278 140.565 67.0196 144.648 66.053 148.743C65.8675 149.533 65.909 150.379 65.7096 151.163C65.585 151.657 65.2055 152.084 64.9507 152.522C65.067 152.766 65.4714 153.207 65.3938 153.531C64.9756 155.286 65.2138 157.262 64.0838 158.76C64.1309 159.295 64.3192 159.943 64.2223 160.545C63.5576 164.673 62.7876 168.787 62.1367 172.918C61.4526 177.279 60.8599 181.656 60.234 186.028C59.993 187.708 59.7271 189.385 59.5554 191.074C59.4418 192.188 59.2535 192.815 57.8244 192.959C55.0381 193.239 52.2878 193.896 49.532 194.439C48.5044 194.642 48.1028 194.198 48.3078 193.003C48.6706 190.885 49.0085 188.762 49.4101 186.319C47.1141 186.982 45.1033 187.533 43.1091 188.149C40.7328 188.881 38.3675 189.638 36.0133 190.436C34.994 190.783 34.7918 190.273 34.7531 189.446C34.6561 187.337 34.0939 185.221 34.8749 183.123C34.9248 182.987 34.8223 182.762 34.7337 182.613C34.0246 181.415 34.9082 181.171 35.7446 180.946C39.6415 179.898 43.5412 178.87 47.4381 177.83C47.5267 177.805 47.6098 177.739 47.6957 177.736C50.0859 177.614 51.0913 176.35 51.2021 173.968C51.2963 171.978 51.7782 170.004 52.1133 167.867H52.105ZM14.8641 168.989C15.8113 167.8 21.4337 166.181 22.6607 166.747C22.6136 165.879 22.2757 165.53 21.3673 165.868C20.6001 166.153 19.7858 166.309 18.9937 166.533C17.3568 166.993 15.7227 167.462 14.0249 167.941C14.3656 168.363 14.6148 168.676 14.8669 168.989H14.8641ZM25.4968 163.129C25.4304 162.849 25.3667 162.569 25.3002 162.286C24.5053 162.499 23.7104 162.716 22.9155 162.929C22.9654 163.156 23.018 163.381 23.0678 163.608C23.8794 163.448 24.6881 163.287 25.4996 163.126L25.4968 163.129ZM6.26706 169.106L6.25875 168.615C5.09826 168.834 3.93501 169.056 2.77452 169.275C2.79944 169.419 2.8216 169.563 2.84653 169.707L6.26706 169.106Z" fill="#F15583"/>
<path d="M42.2855 232.193C45.731 230.97 48.8386 229.853 51.9572 228.766C57.3027 226.903 62.6592 225.071 68.0019 223.199C69.9517 222.515 71.8794 221.761 73.8126 221.029C74.9205 220.61 75.3193 220.937 75.4246 222.049C75.6572 224.464 75.901 226.884 76.358 229.262C76.5518 230.277 76.2693 230.574 75.4384 230.848C69.8936 232.692 64.3127 234.436 58.8315 236.451C51.8907 239.004 45.0358 241.788 38.1421 244.46C37.4359 244.735 36.8764 244.785 36.5385 243.806C36.3391 243.229 35.7104 242.769 35.2063 242.334C34.4169 241.649 33.5694 241.028 32.7468 240.382C32.8493 240.282 32.949 240.18 33.0515 240.08C32.6914 240.224 32.3397 240.452 31.9686 240.488C31.7054 240.513 31.4146 240.28 31.1377 240.163C32.0516 238.991 30.5034 237.882 31.1487 236.532C31.7359 235.309 31.6057 233.74 31.7747 232.32C31.999 230.452 32.2123 228.581 32.4145 226.709C32.4366 226.496 32.3729 226.274 32.3785 226.321C31.4728 226.205 30.6973 226.105 29.9218 226.005C30.0381 225.658 30.1544 225.312 30.2624 224.99C29.9605 224.846 29.5146 224.635 28.8305 224.308C30.2514 223.618 31.3537 222.883 32.3563 224.588C32.5391 223.599 32.7219 222.609 32.9795 221.217C32.0212 221.896 31.3814 222.351 30.7388 222.803C30.2154 221.927 29.9716 222.038 28.7751 223.718C28.2461 222.096 28.3735 221.957 29.9633 221.686C31.0878 221.494 32.179 221.12 33.2454 220.71C31.4479 220.169 29.8608 222.068 27.7227 220.89C28.2766 220.477 28.6006 220.092 29.0078 219.959C32.8825 218.675 36.7656 217.414 40.6598 216.183C43.3325 215.34 46.0191 214.536 48.7084 213.757C49.4479 213.543 49.8634 213.222 50.0046 212.393C50.3093 210.599 50.7524 208.83 51.19 206.812C48.4037 207.519 45.9138 208.129 43.435 208.781C39.0312 209.937 34.633 211.118 30.232 212.285C29.5036 212.479 29.0853 212.26 29.0299 211.436C28.8915 209.371 28.7225 207.308 28.5591 205.246C28.5259 204.838 28.5342 204.409 28.3985 204.034C28.1049 203.228 28.4899 202.937 29.185 202.781C31.9602 202.16 34.741 201.564 37.5051 200.893C42.6401 199.651 47.8332 198.578 52.8574 196.979C54.6272 196.416 56.0951 196.031 57.9341 196.369C59.0476 196.574 60.3133 195.964 61.6594 195.69C61.6012 196.244 61.5486 196.721 61.4821 197.331C61.8809 197.309 62.2825 197.325 62.6703 197.262C63.8169 197.076 64.2435 197.564 63.9665 198.712C62.5429 204.608 61.0722 210.494 59.7649 216.416C59.4713 217.741 59.0476 218.145 57.6876 218.342C55.3833 218.678 53.1454 219.471 50.8687 220.031C48.9992 220.488 47.0965 220.815 45.2519 221.348C44.7201 221.5 44.0249 222.096 43.9252 222.592C43.3076 225.692 42.8395 228.819 42.2772 232.198L42.2855 232.193ZM48.9383 218.75C48.8829 218.534 48.8275 218.317 48.7721 218.098C47.0217 218.592 45.2712 219.088 43.5208 219.582C43.5624 219.74 43.6011 219.898 43.6427 220.056C45.407 219.62 47.1712 219.185 48.9383 218.747V218.75Z" fill="#F15583"/>
<path d="M315.288 117.413C315.236 117.89 315.252 118.386 315.122 118.841C314.709 120.277 313.834 121.622 314.238 123.066C313.748 123.349 313.233 123.645 312.721 123.939C312.807 124.064 312.89 124.186 312.975 124.311C313.156 124.122 313.336 123.931 313.513 123.742C315.465 124.438 313.089 125.774 313.975 126.623C313.444 126.8 312.945 126.964 312.422 127.138V128.569C312.848 128.378 313.153 128.239 313.46 128.1C313.601 128.245 313.743 128.386 313.884 128.53C313.344 128.699 312.801 128.868 312.114 129.082C312.801 129.695 313.084 129.95 313.474 130.299C312.959 130.512 312.555 130.679 312.05 130.887C312.322 131.347 312.588 131.796 312.906 132.337C312.743 132.406 312.474 132.522 312.117 132.68C312.075 133.052 313.712 133.387 312.181 133.77C312.812 134.879 313.629 134.951 314.682 134.704C318.124 133.897 321.586 133.179 325.035 132.4C325.608 132.27 326.151 131.998 326.707 131.793C327.774 131.4 328.488 131.923 328.306 133.038C328.217 133.59 327.912 134.105 327.729 134.646C327.677 134.804 327.677 135.001 327.71 135.167C328.04 136.806 328.416 138.438 328.707 140.082C328.846 140.859 329.15 141.912 328.787 142.381C328.419 142.855 327.314 142.727 326.547 142.924C324.157 143.531 321.766 144.133 319.393 144.795C316.928 145.483 314.496 146.281 312.025 146.941C311.006 147.213 310.43 147.823 310.524 148.771C310.685 150.379 310.186 151.607 308.688 152.563C310.336 152.563 310.477 153.121 309.61 155.491H307.558C307.45 156.206 307.35 156.858 307.284 157.307C307.849 156.844 308.453 156.348 309.056 155.851C309.189 155.932 309.32 156.012 309.452 156.093C309.472 156.47 309.547 156.855 309.5 157.224C308.743 163.14 307.96 169.05 307.209 174.969C307.082 175.981 306.722 176.416 305.589 176.258C304.702 176.134 303.766 176.367 302.852 176.455C301.013 176.633 299.177 176.852 297.332 176.988C296.313 177.062 296.086 176.347 296.211 175.518C296.826 171.41 297.499 167.307 298.094 163.195C298.939 157.39 299.745 151.576 300.548 145.766C301.517 138.76 302.395 131.743 303.453 124.752C304.315 119.054 305.387 113.388 306.362 107.707C306.461 107.12 306.411 106.457 306.674 105.958C306.891 105.548 307.5 105.038 307.888 105.074C310.702 105.337 313.504 105.725 316.31 106.074C317.551 106.23 317.878 106.729 317.598 107.946C316.967 110.69 316.379 113.443 315.715 116.179C315.621 116.57 315.205 116.881 314.939 117.23C315.055 117.291 315.172 117.355 315.288 117.416V117.413Z" fill="#F15583"/>
<path d="M177.548 193.239C179.47 192.651 181.379 192.025 183.315 191.487C185.284 190.941 187.292 190.542 189.247 189.954C189.737 189.807 190.347 189.244 190.458 188.77C191.723 183.35 192.9 177.908 194.111 172.474C194.294 171.656 194.607 171.035 195.626 171.582C195.856 171.704 196.152 171.717 196.421 171.748C198.825 172.025 201.226 172.316 203.636 172.555C204.627 172.652 204.954 173.17 204.696 174.049C203.705 177.434 202.622 180.797 201.683 184.196C201.243 185.795 201.096 187.475 200.722 189.097C200.595 189.654 200.185 190.151 199.922 190.639C199.985 190.927 200.196 191.34 200.143 191.72C200.005 192.759 199.747 193.782 199.553 194.816C198.492 200.414 197.415 206.008 196.39 211.611C196.188 212.715 196.044 213.599 194.535 213.269C194.014 213.155 193.393 213.563 192.809 213.679C190.524 214.139 188.228 214.541 185.954 215.046C185.17 215.221 184.42 215.589 183.686 215.939C182.622 216.446 181.597 217.042 180.528 217.538C180.276 217.655 179.769 217.663 179.625 217.502C178.216 215.922 177.316 214.101 177.462 211.93C177.484 211.6 178.002 211.176 178.385 211.023C180.861 210.036 183.37 209.135 185.843 208.14C186.25 207.977 186.746 207.541 186.829 207.15C187.331 204.775 187.727 202.377 188.206 199.718C186.624 200.198 185.195 200.597 183.791 201.062C181.129 201.941 178.47 202.834 175.831 203.785C175.493 203.907 175.13 204.364 175.05 204.725C174.405 207.691 173.798 210.669 173.244 213.652C173.111 214.361 172.934 214.733 172.128 214.661C169.943 214.461 167.755 214.239 165.564 214.181C164.47 214.153 164.326 213.69 164.467 212.817C166.073 202.901 167.666 192.984 169.317 183.076C169.375 182.721 169.987 182.186 170.328 182.197C172.707 182.266 175.08 182.491 177.46 182.599C179.119 182.674 179.387 182.99 179.016 184.603C178.382 187.37 177.778 190.145 177.16 192.917C177.288 193.023 177.418 193.131 177.545 193.236L177.548 193.239Z" fill="#F15583"/>
<path d="M294.708 124.275C297.206 124.291 295.237 125.852 295.453 126.725C297.173 127.208 295.957 128.014 295.741 128.547C296.098 128.949 296.392 129.281 296.685 129.611C296.295 129.83 295.926 130.144 295.505 130.243C294.771 130.418 294.007 130.451 293.259 130.565C292.215 130.726 291.16 130.848 290.138 131.1C289.534 131.25 289.011 131.707 288.407 131.874C286.415 132.428 284.407 132.933 282.397 133.415C281.483 133.634 281.089 134.042 281.015 135.081C280.907 136.578 280.397 138.042 280.178 139.536C279.572 143.681 279.048 147.839 278.442 151.984C278.322 152.791 277.96 153.559 277.735 154.352C277.478 155.258 278.034 155.879 278.932 155.602C281.123 154.923 283.297 154.191 285.465 153.445C288.407 152.43 291.334 151.374 294.276 150.357C295.018 150.099 295.456 150.301 295.32 151.205C295.192 152.064 295.198 152.954 294.968 153.783C294.816 154.332 294.353 154.792 293.985 155.361C294.187 155.341 294.478 155.311 294.805 155.28C294.863 155.38 295.021 155.546 294.987 155.599C294.251 156.805 295.129 158.064 294.857 159.281C294.819 159.453 294.791 159.68 294.871 159.819C295.73 161.299 295.173 161.759 293.619 162.05C292.063 162.344 290.603 163.137 289.071 163.608C288.332 163.836 287.518 163.816 286.742 163.93C286.476 163.969 286.125 163.994 285.978 164.166C284.045 166.436 281.051 166.489 278.608 167.684C276.184 168.87 273.608 169.743 271.141 170.844C269.498 171.579 269.119 171.393 269.05 169.591C269.016 168.751 268.908 167.916 268.825 166.991C268.834 166.999 268.767 166.882 268.698 166.882C266.934 166.866 266.67 166.605 267.521 165.017C268.28 163.6 267.388 162.427 267.38 161.141C267.38 160.833 267.163 160.487 267.249 160.223C268.778 155.574 268.404 150.684 269.083 145.926C269.473 143.196 269.634 140.434 269.933 137.321C268.897 137.682 268.033 137.964 267.183 138.28C265.801 138.796 265.64 138.594 265.585 137.08C265.532 135.63 265.183 134.191 265.053 132.741C265.009 132.253 265.23 131.743 265.349 131.158C265.294 131.097 264.937 130.884 264.854 130.593C264.682 129.991 264.557 129.34 264.61 128.724C264.64 128.383 265.014 127.873 265.324 127.787C267.133 127.302 268.983 126.969 270.797 126.498C273.667 125.752 276.522 124.946 279.378 124.15C282.693 123.227 286.003 122.281 289.318 121.358C291.298 120.806 293.287 120.288 295.273 119.75C296.023 119.548 296.311 119.883 296.27 120.601C296.223 121.38 296.317 122.212 296.065 122.919C295.879 123.432 295.231 123.778 294.713 124.272L294.708 124.275ZM275.655 131.377C275.694 131.533 275.73 131.688 275.766 131.843C277.035 131.535 278.306 131.228 279.574 130.92C279.547 130.806 279.516 130.693 279.488 130.579C278.212 130.845 276.932 131.111 275.655 131.377Z" fill="#F15583"/>
<path d="M193.587 131.596C193.587 132.472 193.689 133.365 193.551 134.219C193.459 134.787 193.027 135.303 192.714 135.905C194.285 136.678 192.152 137.693 192.659 138.777C195.426 139.428 198.026 138.253 200.674 137.648C202.904 137.138 205.075 136.373 207.285 135.766C207.967 135.577 208.487 135.636 208.579 136.631C208.839 139.545 209.252 142.447 209.507 145.361C209.537 145.713 209.033 146.37 208.67 146.462C206.069 147.113 203.419 147.565 200.829 148.258C198.179 148.968 195.57 149.852 192.963 150.723C191.922 151.069 190.983 151.56 191.31 153.018C191.565 154.157 191.792 155.369 190.906 155.887C191.077 156.741 191.321 157.312 191.277 157.859C191.086 160.248 190.8 162.632 190.568 165.019C190.31 167.634 190.119 170.256 189.781 172.862C189.72 173.328 189.139 173.991 188.69 174.093C186.031 174.709 183.328 175.125 180.669 175.734C178.993 176.12 178.672 175.807 178.902 174.038C179.301 170.985 179.561 167.917 179.891 164.853C180.508 159.106 181.12 153.359 181.763 147.615C182.405 141.857 183.062 136.096 183.757 130.343C184.159 127.005 184.621 123.676 185.147 120.355C185.2 120.019 185.873 119.534 186.253 119.537C188.435 119.562 190.618 119.709 192.797 119.828C193.57 119.869 194.37 119.839 195.099 120.052C195.44 120.152 195.913 120.798 195.855 121.109C195.343 123.787 194.714 126.443 194.141 129.11C194.044 129.567 194.038 130.041 193.988 130.51C193.952 130.845 193.908 131.18 193.866 131.519C193.775 131.546 193.686 131.574 193.595 131.599L193.587 131.596Z" fill="#F15583"/>
<path d="M256.57 136.734C256.855 136.922 257.143 137.116 257.525 137.371C257.104 137.865 256.736 138.297 256.359 138.735C257.445 139.484 257.184 140.981 255.808 142.084C257.043 143.681 256.927 144.43 255.448 146.115C255.667 147.194 256.032 147.981 255.916 148.691C255.783 149.497 255.223 150.232 254.789 151.119C256.489 152.234 255.232 154.124 255.157 155.721C255.01 158.865 254.481 161.992 254.121 165.128C253.639 169.311 253.149 173.497 252.698 177.683C252.554 179.028 252.498 180.386 252.434 181.739C252.387 182.787 251.98 183.286 250.856 183.012C250.474 182.92 250.033 182.97 249.634 183.04C247.308 183.442 244.987 183.88 242.658 184.276C241.835 184.417 241.334 183.638 241.467 182.712C241.918 179.558 242.342 176.397 242.735 173.234C243.117 170.146 243.461 167.049 243.801 163.955C244.089 161.316 244.305 158.668 244.63 156.034C245.48 149.14 246.325 142.245 247.261 135.361C248.1 129.201 249.033 123.052 250.011 116.914C250.091 116.412 250.825 115.625 251.246 115.631C253.293 115.664 255.34 115.911 257.384 116.113C258.021 116.177 258.644 116.393 259.281 116.44C260.721 116.551 261.051 116.961 260.721 118.375C260.037 121.311 259.248 124.23 258.694 127.191C258.259 129.526 258.193 131.929 257.794 134.274C257.65 135.12 257.01 135.882 256.57 136.731V136.734Z" fill="#F15583"/>
<path d="M174.117 162.12C173.798 164.945 173.283 167.764 171.571 170.234C170.131 172.311 168.904 174.562 167.284 176.483C164.34 179.976 160.712 182.602 156.286 183.974C153.319 184.891 150.555 184.581 148.146 182.482C146.135 180.73 143.95 179.119 142.207 177.126C139.393 173.902 139.565 170.093 141.033 166.325C142.592 162.316 145.049 159.015 148.999 157.01C149.384 156.816 149.788 156.47 149.971 156.093C152.339 151.166 156.684 149.101 161.695 148.56C164.836 148.222 167.337 150.127 169.201 152.694C170.009 153.808 170.718 155.061 171.743 155.935C173.69 157.595 173.834 159.805 174.119 162.122L174.117 162.12ZM152.405 164.382C149.492 167.919 147.761 171.679 147.406 176.037C147.262 177.8 147.722 178.41 149.331 178.002C151.322 177.498 153.372 176.902 155.133 175.89C159.263 173.511 162.54 170.14 165.057 166.09C166.597 163.608 167.777 160.972 167.971 157.972C168.054 156.666 167.428 156.434 166.398 156.636C165.769 156.761 165.168 157.019 164.556 157.218C160.545 158.521 157.047 162.829 156.64 166.885C156.604 167.235 156.241 167.731 155.934 167.82C155.629 167.905 155.095 167.659 154.848 167.387C154.051 166.505 153.336 165.546 152.405 164.385V164.382ZM147.185 161.019C147.902 160.781 148.592 160.7 149.065 160.337C149.32 160.137 149.204 159.455 149.253 158.99C149.129 158.962 149.007 158.934 148.882 158.909C148.417 159.486 147.952 160.065 147.185 161.019Z" fill="#F15583"/>
<path d="M90.1729 201.162C83.5977 203.131 77.3604 204.98 71.1398 206.882C70.1372 207.186 69.6663 207.081 69.6414 205.925C69.586 203.441 69.4724 200.957 69.3672 198.473C69.3589 198.26 69.2758 198.043 69.1899 197.844C68.7966 196.907 69.2232 196.508 70.1067 196.269C73.6851 195.307 77.2497 194.295 80.8253 193.319C84.0603 192.435 87.3063 191.589 90.5385 190.697C92.1781 190.245 93.9119 189.937 95.3771 189.144C95.9726 188.823 96.0418 187.398 96.172 186.45C96.1969 186.269 95.3799 185.79 94.9367 185.768C92.9259 185.662 91.5522 184.398 90.1369 183.242C88.4613 181.872 86.8188 180.456 85.2235 178.995C82.8195 176.791 81.5537 173.669 83.4066 169.416C85.2291 165.239 88.0098 162.017 92.5576 160.65C92.865 160.559 93.1115 160.221 93.3552 159.968C94.4964 158.798 95.4436 157.312 96.7952 156.503C99.9831 154.59 103.456 153.614 107.226 154.762C108.771 155.23 110.062 156.004 111.031 157.346C112.402 159.242 113.97 161.008 115.233 162.971C116.368 164.734 116.825 166.785 116.415 168.895C115.698 172.585 113.662 175.568 111.139 178.241C110.164 179.272 109.009 180.134 107.998 181.138C107.702 181.432 107.544 181.925 107.453 182.355C107.209 183.505 107.035 184.672 106.794 186.059C110.738 185.002 114.457 183.999 118.18 183.012C122.093 181.972 126.007 180.935 129.926 179.918C130.773 179.699 131.643 179.569 132.502 179.4C132.496 180.245 132.471 181.091 132.491 181.936C132.507 182.773 132.637 183.616 132.574 184.445C132.549 184.767 132.125 185.055 132.017 185.191C132.336 185.56 132.798 185.862 132.901 186.255C133.128 187.132 133.305 188.063 133.233 188.95C133.202 189.341 132.568 189.854 132.111 190.001C131.12 190.32 130.048 190.383 129.034 190.644C124.436 191.822 119.842 193.017 115.255 194.243C113.358 194.75 111.494 195.382 109.594 195.887C107.281 196.505 104.955 197.073 102.623 197.608C101.961 197.761 101.65 197.899 101.617 198.728C101.567 199.954 101.171 201.159 100.95 202.379C100.343 205.712 99.7504 209.049 99.1051 212.654C100.019 212.404 100.698 212.24 101.365 212.033C105.921 210.624 110.469 209.199 115.028 207.796C120.387 206.15 125.752 204.525 131.111 202.876C131.812 202.659 132.471 202.313 133.166 202.069C134.332 201.661 134.645 201.911 134.673 203.122C134.704 204.392 134.709 205.67 134.867 206.929C135.039 208.295 135.213 209.698 135.684 210.976C136.08 212.055 135.629 212.307 134.823 212.526C131.543 213.408 128.236 214.206 124.985 215.182C120.589 216.501 116.241 217.968 111.865 219.346C109.043 220.236 106.176 220.995 103.381 221.963C99.7449 223.219 96.1665 224.641 92.5493 225.955C91.1091 226.479 90.9678 226.18 90.5302 224.771C90.1147 223.441 89.1731 222.282 88.5942 220.99C88.1012 219.886 87.6054 218.719 87.4808 217.541C87.406 216.848 88.2314 216.102 88.3422 215.337C88.8185 212.096 89.1758 208.839 89.583 205.59C89.7547 204.228 89.9486 202.873 90.1812 201.171L90.1729 201.162ZM95.9033 168.538C93.3414 170.329 91.2863 173.594 90.5524 176.949C90.0344 179.322 90.4942 179.849 92.8789 179.444C98.5041 178.487 102.866 175.427 106.464 171.141C108.142 169.139 109.417 166.913 110.004 164.335C110.331 162.896 110.001 162.499 108.558 162.888C107.278 163.231 105.979 163.653 104.822 164.282C102.282 165.665 100.274 167.548 99.6867 170.584C99.6258 170.897 99.2159 171.29 98.9029 171.363C98.5927 171.432 98.0941 171.238 97.867 170.988C97.1635 170.212 96.5487 169.355 95.9033 168.538Z" fill="#F15583"/>
<path d="M107.506 141.818C108.692 141.538 109.869 141.233 111.06 140.986C112.129 140.765 113.231 140.681 114.281 140.393C114.84 140.241 115.281 139.653 115.84 139.492C117.768 138.938 119.723 138.486 121.997 137.909C121.792 138.638 121.67 139.065 121.515 139.611C122.46 139.778 123.399 139.941 124.335 140.105C124.351 139.961 124.368 139.816 124.382 139.672H123.26C123.243 139.603 123.227 139.531 123.21 139.462C123.806 139.256 124.396 139.032 124.999 138.854C126.121 138.524 126.218 138.15 125.238 137.075C125.697 136.983 126.046 136.914 126.398 136.844C126.459 137.166 126.603 137.499 126.564 137.806C126.229 140.462 126.39 143.093 126.897 145.713C127.063 146.575 126.528 146.822 125.819 146.983C120.853 148.119 115.923 149.442 110.916 150.34C108.924 150.698 107.069 151.324 105.152 151.84C104.778 151.94 104.313 151.701 104.152 151.671C102.665 152.245 101.346 152.863 99.9644 153.259C98.1226 153.792 96.2365 154.183 94.3559 154.573C93.115 154.831 91.8465 154.964 90.5974 155.189C90.1654 155.267 89.7416 155.425 89.3345 155.594C88.8359 155.799 88.3485 156.27 87.8721 156.251C86.0219 156.173 84.4432 157.16 82.6956 157.415C81.6265 157.573 80.538 157.534 79.5631 158.161C79.4357 158.241 78.6491 157.739 78.6436 157.493C78.6048 155.979 78.7599 154.457 78.7294 152.943C78.7073 151.912 78.6989 150.792 78.2973 149.883C77.8653 148.901 78.35 148.641 78.9898 148.508C82.2967 147.823 85.6203 147.232 88.9245 146.542C89.6973 146.381 90.3952 145.902 91.1569 145.663C92.9959 145.084 94.8516 144.571 96.8375 144.521C96.8292 143.19 98.3996 144.224 99.3191 143.293C97.7487 143.47 96.5577 143.631 95.3585 143.725C94.8821 143.761 94.3392 143.753 93.9321 143.551C93.7244 143.448 93.6468 142.852 93.6939 142.508C94.3697 137.77 95.0843 133.035 95.7767 128.297C95.9069 127.413 96.3002 127.094 97.1948 127.416C97.6988 127.596 98.2555 127.69 98.7901 127.701C100.986 127.751 103.183 127.785 105.379 127.768C106.545 127.76 106.916 128.103 106.628 129.351C105.77 133.074 105.033 136.828 104.28 140.576C104.183 141.058 104.266 141.574 104.266 142.12C105.385 142.029 106.459 141.94 107.537 141.854C106.409 142.342 105.282 142.83 104.155 143.318C104.194 143.393 104.232 143.47 104.274 143.545C105.534 143.287 106.794 143.027 108.055 142.769C108.035 142.691 108.016 142.614 107.996 142.533C107.778 142.575 107.559 142.614 107.334 142.655C107.398 142.328 107.451 142.067 107.503 141.807L107.506 141.818ZM100.394 143.756C100.402 144.008 100.41 144.26 100.419 144.51C101.46 144.355 102.501 144.199 103.543 144.044C103.54 143.9 103.537 143.759 103.532 143.614C102.485 143.662 101.441 143.709 100.394 143.756Z" fill="#F15583"/>
<path d="M222.307 163.442C224.323 162.793 225.957 162.208 227.624 161.743C230.328 160.986 233.059 160.32 235.765 159.575C236.346 159.414 236.872 159.053 237.44 158.826C237.659 158.737 237.994 158.651 238.141 158.757C238.329 158.893 238.487 159.231 238.462 159.461C238.443 159.638 238.146 159.824 237.933 159.932C237.626 160.09 237.285 160.182 237.058 160.575C237.426 160.456 237.795 160.334 238.307 160.168C238.34 160.645 238.368 161.041 238.396 161.438C238.542 163.611 238.747 165.782 238.789 167.955C238.797 168.41 238.282 169.17 237.867 169.289C236.08 169.802 234.236 170.098 232.424 170.531C231.505 170.753 230.256 170.819 229.779 171.44C228.561 173.026 226.813 172.898 225.248 173.481C221.825 174.759 218.498 176.306 215.155 177.792C214.089 178.266 213.604 178.036 213.505 176.863C213.441 176.134 213.325 175.396 213.111 174.698C213.012 174.373 212.574 174.165 212.391 173.847C212.125 173.386 211.763 172.865 211.782 172.383C211.824 171.338 212.281 170.287 212.214 169.261C211.965 165.513 212.796 161.859 213.009 158.152C213.222 154.424 213.701 150.712 214.064 146.994C214.167 145.943 214.205 144.879 214.419 143.85C214.496 143.481 214.992 142.93 215.305 142.924C216.848 142.896 218.393 143.043 219.941 143.088C221.359 143.129 222.778 143.11 224.196 143.132C225.024 143.146 225.179 143.692 225.071 144.368C224.442 148.363 223.775 152.353 223.176 156.35C222.847 158.563 222.628 160.792 222.307 163.442Z" fill="#F15583"/>
<path d="M136.574 147.304C136.383 146.725 136.208 146.323 136.125 145.901C135.998 145.264 135.834 144.607 135.879 143.972C135.903 143.637 136.33 143.065 136.596 143.057C139.634 142.941 142.221 141.294 145.088 140.604C147.827 139.944 150.524 139.115 153.23 138.319C155.374 137.69 157.496 136.983 159.637 136.34C161.06 135.913 162.489 135.5 163.935 135.156C164.445 135.034 165.007 135.137 165.569 135.137C165.716 134.976 165.935 134.516 166.262 134.419C167.392 134.083 168.569 133.908 169.71 133.606C170.33 133.443 170.898 133.091 171.519 132.919C171.931 132.805 172.388 132.863 172.826 132.844C172.782 133.196 172.69 133.551 172.704 133.9C172.74 134.967 172.815 136.035 172.881 137.102C172.892 137.285 173.028 137.568 172.956 137.629C171.976 138.45 173.579 139.448 172.779 140.293C172.74 140.335 173.117 140.739 173.261 140.997C173.795 141.965 173.518 142.375 172.493 142.636C169.328 143.437 166.19 144.357 163.024 145.161C161.803 145.472 160.526 145.566 159.282 145.804C158.942 145.871 158.623 146.087 158.318 146.276C158.18 146.362 158.069 146.678 157.997 146.661C156.809 146.378 156.05 147.338 155.075 147.64C153.79 148.039 152.46 148.302 151.173 148.696C147.852 149.716 144.545 150.781 141.23 151.82C140.063 152.186 138.903 152.605 137.712 152.843C137.363 152.913 136.612 152.502 136.552 152.209C136.316 151.058 136.216 149.866 136.203 148.688C136.197 148.139 136.499 147.587 136.582 147.307L136.574 147.304ZM154.128 138.73C155.911 139.314 157.64 139.667 159.083 138.081C158.64 138.095 158.241 138.291 157.817 138.366C157.097 138.497 156.316 138.757 155.648 138.594C154.114 138.219 153.117 138.436 151.998 139.755C152.316 140.052 152.635 140.349 152.948 140.642C154.019 139.687 154.412 139.048 154.128 138.727V138.73ZM143.34 145.599C143.301 145.458 143.262 145.319 143.224 145.178C142.06 145.549 140.897 145.921 139.734 146.292C139.778 146.434 139.82 146.572 139.864 146.714C141.025 146.342 142.182 145.971 143.343 145.597L143.34 145.599Z" fill="#F15583"/>
<path d="M155.858 136.315C156.01 136.304 155.772 136.279 155.559 136.343C153.268 137 150.981 137.665 148.696 138.342C147.663 138.646 147.222 138.244 147.231 137.13C147.269 132.459 147.269 127.787 147.292 123.119C147.294 122.376 147.505 121.929 148.441 122.029C149.333 122.126 150.258 122.015 151.161 121.924C153.244 121.716 155.324 121.472 157.404 121.228C158.384 121.112 158.603 121.649 158.52 122.467C158.204 125.614 157.855 128.76 157.578 131.91C157.495 132.861 157.52 133.839 157.645 134.782C157.8 135.943 157.409 136.448 155.858 136.318V136.315Z" fill="#F15583"/>
<path d="M63.4784 28.8823C62.1155 30.1273 61.0392 31.1151 59.6316 32.4048C62.2979 33.0012 64.8563 32.9676 66.357 35.3309C66.182 34.8277 66.1485 34.1716 65.8021 33.8548C64.8712 32.9975 65.1132 32.1178 65.1542 31.0182C65.1914 30.0826 64.1897 29.106 63.8433 28.4946C64.8749 26.985 65.6197 25.5238 66.6996 24.3758C71.6413 19.1088 77.7522 15.9143 84.8277 14.5874C86.2688 14.3152 87.7621 14.3152 89.2256 14.1438C89.6837 14.0916 90.1604 13.9611 90.57 13.7561C92.3686 12.8578 94.3014 13.2268 95.7425 14.6917C95.9473 14.9005 96.5134 14.7327 96.9044 14.7886C97.5859 14.8856 98.5466 14.7775 98.8855 15.18C100.584 17.1891 102.196 19.284 103.693 21.4497C105.339 23.839 106.851 26.3215 108.374 28.7966C111.7 34.2014 111.882 39.8859 109.309 45.5442C106.43 51.8735 102.133 57.1442 96.7852 61.6358C91.1956 66.3325 85.1889 70.2948 78.3257 72.7661C69.541 75.9271 63.5305 74.3541 57.252 66.8581C55.1107 64.301 52.6902 61.9862 50.4596 59.5037C47.0633 55.724 46.2552 51.4747 47.9273 46.6028C49.4466 42.1708 51.7071 38.2234 54.7458 34.7121C55.4049 33.948 56.4104 33.497 57.2036 32.8372C57.9595 32.2072 58.6112 31.4543 59.3709 30.8318C60.2237 30.1347 61.1174 29.475 62.0596 28.9084C62.3724 28.722 62.8937 28.8786 63.4821 28.8786L63.4784 28.8823ZM69.4479 38.2122C67.9322 40.158 66.6773 41.6415 65.5601 43.222C62.3389 47.7882 60.5588 52.9619 59.2853 58.3519C58.816 60.3349 59.2555 61.0953 61.7207 61.0506C63.2401 61.0245 64.7706 60.6406 66.2639 60.279C71.969 58.8961 77.2346 56.4993 82.1465 53.2937C88.5888 49.0891 94.4391 44.2471 98.1705 37.3624C99.4813 34.9432 100.312 32.2445 101.232 29.6315C101.593 28.599 101.183 27.7603 99.8575 27.8871C98.5168 28.0138 97.1353 28.0213 95.8468 28.3679C86.7604 30.8243 79.8525 35.5657 78.0241 45.5964C77.9198 46.1704 77.1638 47.0427 76.717 47.0389C76.0876 47.0389 75.2758 46.4798 74.8625 45.9244C73.0973 43.55 71.4476 41.0861 69.4441 38.2085L69.4479 38.2122ZM64.8525 35.9273C63.8508 35.2675 62.8788 34.5481 61.8287 33.9629C60.7376 33.3553 59.6614 32.2035 58.2835 33.3031C57.7659 33.7169 57.4233 34.3505 56.8498 35.0774C58.5368 34.9656 60.0338 34.8649 61.6946 34.7531C61.4861 35.275 61.3334 35.6477 61.1882 36.0242C63.1147 36.6976 64.3362 36.6653 64.8525 35.9273Z" fill="#F15583"/>
<path d="M76.8186 92.6C75.5562 92.9429 74.6289 93.2299 73.6868 93.4424C72.3946 93.7369 71.0763 93.9232 69.7953 94.2625C69.1101 94.4451 68.4919 94.8812 67.8216 95.1421C67.2034 95.3807 66.2985 95.8988 65.9671 95.6603C64.6451 94.7135 63.9934 95.3844 63.3231 96.402C63.23 96.5437 63.0214 96.6853 62.865 96.689C60.1131 96.7599 57.7819 98.4932 54.9629 98.5379C53.1865 98.5677 51.4251 99.4399 49.7233 100.2C49.3248 100.446 48.5726 98.7019 48.4125 100.711C48.3976 100.879 47.9582 101.069 47.69 101.151C43.5565 102.359 39.4155 103.551 35.2782 104.744C35.0994 104.796 34.9021 104.785 34.7308 104.845C31.9676 105.81 31.8969 105.814 31.7107 102.921C31.4649 99.1119 31.3196 95.295 31.2228 91.478C31.2116 91.1164 31.7702 90.5238 32.1761 90.397C34.5259 89.6702 36.9055 89.0365 39.2851 88.3954C43.0686 87.374 46.867 86.4086 50.6394 85.3388C52.4641 84.8207 54.2144 84.0417 56.0354 83.5049C61.0552 82.0288 66.1011 80.6347 71.1247 79.1773C75.1987 77.9919 79.2503 76.732 83.328 75.5504C92.109 73.0083 100.898 70.481 109.69 67.9799C115.614 66.295 121.558 64.6624 127.49 63.0037C128.734 62.657 128.86 63.4547 128.801 64.3418C128.712 65.6315 128.551 66.9138 128.414 68.2743C127.743 68.4197 127.107 68.5613 126.466 68.6993C129.505 68.3936 128.693 70.8128 128.976 72.3038C129.285 73.9289 129.46 75.6026 129.438 77.2539C129.43 77.7049 128.462 78.566 128.011 78.5175C125.2 78.2081 122.936 80.1203 120.243 80.2732C119.108 80.3402 117.998 80.8472 116.884 81.1789C114.036 82.0288 111.231 83.2999 108.327 83.6242C106.089 83.8739 104.271 85.965 101.758 84.9102C101.259 84.7014 100.365 85.5774 99.609 85.8197C97.4566 86.5018 95.2781 87.1168 93.6023 87.6089C93.4534 89.3608 93.4273 90.822 93.1815 92.2496C92.8278 94.3072 92.5149 96.4132 91.8148 98.3664C91.1073 100.338 90.7647 102.262 90.72 104.353C90.6902 105.661 89.7965 106.932 89.4427 108.259C89.1001 109.549 89.0629 110.928 88.6756 112.203C88.3628 113.224 87.726 114.149 87.1972 115.189C87.7446 115.617 88.5452 119.49 87.8377 120.284C87.51 120.653 86.8024 120.791 86.2513 120.828C84.6053 120.936 82.9519 121.004 81.3022 120.974C79.6153 120.94 77.932 120.754 76.2451 120.668C75.7982 120.646 75.3439 120.743 74.8933 120.769C74.2007 120.806 73.3777 121.059 72.8601 120.769C72.5361 120.59 72.5175 119.557 72.6217 118.953C73.6235 113.112 74.7257 107.286 75.7014 101.438C76.1669 98.6572 76.4201 95.8392 76.8223 92.6074L76.8186 92.6ZM78.9896 102.344C78.6582 104.498 78.3305 106.641 77.9991 108.781C78.1518 108.815 78.3082 108.848 78.4608 108.882C78.8668 107.48 79.2727 106.079 79.6972 104.621C79.5296 104.081 79.2838 103.287 78.9896 102.34V102.344Z" fill="#F15583"/>
<path d="M201.877 28.0547H199.762C200.246 24.8304 200.659 21.7999 201.166 18.7844C202.123 13.0515 203.158 7.33352 204.097 1.60063C204.327 0.180449 204.633 -0.483046 206.219 0.396643C206.968 0.810396 208.037 0.605383 208.934 0.799213C211.943 1.45898 214.959 2.10384 217.924 2.93134C218.378 3.05808 218.933 4.16514 218.84 4.71681C218.225 8.31012 217.376 11.8662 216.736 15.4557C216.069 19.2019 215.563 22.9778 214.959 26.7389C213.488 35.9346 211.921 45.1154 210.55 54.3298C208.718 66.6417 207.031 78.9723 205.307 91.2991C205.098 92.7939 204.599 93.6661 202.894 93.0734C202.574 92.9616 202.149 93.0548 201.799 93.148C198.466 94.0128 195.133 94.8701 191.819 95.7945C190.564 96.1449 189.715 95.5671 189.927 94.1581C190.936 87.4188 192.027 80.6944 193.059 73.9588C193.394 71.7745 193.603 69.5716 193.915 67.3798C195.096 59.1346 196.288 50.8931 197.487 42.6516C198.064 38.6781 198.73 34.712 199.237 30.7273C199.449 29.0648 199.997 28.0696 202.011 28.5579C201.967 28.3902 201.926 28.2187 201.881 28.051L201.877 28.0547Z" fill="#F15583"/>
<path d="M151.78 67.0481C156.412 65.4043 160.59 63.9021 164.784 62.4409C171.971 59.9361 179.173 57.4722 186.356 54.9561C188.978 54.0354 191.57 53.0215 194.169 52.0375C195.659 51.4746 196.195 51.9145 196.336 53.4092C196.649 56.6558 196.977 59.91 197.591 63.1081C197.852 64.4724 197.472 64.8713 196.355 65.2403C188.9 67.7191 181.396 70.0637 174.026 72.7736C164.694 76.2066 155.478 79.949 146.209 83.5423C145.259 83.9113 144.507 83.9784 144.052 82.6626C143.784 81.8873 142.939 81.2685 142.261 80.6833C141.2 79.7626 140.06 78.9277 138.954 78.0591C139.092 77.925 139.226 77.787 139.364 77.6528C138.88 77.8467 138.407 78.1523 137.908 78.2008C137.554 78.2343 137.163 77.9212 136.791 77.7647C138.02 76.1879 135.938 74.6969 136.806 72.8817C137.595 71.2378 137.42 69.1281 137.647 67.2196C137.949 64.7072 138.236 62.1912 138.508 59.6751C138.537 59.3881 138.452 59.0899 138.459 59.1533C137.241 58.9967 136.199 58.8625 135.156 58.7283C135.312 58.2624 135.469 57.7965 135.614 57.3641C135.208 57.1702 134.609 56.887 133.689 56.4471C135.599 55.519 137.081 54.5312 138.429 56.8236C138.675 55.4929 138.921 54.1621 139.267 52.2909C137.979 53.2042 137.119 53.8155 136.255 54.4231C135.551 53.2452 135.223 53.3943 133.614 55.6531C132.903 53.4726 133.074 53.2862 135.212 52.9209C136.724 52.6637 138.191 52.1605 139.625 51.6088C137.208 50.882 135.074 53.4353 132.199 51.8511C132.944 51.2957 133.38 50.7776 133.927 50.5987C139.137 48.8728 144.358 47.1768 149.594 45.5218C153.187 44.3886 156.799 43.3077 160.415 42.2602C161.41 41.9732 161.968 41.5408 162.158 40.4263C162.568 38.0146 163.164 35.6365 163.752 32.9229C160.006 33.8734 156.658 34.6934 153.325 35.5694C147.404 37.1238 141.49 38.7117 135.573 40.2809C134.594 40.5419 134.031 40.2474 133.957 39.1403C133.771 36.3633 133.544 33.5901 133.324 30.8168C133.279 30.2689 133.29 29.6911 133.108 29.1879C132.713 28.1032 133.231 27.7118 134.165 27.5031C137.897 26.6681 141.636 25.8667 145.352 24.9647C152.256 23.2947 159.239 21.8522 165.994 19.7014C168.373 18.9447 170.347 18.4266 172.82 18.8814C174.317 19.1572 176.019 18.3372 177.829 17.9681C177.75 18.7136 177.68 19.3548 177.59 20.1748C178.126 20.145 178.666 20.1674 179.188 20.0816C180.729 19.8319 181.303 20.4879 180.931 22.0311C179.016 29.9595 177.039 37.873 175.281 45.8349C174.887 47.6167 174.317 48.1609 172.488 48.4255C169.39 48.8766 166.381 49.9426 163.32 50.6956C160.806 51.3106 158.248 51.7505 155.768 52.4661C155.053 52.6712 154.118 53.4726 153.984 54.1398C153.154 58.3071 152.524 62.5117 151.768 67.0556L151.78 67.0481ZM160.725 48.9735C160.65 48.6827 160.576 48.392 160.501 48.0975C158.148 48.761 155.794 49.4282 153.441 50.0917C153.496 50.3042 153.549 50.5167 153.604 50.7291C155.977 50.1439 158.349 49.5587 160.725 48.9697V48.9735Z" fill="#F15583"/>
</g>
<defs>
<clipPath id="clip0_663_319">
<rect width="329" height="245" fill="white"/>
</clipPath>
</defs>
</svg>
