<svg width="200" height="50" viewBox="0 0 200 50" fill="none" xmlns="http://www.w3.org/2000/svg">
<path d="M0.630313 7.09998V0.119975H5.62031V0.869975H1.49031V3.10998H4.40031V3.85998H1.49031V7.09998H0.630313ZM9.38422 7.21998C8.79755 7.21998 8.28755 7.07331 7.85422 6.77998C7.42089 6.47998 7.08422 6.05998 6.84422 5.51998C6.61089 4.97331 6.49422 4.33664 6.49422 3.60998C6.49422 2.87664 6.61089 2.23998 6.84422 1.69998C7.08422 1.15998 7.42089 0.743309 7.85422 0.449975C8.28755 0.149975 8.79755 -2.47955e-05 9.38422 -2.47955e-05C9.97089 -2.47955e-05 10.4809 0.149975 10.9142 0.449975C11.3476 0.743309 11.6809 1.15998 11.9142 1.69998C12.1542 2.23998 12.2742 2.87664 12.2742 3.60998C12.2742 4.33664 12.1542 4.97331 11.9142 5.51998C11.6809 6.05998 11.3476 6.47998 10.9142 6.77998C10.4809 7.07331 9.97089 7.21998 9.38422 7.21998ZM9.38422 6.46998C9.78422 6.46998 10.1309 6.35331 10.4242 6.11998C10.7242 5.88664 10.9542 5.55664 11.1142 5.12998C11.2809 4.69664 11.3642 4.18998 11.3642 3.60998C11.3642 3.02998 11.2809 2.52664 11.1142 2.09998C10.9542 1.67331 10.7242 1.34331 10.4242 1.10998C10.1309 0.869975 9.78422 0.749975 9.38422 0.749975C8.98422 0.749975 8.63422 0.869975 8.33422 1.10998C8.04089 1.34331 7.81089 1.67331 7.64422 2.09998C7.47755 2.52664 7.39422 3.02998 7.39422 3.60998C7.39422 4.18998 7.47755 4.69664 7.64422 5.12998C7.81089 5.55664 8.04089 5.88664 8.33422 6.11998C8.63422 6.35331 8.98422 6.46998 9.38422 6.46998ZM13.9681 4.07998V3.32998H15.7981C16.1248 3.32998 16.4115 3.27998 16.6581 3.17998C16.9115 3.07331 17.1081 2.92331 17.2481 2.72998C17.3948 2.52998 17.4681 2.29998 17.4681 2.03998C17.4681 1.79998 17.4048 1.59331 17.2781 1.41998C17.1515 1.24664 16.9815 1.11331 16.7681 1.01998C16.5548 0.919975 16.3181 0.869975 16.0581 0.869975H13.9681V0.119975H16.0581C16.5048 0.119975 16.9015 0.196642 17.2481 0.349975C17.6015 0.503309 17.8781 0.723309 18.0781 1.00998C18.2781 1.29664 18.3781 1.63998 18.3781 2.03998C18.3781 2.30664 18.3181 2.56331 18.1981 2.80998C18.0848 3.04998 17.9148 3.26664 17.6881 3.45998C17.4615 3.64664 17.1881 3.79664 16.8681 3.90998C16.5481 4.02331 16.1815 4.07998 15.7681 4.07998H13.9681ZM13.3481 7.09998V0.119975H14.2081V7.09998H13.3481ZM17.4281 7.09998C17.3748 6.77998 17.2781 6.46664 17.1381 6.15998C17.0048 5.85331 16.8248 5.55998 16.5981 5.27998C16.3781 4.99998 16.1015 4.73664 15.7681 4.48998C15.4348 4.24331 15.0481 4.01664 14.6081 3.80998L15.5681 3.58998C16.0348 3.81664 16.4315 4.06664 16.7581 4.33998C17.0848 4.60664 17.3548 4.88998 17.5681 5.18998C17.7881 5.48331 17.9548 5.78998 18.0681 6.10998C18.1815 6.42998 18.2581 6.75998 18.2981 7.09998H17.4281ZM26.4259 5.20998V4.45998H30.2159V5.20998H26.4259ZM27.6759 0.119975H28.8859L31.1759 7.09998H30.2859L28.7059 2.25998L28.2859 0.849976L27.8659 2.26998L26.2759 7.09998H25.3959L27.6759 0.119975ZM32.5298 7.09998V0.119975H33.3898V6.34998H37.1398V7.09998H32.5298ZM38.8337 7.09998V0.119975H39.6937V6.34998H43.4437V7.09998H38.8337ZM53.0616 7.09998V0.869975H50.7416V0.119975H56.2516V0.869975H53.9316V7.09998H53.0616ZM61.4655 7.09998V0.119975H62.3255V7.09998H61.4655ZM57.2855 7.09998V0.119975H58.1455V7.09998H57.2855ZM58.0155 3.85998V3.10998H61.5955V3.85998H58.0155ZM63.7194 7.09998V0.119975H68.6794V0.869975H64.5894V3.10998H67.4594V3.85998H64.5894V6.34998H68.7194V7.09998H63.7194ZM76.1972 7.09998V0.119975H78.2872C78.7872 0.119975 79.2372 0.203309 79.6372 0.369975C80.0439 0.529975 80.3905 0.763308 80.6772 1.06998C80.9639 1.36998 81.1839 1.73331 81.3372 2.15998C81.4905 2.58664 81.5672 3.06331 81.5672 3.58998C81.5672 4.12331 81.4905 4.60664 81.3372 5.03998C81.1839 5.46664 80.9639 5.83664 80.6772 6.14998C80.3905 6.45664 80.0439 6.69331 79.6372 6.85998C79.2372 7.01998 78.7872 7.09998 78.2872 7.09998H76.1972ZM77.0672 6.34998H78.2872C78.7672 6.34998 79.1839 6.23664 79.5372 6.00998C79.8972 5.78331 80.1705 5.46331 80.3572 5.04998C80.5505 4.62998 80.6472 4.14331 80.6472 3.58998C80.6472 3.03664 80.5505 2.55664 80.3572 2.14998C80.1705 1.74331 79.8972 1.42998 79.5372 1.20998C79.1839 0.983309 78.7672 0.869975 78.2872 0.869975H77.0672V6.34998ZM83.1611 5.20998V4.45998H86.9511V5.20998H83.1611ZM84.4111 0.119975H85.6211L87.9111 7.09998H87.0211L85.4411 2.25998L85.0211 0.849976L84.6011 2.26998L83.0111 7.09998H82.1311L84.4111 0.119975ZM90.875 7.09998V4.26998L88.525 0.119975H89.485L90.675 2.21998L91.315 3.49998L91.975 2.20998L93.165 0.119975H94.115L91.735 4.26998V7.09998H90.875ZM97.7389 7.21998C97.2122 7.21998 96.7489 7.11998 96.3489 6.91998C95.9556 6.71998 95.6489 6.42664 95.4289 6.03998C95.2089 5.65331 95.0989 5.18331 95.0989 4.62998H95.9589C95.9589 5.21664 96.1189 5.66998 96.4389 5.98998C96.7589 6.30998 97.1922 6.46998 97.7389 6.46998C98.1989 6.46998 98.5722 6.36331 98.8589 6.14998C99.1522 5.92998 99.2989 5.62331 99.2989 5.22998C99.2989 4.96998 99.2222 4.75998 99.0689 4.59998C98.9222 4.43331 98.7256 4.30331 98.4789 4.20998C98.2389 4.10998 97.9756 4.02331 97.6889 3.94998C97.4022 3.86998 97.1122 3.78664 96.8189 3.69998C96.5322 3.60664 96.2656 3.49331 96.0189 3.35998C95.7789 3.21998 95.5856 3.03664 95.4389 2.80998C95.2922 2.58331 95.2189 2.29331 95.2189 1.93998C95.2189 1.55998 95.3156 1.22331 95.5089 0.929975C95.7089 0.636642 95.9856 0.409975 96.3389 0.249975C96.6989 0.0833085 97.1222 -2.47955e-05 97.6089 -2.47955e-05C98.0822 -2.47955e-05 98.5056 0.0866419 98.8789 0.259975C99.2522 0.433309 99.5489 0.679975 99.7689 0.999975C99.9889 1.31331 100.106 1.68998 100.119 2.12998H99.2489C99.2422 1.84998 99.1656 1.60664 99.0189 1.39998C98.8722 1.19331 98.6756 1.03331 98.4289 0.919975C98.1889 0.806642 97.9156 0.749975 97.6089 0.749975C97.1622 0.749975 96.8022 0.856642 96.5289 1.06998C96.2622 1.27664 96.1289 1.55664 96.1289 1.90998C96.1289 2.14998 96.2022 2.34331 96.3489 2.48998C96.4956 2.63664 96.6889 2.75664 96.9289 2.84998C97.1756 2.93664 97.4422 3.01664 97.7289 3.08998C98.0222 3.16331 98.3122 3.24664 98.5989 3.33998C98.8922 3.42664 99.1589 3.54331 99.3989 3.68998C99.6456 3.83664 99.8422 4.03331 99.9889 4.27998C100.136 4.52664 100.209 4.83998 100.209 5.21998C100.209 5.63331 100.099 5.98998 99.8789 6.28998C99.6656 6.58998 99.3722 6.81998 98.9989 6.97998C98.6256 7.13998 98.2056 7.21998 97.7389 7.21998ZM108.037 7.09998L107.167 0.119975H107.997L108.577 4.79998L108.707 6.28998L108.947 4.79998L109.857 0.119975H110.677L111.587 4.79998L111.837 6.30998L111.937 4.79998L112.507 0.119975H113.327L112.447 7.09998H111.277L110.477 2.80998L110.267 1.38998L110.057 2.80998L109.217 7.09998H108.037ZM114.151 7.09998V0.119975H119.111V0.869975H115.021V3.10998H117.891V3.85998H115.021V6.34998H119.151V7.09998H114.151ZM130.808 7.09998V0.119975H131.668V7.09998H130.808ZM126.628 7.09998V0.119975H127.488V7.09998H126.628ZM127.358 3.85998V3.10998H130.938V3.85998H127.358ZM133.592 5.20998V4.45998H137.382V5.20998H133.592ZM134.842 0.119975H136.052L138.342 7.09998H137.452L135.872 2.25998L135.452 0.849976L135.032 2.26998L133.442 7.09998H132.562L134.842 0.119975ZM141.156 7.09998L138.836 0.119975H139.736L141.376 4.92998L141.766 6.33998L142.156 4.93998L143.796 0.119975H144.686L142.366 7.09998H141.156ZM145.67 7.09998V0.119975H150.63V0.869975H146.54V3.10998H149.41V3.85998H146.54V6.34998H150.67V7.09998H145.67ZM160.778 7.21998C160.251 7.21998 159.788 7.11998 159.388 6.91998C158.995 6.71998 158.688 6.42664 158.468 6.03998C158.248 5.65331 158.138 5.18331 158.138 4.62998H158.998C158.998 5.21664 159.158 5.66998 159.478 5.98998C159.798 6.30998 160.231 6.46998 160.778 6.46998C161.238 6.46998 161.611 6.36331 161.898 6.14998C162.191 5.92998 162.338 5.62331 162.338 5.22998C162.338 4.96998 162.261 4.75998 162.108 4.59998C161.961 4.43331 161.765 4.30331 161.518 4.20998C161.278 4.10998 161.015 4.02331 160.728 3.94998C160.441 3.86998 160.151 3.78664 159.858 3.69998C159.571 3.60664 159.305 3.49331 159.058 3.35998C158.818 3.21998 158.625 3.03664 158.478 2.80998C158.331 2.58331 158.258 2.29331 158.258 1.93998C158.258 1.55998 158.355 1.22331 158.548 0.929975C158.748 0.636642 159.025 0.409975 159.378 0.249975C159.738 0.0833085 160.161 -2.47955e-05 160.648 -2.47955e-05C161.121 -2.47955e-05 161.545 0.0866419 161.918 0.259975C162.291 0.433309 162.588 0.679975 162.808 0.999975C163.028 1.31331 163.145 1.68998 163.158 2.12998H162.288C162.281 1.84998 162.205 1.60664 162.058 1.39998C161.911 1.19331 161.715 1.03331 161.468 0.919975C161.228 0.806642 160.955 0.749975 160.648 0.749975C160.201 0.749975 159.841 0.856642 159.568 1.06998C159.301 1.27664 159.168 1.55664 159.168 1.90998C159.168 2.14998 159.241 2.34331 159.388 2.48998C159.535 2.63664 159.728 2.75664 159.968 2.84998C160.215 2.93664 160.481 3.01664 160.768 3.08998C161.061 3.16331 161.351 3.24664 161.638 3.33998C161.931 3.42664 162.198 3.54331 162.438 3.68998C162.685 3.83664 162.881 4.03331 163.028 4.27998C163.175 4.52664 163.248 4.83998 163.248 5.21998C163.248 5.63331 163.138 5.98998 162.918 6.28998C162.705 6.58998 162.411 6.81998 162.038 6.97998C161.665 7.13998 161.245 7.21998 160.778 7.21998ZM168.632 7.09998V0.119975H169.492V7.09998H168.632ZM164.452 7.09998V0.119975H165.312V7.09998H164.452ZM165.182 3.85998V3.10998H168.762V3.85998H165.182ZM171.416 5.20998V4.45998H175.206V5.20998H171.416ZM172.666 0.119975H173.876L176.166 7.09998H175.276L173.696 2.25998L173.276 0.849976L172.856 2.26998L171.266 7.09998H170.386L172.666 0.119975ZM177.87 4.07998V3.32998H179.7C180.026 3.32998 180.313 3.27998 180.56 3.17998C180.813 3.07331 181.01 2.92331 181.15 2.72998C181.296 2.52998 181.37 2.29998 181.37 2.03998C181.37 1.79998 181.306 1.59331 181.18 1.41998C181.053 1.24664 180.883 1.11331 180.67 1.01998C180.456 0.919975 180.22 0.869975 179.96 0.869975H177.87V0.119975H179.96C180.406 0.119975 180.803 0.196642 181.15 0.349975C181.503 0.503309 181.78 0.723309 181.98 1.00998C182.18 1.29664 182.28 1.63998 182.28 2.03998C182.28 2.30664 182.22 2.56331 182.1 2.80998C181.986 3.04998 181.816 3.26664 181.59 3.45998C181.363 3.64664 181.09 3.79664 180.77 3.90998C180.45 4.02331 180.083 4.07998 179.67 4.07998H177.87ZM177.25 7.09998V0.119975H178.11V7.09998H177.25ZM181.33 7.09998C181.276 6.77998 181.18 6.46664 181.04 6.15998C180.906 5.85331 180.726 5.55998 180.5 5.27998C180.28 4.99998 180.003 4.73664 179.67 4.48998C179.336 4.24331 178.95 4.01664 178.51 3.80998L179.47 3.58998C179.936 3.81664 180.333 4.06664 180.66 4.33998C180.986 4.60664 181.256 4.88998 181.47 5.18998C181.69 5.48331 181.856 5.78998 181.97 6.10998C182.083 6.42998 182.16 6.75998 182.2 7.09998H181.33ZM183.494 7.09998V0.119975H188.454V0.869975H184.364V3.10998H187.234V3.85998H184.364V6.34998H188.494V7.09998H183.494ZM189.668 7.09998V0.119975H191.758C192.258 0.119975 192.708 0.203309 193.108 0.369975C193.514 0.529975 193.861 0.763308 194.148 1.06998C194.434 1.36998 194.654 1.73331 194.808 2.15998C194.961 2.58664 195.038 3.06331 195.038 3.58998C195.038 4.12331 194.961 4.60664 194.808 5.03998C194.654 5.46664 194.434 5.83664 194.148 6.14998C193.861 6.45664 193.514 6.69331 193.108 6.85998C192.708 7.01998 192.258 7.09998 191.758 7.09998H189.668ZM190.538 6.34998H191.758C192.238 6.34998 192.654 6.23664 193.008 6.00998C193.368 5.78331 193.641 5.46331 193.828 5.04998C194.021 4.62998 194.118 4.14331 194.118 3.58998C194.118 3.03664 194.021 2.55664 193.828 2.14998C193.641 1.74331 193.368 1.42998 193.008 1.20998C192.654 0.983309 192.238 0.869975 191.758 0.869975H190.538V6.34998ZM197.951 7.09998V6.03998H199.011V7.09998L198.391 8.82998H197.671L197.921 8.32998L198.571 7.08998L197.951 7.09998ZM1.21031 19.21V18.46H5.00031V19.21H1.21031ZM2.46031 14.12H3.67031L5.96031 21.1H5.07031L3.49031 16.26L3.07031 14.85L2.65031 16.27L1.06031 21.1H0.180313L2.46031 14.12ZM6.84422 21.1V14.12H7.90422L11.1342 19.94L11.0642 17.91V14.12H11.9142V21.1H10.8542L7.61422 15.33L7.69422 17.3V21.1H6.84422ZM13.1581 21.1V14.12H15.2481C15.7481 14.12 16.1981 14.2033 16.5981 14.37C17.0048 14.53 17.3515 14.7633 17.6381 15.07C17.9248 15.37 18.1448 15.7333 18.2981 16.16C18.4515 16.5866 18.5281 17.0633 18.5281 17.59C18.5281 18.1233 18.4515 18.6066 18.2981 19.04C18.1448 19.4666 17.9248 19.8366 17.6381 20.15C17.3515 20.4566 17.0048 20.6933 16.5981 20.86C16.1981 21.02 15.7481 21.1 15.2481 21.1H13.1581ZM14.0281 20.35H15.2481C15.7281 20.35 16.1448 20.2366 16.4981 20.01C16.8581 19.7833 17.1315 19.4633 17.3181 19.05C17.5115 18.63 17.6081 18.1433 17.6081 17.59C17.6081 17.0366 17.5115 16.5566 17.3181 16.15C17.1315 15.7433 16.8581 15.43 16.4981 15.21C16.1448 14.9833 15.7281 14.87 15.2481 14.87H14.0281V20.35ZM26.4259 19.21V18.46H30.2159V19.21H26.4259ZM27.6759 14.12H28.8859L31.1759 21.1H30.2859L28.7059 16.26L28.2859 14.85L27.8659 16.27L26.2759 21.1H25.3959L27.6759 14.12ZM32.5298 21.1V14.12H33.3898V20.35H37.1398V21.1H32.5298ZM38.8337 21.1V14.12H39.6937V20.35H43.4437V21.1H38.8337ZM53.0616 21.1V14.87H50.7416V14.12H56.2516V14.87H53.9316V21.1H53.0616ZM61.4655 21.1V14.12H62.3255V21.1H61.4655ZM57.2855 21.1V14.12H58.1455V21.1H57.2855ZM58.0155 17.86V17.11H61.5955V17.86H58.0155ZM63.7194 21.1V14.12H68.6794V14.87H64.5894V17.11H67.4594V17.86H64.5894V20.35H68.7194V21.1H63.7194ZM76.1972 21.1V14.12H78.2872C78.7872 14.12 79.2372 14.2033 79.6372 14.37C80.0439 14.53 80.3905 14.7633 80.6772 15.07C80.9639 15.37 81.1839 15.7333 81.3372 16.16C81.4905 16.5866 81.5672 17.0633 81.5672 17.59C81.5672 18.1233 81.4905 18.6066 81.3372 19.04C81.1839 19.4666 80.9639 19.8366 80.6772 20.15C80.3905 20.4566 80.0439 20.6933 79.6372 20.86C79.2372 21.02 78.7872 21.1 78.2872 21.1H76.1972ZM77.0672 20.35H78.2872C78.7672 20.35 79.1839 20.2366 79.5372 20.01C79.8972 19.7833 80.1705 19.4633 80.3572 19.05C80.5505 18.63 80.6472 18.1433 80.6472 17.59C80.6472 17.0366 80.5505 16.5566 80.3572 16.15C80.1705 15.7433 79.8972 15.43 79.5372 15.21C79.1839 14.9833 78.7672 14.87 78.2872 14.87H77.0672V20.35ZM83.1611 19.21V18.46H86.9511V19.21H83.1611ZM84.4111 14.12H85.6211L87.9111 21.1H87.0211L85.4411 16.26L85.0211 14.85L84.6011 16.27L83.0111 21.1H82.1311L84.4111 14.12ZM90.875 21.1V18.27L88.525 14.12H89.485L90.675 16.22L91.315 17.5L91.975 16.21L93.165 14.12H94.115L91.735 18.27V21.1H90.875ZM97.7389 21.22C97.2122 21.22 96.7489 21.12 96.3489 20.92C95.9556 20.72 95.6489 20.4266 95.4289 20.04C95.2089 19.6533 95.0989 19.1833 95.0989 18.63H95.9589C95.9589 19.2166 96.1189 19.67 96.4389 19.99C96.7589 20.31 97.1922 20.47 97.7389 20.47C98.1989 20.47 98.5722 20.3633 98.8589 20.15C99.1522 19.93 99.2989 19.6233 99.2989 19.23C99.2989 18.97 99.2222 18.76 99.0689 18.6C98.9222 18.4333 98.7256 18.3033 98.4789 18.21C98.2389 18.11 97.9756 18.0233 97.6889 17.95C97.4022 17.87 97.1122 17.7866 96.8189 17.7C96.5322 17.6066 96.2656 17.4933 96.0189 17.36C95.7789 17.22 95.5856 17.0366 95.4389 16.81C95.2922 16.5833 95.2189 16.2933 95.2189 15.94C95.2189 15.56 95.3156 15.2233 95.5089 14.93C95.7089 14.6366 95.9856 14.41 96.3389 14.25C96.6989 14.0833 97.1222 14 97.6089 14C98.0822 14 98.5056 14.0866 98.8789 14.26C99.2522 14.4333 99.5489 14.68 99.7689 15C99.9889 15.3133 100.106 15.69 100.119 16.13H99.2489C99.2422 15.85 99.1656 15.6066 99.0189 15.4C98.8722 15.1933 98.6756 15.0333 98.4289 14.92C98.1889 14.8066 97.9156 14.75 97.6089 14.75C97.1622 14.75 96.8022 14.8566 96.5289 15.07C96.2622 15.2766 96.1289 15.5566 96.1289 15.91C96.1289 16.15 96.2022 16.3433 96.3489 16.49C96.4956 16.6366 96.6889 16.7566 96.9289 16.85C97.1756 16.9366 97.4422 17.0166 97.7289 17.09C98.0222 17.1633 98.3122 17.2466 98.5989 17.34C98.8922 17.4266 99.1589 17.5433 99.3989 17.69C99.6456 17.8366 99.8422 18.0333 99.9889 18.28C100.136 18.5266 100.209 18.84 100.209 19.22C100.209 19.6333 100.099 19.99 99.8789 20.29C99.6656 20.59 99.3722 20.82 98.9989 20.98C98.6256 21.14 98.2056 21.22 97.7389 21.22ZM110.347 21.22C109.82 21.22 109.357 21.12 108.957 20.92C108.563 20.72 108.257 20.4266 108.037 20.04C107.817 19.6533 107.707 19.1833 107.707 18.63H108.567C108.567 19.2166 108.727 19.67 109.047 19.99C109.367 20.31 109.8 20.47 110.347 20.47C110.807 20.47 111.18 20.3633 111.467 20.15C111.76 19.93 111.907 19.6233 111.907 19.23C111.907 18.97 111.83 18.76 111.677 18.6C111.53 18.4333 111.333 18.3033 111.087 18.21C110.847 18.11 110.583 18.0233 110.297 17.95C110.01 17.87 109.72 17.7866 109.427 17.7C109.14 17.6066 108.873 17.4933 108.627 17.36C108.387 17.22 108.193 17.0366 108.047 16.81C107.9 16.5833 107.827 16.2933 107.827 15.94C107.827 15.56 107.923 15.2233 108.117 14.93C108.317 14.6366 108.593 14.41 108.947 14.25C109.307 14.0833 109.73 14 110.217 14C110.69 14 111.113 14.0866 111.487 14.26C111.86 14.4333 112.157 14.68 112.377 15C112.597 15.3133 112.713 15.69 112.727 16.13H111.857C111.85 15.85 111.773 15.6066 111.627 15.4C111.48 15.1933 111.283 15.0333 111.037 14.92C110.797 14.8066 110.523 14.75 110.217 14.75C109.77 14.75 109.41 14.8566 109.137 15.07C108.87 15.2766 108.737 15.5566 108.737 15.91C108.737 16.15 108.81 16.3433 108.957 16.49C109.103 16.6366 109.297 16.7566 109.537 16.85C109.783 16.9366 110.05 17.0166 110.337 17.09C110.63 17.1633 110.92 17.2466 111.207 17.34C111.5 17.4266 111.767 17.5433 112.007 17.69C112.253 17.8366 112.45 18.0333 112.597 18.28C112.743 18.5266 112.817 18.84 112.817 19.22C112.817 19.6333 112.707 19.99 112.487 20.29C112.273 20.59 111.98 20.82 111.607 20.98C111.233 21.14 110.813 21.22 110.347 21.22ZM116.101 21.1V14.87H113.781V14.12H119.291V14.87H116.971V21.1H116.101ZM122.405 21.1V14.12H123.275V21.1H122.405ZM120.615 14.12H125.065V14.87H120.615V14.12ZM120.615 20.35H125.065V21.1H120.615V20.35ZM127.088 21.1V14.12H127.948V20.35H131.698V21.1H127.088ZM133.392 21.1V14.12H134.252V20.35H138.002V21.1H133.392ZM147.62 21.1V14.87H145.3V14.12H150.81V14.87H148.49V21.1H147.62ZM154.374 21.22C153.787 21.22 153.277 21.0733 152.844 20.78C152.411 20.48 152.074 20.06 151.834 19.52C151.601 18.9733 151.484 18.3366 151.484 17.61C151.484 16.8766 151.601 16.24 151.834 15.7C152.074 15.16 152.411 14.7433 152.844 14.45C153.277 14.15 153.787 14 154.374 14C154.961 14 155.471 14.15 155.904 14.45C156.337 14.7433 156.671 15.16 156.904 15.7C157.144 16.24 157.264 16.8766 157.264 17.61C157.264 18.3366 157.144 18.9733 156.904 19.52C156.671 20.06 156.337 20.48 155.904 20.78C155.471 21.0733 154.961 21.22 154.374 21.22ZM154.374 20.47C154.774 20.47 155.121 20.3533 155.414 20.12C155.714 19.8866 155.944 19.5566 156.104 19.13C156.271 18.6966 156.354 18.19 156.354 17.61C156.354 17.03 156.271 16.5266 156.104 16.1C155.944 15.6733 155.714 15.3433 155.414 15.11C155.121 14.87 154.774 14.75 154.374 14.75C153.974 14.75 153.624 14.87 153.324 15.11C153.031 15.3433 152.801 15.6733 152.634 16.1C152.467 16.5266 152.384 17.03 152.384 17.61C152.384 18.19 152.467 18.6966 152.634 19.13C152.801 19.5566 153.031 19.8866 153.324 20.12C153.624 20.3533 153.974 20.47 154.374 20.47ZM167.112 21.22C166.499 21.22 165.965 21.0633 165.512 20.75C165.065 20.4366 164.722 20.01 164.482 19.47C164.242 18.9233 164.122 18.3 164.122 17.6C164.122 16.8666 164.249 16.23 164.502 15.69C164.755 15.15 165.109 14.7333 165.562 14.44C166.015 14.1466 166.539 14 167.132 14C167.619 14 168.055 14.0966 168.442 14.29C168.829 14.4766 169.145 14.7466 169.392 15.1C169.639 15.4533 169.785 15.87 169.832 16.35H168.872C168.819 15.87 168.635 15.4833 168.322 15.19C168.009 14.8966 167.609 14.75 167.122 14.75C166.709 14.75 166.345 14.8666 166.032 15.1C165.719 15.3333 165.472 15.6666 165.292 16.1C165.119 16.5266 165.032 17.03 165.032 17.61C165.032 18.1966 165.122 18.7066 165.302 19.14C165.482 19.5666 165.729 19.8966 166.042 20.13C166.355 20.3566 166.712 20.47 167.112 20.47C167.452 20.47 167.749 20.4 168.002 20.26C168.262 20.12 168.469 19.9233 168.622 19.67C168.782 19.4166 168.879 19.12 168.912 18.78H169.862C169.815 19.2666 169.672 19.6966 169.432 20.07C169.199 20.4366 168.885 20.72 168.492 20.92C168.099 21.12 167.639 21.22 167.112 21.22ZM173.286 21.22C172.699 21.22 172.189 21.0733 171.756 20.78C171.322 20.48 170.986 20.06 170.746 19.52C170.512 18.9733 170.396 18.3366 170.396 17.61C170.396 16.8766 170.512 16.24 170.746 15.7C170.986 15.16 171.322 14.7433 171.756 14.45C172.189 14.15 172.699 14 173.286 14C173.872 14 174.382 14.15 174.816 14.45C175.249 14.7433 175.582 15.16 175.816 15.7C176.056 16.24 176.176 16.8766 176.176 17.61C176.176 18.3366 176.056 18.9733 175.816 19.52C175.582 20.06 175.249 20.48 174.816 20.78C174.382 21.0733 173.872 21.22 173.286 21.22ZM173.286 20.47C173.686 20.47 174.032 20.3533 174.326 20.12C174.626 19.8866 174.856 19.5566 175.016 19.13C175.182 18.6966 175.266 18.19 175.266 17.61C175.266 17.03 175.182 16.5266 175.016 16.1C174.856 15.6733 174.626 15.3433 174.326 15.11C174.032 14.87 173.686 14.75 173.286 14.75C172.886 14.75 172.536 14.87 172.236 15.11C171.942 15.3433 171.712 15.6733 171.546 16.1C171.379 16.5266 171.296 17.03 171.296 17.61C171.296 18.19 171.379 18.6966 171.546 19.13C171.712 19.5566 171.942 19.8866 172.236 20.12C172.536 20.3533 172.886 20.47 173.286 20.47ZM176.62 21.1L177.16 14.12H178.32L179.37 18.65L179.59 19.87L179.81 18.65L180.88 14.12H182.01L182.56 21.1H181.7L181.4 16.42L181.35 15.02L181.06 16.42L179.96 21.1H179.18L178.1 16.42L177.82 15L177.76 16.42L177.47 21.1H176.62ZM183.494 21.1V14.12H188.454V14.87H184.364V17.11H187.234V17.86H184.364V20.35H188.494V21.1H183.494ZM191.658 21.1V20.03H192.718V21.1H191.658ZM0.110313 35.1L0.650313 28.12H1.81031L2.86031 32.65L3.08031 33.87L3.30031 32.65L4.37031 28.12H5.50031L6.05031 35.1H5.19031L4.89031 30.42L4.84031 29.02L4.55031 30.42L3.45031 35.1H2.67031L1.59031 30.42L1.31031 29L1.25031 30.42L0.960313 35.1H0.110313ZM7.51422 33.21V32.46H11.3042V33.21H7.51422ZM8.76422 28.12H9.97422L12.2642 35.1H11.3742L9.79422 30.26L9.37422 28.85L8.95422 30.27L7.36422 35.1H6.48422L8.76422 28.12ZM15.2281 35.1V32.27L12.8781 28.12H13.8381L15.0281 30.22L15.6681 31.5L16.3281 30.21L17.5181 28.12H18.4681L16.0881 32.27V35.1H15.2281ZM27.8459 35.1V28.87H25.5259V28.12H31.0359V28.87H28.7159V35.1H27.8459ZM36.2498 35.1V28.12H37.1098V35.1H36.2498ZM32.0698 35.1V28.12H32.9298V35.1H32.0698ZM32.7998 31.86V31.11H36.3798V31.86H32.7998ZM38.5037 35.1V28.12H43.4637V28.87H39.3737V31.11H42.2437V31.86H39.3737V34.35H43.5037V35.1H38.5037ZM46.7477 35.1V32.27L44.3977 28.12H45.3577L46.5477 30.22L47.1877 31.5L47.8477 30.21L49.0377 28.12H49.9877L47.6077 32.27V35.1H46.7477ZM61.0755 31.44C61.3288 31.5066 61.5588 31.6133 61.7655 31.76C61.9721 31.9066 62.1355 32.0966 62.2555 32.33C62.3821 32.5633 62.4455 32.84 62.4455 33.16C62.4455 33.5466 62.3488 33.8866 62.1555 34.18C61.9688 34.4733 61.6988 34.7 61.3455 34.86C60.9921 35.02 60.5755 35.1 60.0955 35.1H57.4555V28.12H59.9855C60.6988 28.12 61.2588 28.2766 61.6655 28.59C62.0721 28.9033 62.2755 29.32 62.2755 29.84C62.2755 30.0866 62.2288 30.32 62.1355 30.54C62.0421 30.76 61.9055 30.95 61.7255 31.11C61.5521 31.2633 61.3355 31.3733 61.0755 31.44ZM59.9655 28.87H58.3155V31.14H59.9655C60.3988 31.14 60.7388 31.0333 60.9855 30.82C61.2388 30.6066 61.3655 30.3233 61.3655 29.97C61.3655 29.6233 61.2388 29.3533 60.9855 29.16C60.7321 28.9666 60.3921 28.87 59.9655 28.87ZM58.3155 34.35H60.0755C60.5288 34.35 60.8855 34.24 61.1455 34.02C61.4055 33.7933 61.5355 33.4933 61.5355 33.12C61.5355 32.7266 61.3955 32.4233 61.1155 32.21C60.8355 31.9966 60.4488 31.89 59.9555 31.89H58.3155V34.35ZM63.7194 35.1V28.12H68.6794V28.87H64.5894V31.11H67.4594V31.86H64.5894V34.35H68.7194V35.1H63.7194ZM76.2772 35.1V28.12H81.2672V28.87H77.1372V31.11H80.0472V31.86H77.1372V35.1H76.2772ZM84.5811 35.1V28.12H85.4511V35.1H84.5811ZM82.7911 28.12H87.2411V28.87H82.7911V28.12ZM82.7911 34.35H87.2411V35.1H82.7911V34.35ZM89.265 35.1V28.12H90.125V34.35H93.875V35.1H89.265ZM95.5689 35.1V28.12H96.4289V34.35H100.179V35.1H95.5689ZM101.543 35.1V28.12H106.503V28.87H102.413V31.11H105.283V31.86H102.413V34.35H106.543V35.1H101.543ZM107.717 35.1V28.12H109.807C110.307 28.12 110.757 28.2033 111.157 28.37C111.563 28.53 111.91 28.7633 112.197 29.07C112.483 29.37 112.703 29.7333 112.857 30.16C113.01 30.5866 113.087 31.0633 113.087 31.59C113.087 32.1233 113.01 32.6066 112.857 33.04C112.703 33.4666 112.483 33.8366 112.197 34.15C111.91 34.4566 111.563 34.6933 111.157 34.86C110.757 35.02 110.307 35.1 109.807 35.1H107.717ZM108.587 34.35H109.807C110.287 34.35 110.703 34.2366 111.057 34.01C111.417 33.7833 111.69 33.4633 111.877 33.05C112.07 32.63 112.167 32.1433 112.167 31.59C112.167 31.0366 112.07 30.5566 111.877 30.15C111.69 29.7433 111.417 29.43 111.057 29.21C110.703 28.9833 110.287 28.87 109.807 28.87H108.587V34.35ZM0.870313 49.1L0.000312511 42.12H0.830313L1.41031 46.8L1.54031 48.29L1.78031 46.8L2.69031 42.12H3.51031L4.42031 46.8L4.67031 48.31L4.77031 46.8L5.34031 42.12H6.16031L5.28031 49.1H4.11031L3.31031 44.81L3.10031 43.39L2.89031 44.81L2.05031 49.1H0.870313ZM8.93422 49.1V42.12H9.80422V49.1H8.93422ZM7.14422 42.12H11.5942V42.87H7.14422V42.12ZM7.14422 48.35H11.5942V49.1H7.14422V48.35ZM15.2381 49.1V42.87H12.9181V42.12H18.4281V42.87H16.1081V49.1H15.2381ZM23.642 49.1V42.12H24.502V49.1H23.642ZM19.462 49.1V42.12H20.322V49.1H19.462ZM20.192 45.86V45.11H23.772V45.86H20.192ZM32.5298 49.1V42.12H33.3898V48.35H37.1398V49.1H32.5298ZM40.9037 49.22C40.3171 49.22 39.8071 49.0733 39.3737 48.78C38.9404 48.48 38.6037 48.06 38.3637 47.52C38.1304 46.9733 38.0137 46.3366 38.0137 45.61C38.0137 44.8766 38.1304 44.24 38.3637 43.7C38.6037 43.16 38.9404 42.7433 39.3737 42.45C39.8071 42.15 40.3171 42 40.9037 42C41.4904 42 42.0004 42.15 42.4337 42.45C42.8671 42.7433 43.2004 43.16 43.4337 43.7C43.6737 44.24 43.7937 44.8766 43.7937 45.61C43.7937 46.3366 43.6737 46.9733 43.4337 47.52C43.2004 48.06 42.8671 48.48 42.4337 48.78C42.0004 49.0733 41.4904 49.22 40.9037 49.22ZM40.9037 48.47C41.3037 48.47 41.6504 48.3533 41.9437 48.12C42.2437 47.8866 42.4737 47.5566 42.6337 47.13C42.8004 46.6966 42.8837 46.19 42.8837 45.61C42.8837 45.03 42.8004 44.5266 42.6337 44.1C42.4737 43.6733 42.2437 43.3433 41.9437 43.11C41.6504 42.87 41.3037 42.75 40.9037 42.75C40.5037 42.75 40.1537 42.87 39.8537 43.11C39.5604 43.3433 39.3304 43.6733 39.1637 44.1C38.9971 44.5266 38.9137 45.03 38.9137 45.61C38.9137 46.19 38.9971 46.6966 39.1637 47.13C39.3304 47.5566 39.5604 47.8866 39.8537 48.12C40.1537 48.3533 40.5037 48.47 40.9037 48.47ZM46.5977 49.1L44.2777 42.12H45.1777L46.8177 46.93L47.2077 48.34L47.5977 46.94L49.2377 42.12H50.1277L47.8077 49.1H46.5977ZM51.1116 49.1V42.12H56.0716V42.87H51.9816V45.11H54.8516V45.86H51.9816V48.35H56.1116V49.1H51.1116ZM59.2755 49.1V48.03H60.3355V49.1H59.2755Z" fill="#F15583"/>
</svg>
