<svg width="52" height="52" viewBox="0 0 52 52" fill="none" xmlns="http://www.w3.org/2000/svg">
<path d="M46.9574 30.8123C51.2702 38.5398 50.8848 44.3097 45.83 48.233C39.8487 52.8744 32.0923 51.6802 25.4018 45.1346C23.0281 46.3288 20.7733 47.7775 18.3136 48.6352C13.0497 50.4696 7.95394 48.9717 5.03503 45.0772C2.05872 41.1088 2.16941 36.0611 5.34249 31.3212C5.55977 30.9929 5.78115 30.6646 6.05992 30.246C5.64586 29.9423 5.33428 29.7002 5.01451 29.4745C1.31258 26.848 -0.692106 23.4213 0.218004 18.7635C1.17321 13.8923 4.27659 10.9457 8.99112 9.8336C10.5818 9.46015 12.3938 9.54632 14.0049 9.89514C15.5013 10.2193 16.0834 9.80486 16.5959 8.51627C18.1496 4.59302 20.5807 1.5603 24.9221 0.464587C31.9365 -1.30416 37.5489 2.06917 39.2051 9.02103C39.3404 9.59556 40.0988 10.3999 40.6236 10.4492C45.5431 10.9006 49.3024 13.0346 50.9423 17.8483C52.5739 22.6498 51.3686 26.8603 47.4904 30.2296C47.2895 30.406 47.1296 30.6276 46.9656 30.8164L46.9574 30.8123ZM37.0692 45.1921C37.6227 45.151 38.2458 45.1674 38.8444 45.0525C41.3656 44.5642 43.6819 43.6736 44.3542 40.8625C45.0142 38.1007 44.1656 35.7287 41.9354 33.9189C41.4066 33.488 40.804 33.1474 40.2915 32.7C38.4221 31.0626 38.7009 28.8301 40.8941 27.7262C41.4435 27.4513 42.0174 27.2338 42.5668 26.9629C45.6415 25.4445 46.9779 22.264 45.7071 19.4981C44.3255 16.49 41.1032 15.3901 37.8441 16.8183C35.3064 17.9304 33.0803 16.5721 32.9983 13.802C32.9737 13.0017 33.2361 12.1892 33.355 11.3848C33.8141 8.26593 32.3014 6.16069 29.239 5.65181C26.0126 5.11832 23.7251 6.30432 22.2943 9.39449C21.5482 10.9991 21.0726 12.7309 20.2978 14.3232C19.2319 16.5228 17.6044 16.9989 15.3947 15.9893C14.5912 15.6241 13.7835 15.226 12.9349 15.0085C10.0693 14.2698 7.1094 15.858 5.96151 18.6773C4.94481 21.1724 5.93692 23.647 8.63445 25.2147C9.33548 25.621 10.1349 25.8631 10.8646 26.2324C13.5089 27.558 13.8327 29.9095 11.7952 32.0188C10.8113 33.0366 9.91763 34.1938 9.2248 35.425C8.204 37.2307 7.88013 39.1923 9.2002 41.0349C10.5408 42.9062 12.4184 43.7393 14.7142 43.4972C17.6536 43.1853 20.2609 42.0608 22.4009 40.0048C25.5289 37.0008 26.9924 37.1199 29.2226 40.8174C31.01 43.7804 33.56 45.2536 37.0651 45.2044L37.0692 45.1921Z" fill="#F15583"/>
</svg>
