<svg width="53" height="49" viewBox="0 0 53 49" fill="none" xmlns="http://www.w3.org/2000/svg">
<path fill-rule="evenodd" clip-rule="evenodd" d="M41.6713 0.339187C40.9735 0.687405 35.4823 4.87831 28.5419 10.3228C26.5518 11.8959 24.7765 13.2601 24.6155 13.3666C24.4256 13.4731 23.8351 13.3379 23.2447 13.0471C22.6791 12.7808 20.7427 11.9246 18.9674 11.1503C17.2168 10.376 14.4216 9.09379 12.7784 8.29494C7.5308 5.73041 6.16006 5.35762 5.30129 6.32034C5.03292 6.58662 4.843 7.09461 4.843 7.44283C4.843 7.9754 7.20876 11.4207 13.0468 19.2945C14.017 20.6014 14.7685 21.7771 14.7437 21.8836C14.69 22.0188 13.7198 22.7398 12.5926 23.51C9.04191 25.9393 3.98422 29.9172 1.96527 31.8631C0.35094 33.4117 0 33.891 0 34.5874C0 35.5215 0.536735 36.1892 1.47809 36.4309C1.82903 36.5129 4.08744 36.2179 6.50687 35.7632C12.0765 34.7472 20.1482 33.5469 20.4166 33.7066C20.5239 33.7886 20.7675 34.4809 20.9533 35.2552C21.5974 38.1106 24.3967 47.1888 24.8549 47.8811C25.9036 49.4543 27.6253 49.3477 28.352 47.6927C28.5667 47.2134 28.9961 45.2388 29.2933 43.342C30.02 38.7783 31.176 32.7193 31.337 32.5841C31.4196 32.5022 33.7317 32.6661 36.5021 32.9324C39.3014 33.1741 43.8719 33.4649 46.6959 33.5182C51.6999 33.6779 51.861 33.6534 52.4266 33.0921C54.012 31.519 52.695 30.3146 43.5498 24.8455C39.7844 22.6046 36.5558 20.6833 36.3411 20.5481C35.8291 20.2286 35.6144 20.7365 42.9594 5.30436C44.4912 2.10076 44.6522 1.30191 43.8182 0.527635C43.1204 -0.111447 42.6333 -0.164704 41.6671 0.339187H41.6713ZM36.0768 12.2728C34.4625 15.5542 33.0092 18.68 32.8482 19.2126C32.5261 20.1753 32.6335 22.0434 33.0092 22.4162C33.2775 22.6825 39.706 26.5784 43.2319 28.5817C46.4854 30.4498 46.8363 30.798 45.1683 30.585C44.5242 30.4784 42.53 30.3433 40.7547 30.2654C37.4476 30.1056 35.7507 29.9991 31.7417 29.7042C29.669 29.5444 29.4007 29.5977 28.9713 30.077C28.6492 30.4252 28.1662 32.1581 27.5469 35.0954C27.0349 37.5493 26.6303 39.6878 26.6303 39.8475C26.6303 40.6218 26.0647 39.2617 25.1522 36.2711C23.8062 31.8918 23.348 30.9864 22.1382 30.5071C21.2506 30.1343 20.7138 30.1876 14.3349 31.1995C10.5695 31.814 7.41932 32.2687 7.36565 32.1868C7.2583 32.0802 13.0427 27.4879 16.325 25.1118C18.2366 23.723 18.5586 23.3215 18.5586 22.3875C18.5586 22.1212 16.8081 19.5567 14.7107 16.7013C10.5406 11.1216 10.2723 10.7488 10.648 10.9619C10.7842 11.0438 12.1797 11.7361 13.7693 12.4572C18.315 14.5915 21.7047 15.7673 23.67 15.927L25.4453 16.0336L27.7038 14.5137C28.9672 13.6575 30.9572 12.2196 32.1421 11.3101C36.4195 7.99997 38.8679 6.15647 38.9463 6.2384C38.9752 6.26708 37.6829 8.98727 36.0686 12.2728H36.0768Z" fill="#F15583"/>
</svg>
