<svg width="40" height="47" viewBox="0 0 40 47" fill="none" xmlns="http://www.w3.org/2000/svg">
<path fill-rule="evenodd" clip-rule="evenodd" d="M19.8159 0.735148C18.9856 1.46553 18.778 2.23394 17.3625 10.2453C16.5322 15.0194 15.8415 19.2685 15.8415 19.6869C15.8415 20.3831 15.5659 20.4173 10.5874 20.8015C7.6849 21.045 4.6427 21.22 3.84629 21.22C1.1136 21.22 -0.369756 22.403 0.0794021 24.2175C0.42665 25.5756 1.63447 26.0283 6.88849 26.7967C9.65515 27.1809 12.5917 27.702 13.456 27.9455L14.9771 28.3982L15.2187 30.4524C15.3206 31.6012 15.7018 35.0515 16.0151 38.1175C16.8115 45.6077 17.3965 47 19.9216 47C21.0955 47 22.1674 45.9196 22.6883 44.2116C22.8959 43.5497 23.6206 39.719 24.2773 35.7096C24.9341 31.7039 25.6248 28.3221 25.7644 28.1852C25.9041 28.0444 28.667 27.5233 31.9168 27.0021C35.1326 26.481 38.0012 25.9218 38.3107 25.7468C40.247 24.7007 40.5904 22.3307 38.9674 21.1477C37.7936 20.2765 34.6117 19.8239 29.1161 19.8239H24.5868L24.3453 18.5001C24.2433 17.8039 24.1377 14.7721 24.1037 11.8125C24.0697 4.00664 23.7942 1.43129 22.7902 0.628636C21.7183 -0.242492 20.9218 -0.208248 19.8159 0.731352V0.735148Z" fill="white"/>
</svg>
