<svg width="132" height="88" viewBox="0 0 132 88" fill="none" xmlns="http://www.w3.org/2000/svg">
<g clip-path="url(#clip0_730_72)">
<path fill-rule="evenodd" clip-rule="evenodd" d="M110.044 2.16524C109.001 2.74366 106.057 4.2501 103.512 5.53488C85.2302 14.7579 75.2171 21.4929 62.6909 32.9953C57.8126 37.4651 49.8129 45.3935 49.7092 45.8458C49.6137 46.3197 49.981 47.169 50.368 47.3437C50.8102 47.5434 54.6015 46.0869 61.1537 43.1897C70.1044 39.2256 78.3529 36.2651 84.7173 34.7523C92.1654 32.9456 109.15 29.9429 114.42 29.4868C119.068 29.0827 119.324 29.0318 119.638 28.4082C120.311 27.0944 119.261 26.6869 115.525 26.8835C109.574 27.1806 95.7667 29.5347 84.986 32.1195C80.0081 33.291 76.0319 34.6128 68.1921 37.6939C63.9362 39.3757 60.4686 40.7097 60.4935 40.6544C60.5849 40.4116 68.3173 35.7155 71.2629 34.092C80.1522 29.1839 86.4615 26.3152 98.1722 21.811C107.277 18.3182 107.793 18.0981 107.904 17.6674C108.096 17.0194 107.975 16.7652 107.322 16.3702C106.828 16.0983 106.524 16.1428 104.004 16.8886C100.894 17.8365 90.2206 22.0362 85.6417 24.1404C79.9597 26.7293 72.4599 30.5782 67.6593 33.363C66.1193 34.2673 64.7575 35.037 64.6342 35.0837C64.3054 35.1835 66.1785 33.4647 69.3075 30.808C80.1632 21.5689 88.9513 15.9649 106.6 7.00628C112.587 3.95604 114.846 2.64189 115.17 2.03565C115.497 1.38226 115.318 0.853468 114.598 0.525851C113.935 0.226284 112.94 0.578187 110.048 2.15673L110.044 2.16524Z" fill="#F15583"/>
<path fill-rule="evenodd" clip-rule="evenodd" d="M33.8624 38.9508C33.4407 39.4105 30.5361 44.1214 26.907 50.1868C25.8698 51.9351 24.9334 53.4651 24.8435 53.5909C24.7321 53.7249 24.2526 53.7899 23.7288 53.7376C23.2304 53.6968 21.5402 53.599 19.9935 53.5173C18.4654 53.4287 16.0123 53.2525 14.5573 53.115C9.907 52.6657 8.77705 52.7723 8.41047 53.7407C8.28606 54.0172 8.28918 54.4538 8.38854 54.7162C8.5405 55.1176 11.2901 57.0454 17.8962 61.3291C18.9936 62.0397 19.8902 62.7134 19.9021 62.8007C19.9006 62.9178 19.3818 63.7355 18.7599 64.6346C16.8017 67.4693 14.16 71.8971 13.2076 73.9345C12.444 75.5579 12.3187 76.0184 12.5174 76.5433C12.7839 77.2472 13.3752 77.5988 14.1471 77.5148C14.4326 77.4773 16.0348 76.6166 17.7118 75.5899C21.5809 73.2496 27.2658 70.063 27.5117 70.1075C27.6153 70.1389 27.9947 70.5919 28.3544 71.1229C29.6501 73.0928 34.3307 79.1434 34.8705 79.5356C36.1024 80.4247 37.3577 79.8577 37.4281 78.4049C37.4516 77.983 37.2088 76.3734 36.8896 74.8598C36.13 71.2149 35.2645 66.3216 35.3461 66.1742C35.3844 66.0891 37.1577 65.559 39.3024 64.9765C41.4616 64.3673 44.9576 63.2944 47.0816 62.5361C50.8638 61.2418 50.977 61.1778 51.2393 60.5949C51.9743 58.9611 50.6471 58.4257 42.2577 56.8892C38.8065 56.2649 35.8474 55.7296 35.6485 55.6884C35.175 55.5923 35.1596 56.0359 36.241 42.3287C36.4708 39.4812 36.3631 38.8336 35.5194 38.4858C34.816 38.2014 34.437 38.299 33.8593 38.9519L33.8624 38.9508ZM33.0899 49.5263C32.8208 52.4558 32.6274 55.2225 32.6592 55.6694C32.6934 56.486 33.3066 57.8635 33.6935 58.0383C33.9699 58.1631 39.8818 59.282 43.0863 59.7949C46.0488 60.2831 46.4102 60.4463 45.1039 60.7573C44.5925 60.8591 43.0649 61.321 41.7169 61.7643C39.2018 62.5788 37.9043 62.9782 34.8265 63.8893C33.2332 64.3549 33.048 64.4709 32.8642 64.9535C32.723 65.307 32.8568 66.7496 33.2324 69.1384C33.5503 71.1326 33.8584 72.8586 33.9039 72.9791C34.1249 73.5626 33.3144 72.6974 31.7797 70.7015C29.5251 67.7815 28.9245 67.2287 27.8844 67.2094C27.1152 67.1794 26.7296 67.3713 22.255 69.9373C19.6186 71.4649 17.396 72.6982 17.3326 72.6517C17.222 72.6017 20.231 67.5053 22.004 64.7866C23.0352 63.1995 23.1612 62.8059 22.8946 62.102C22.8187 61.9013 20.7797 60.4634 18.3988 58.9043C13.6928 55.878 13.3861 55.6729 13.7274 55.7273C13.8525 55.7505 15.0921 55.8778 16.4848 55.9718C20.4883 56.2953 23.355 56.2231 24.8681 55.7879L26.2242 55.3663L27.4769 53.5823C28.176 52.5799 29.2518 50.9335 29.8771 49.9131C32.1267 46.2092 33.4289 44.1276 33.5108 44.1672C33.5406 44.1806 33.3518 46.5961 33.0838 49.5287L33.0899 49.5263Z" fill="#F15583"/>
</g>
<defs>
<clipPath id="clip0_730_72">
<rect width="131.47" height="87.4055" fill="white"/>
</clipPath>
</defs>
</svg>
