<svg width="40" height="41" viewBox="0 0 40 41" fill="none" xmlns="http://www.w3.org/2000/svg">
<path d="M21.3253 1.52268C21.3253 1.84216 21.2797 2.15403 21.2873 2.47351C21.2873 2.63324 21.3177 2.79299 21.3253 2.95272C21.3253 3.02118 21.3253 3.508 21.3481 3.15809C21.3329 3.38629 21.2721 3.60687 21.2569 3.83507C21.2417 4.1089 21.2873 4.37514 21.3253 4.64898C21.3785 4.96845 21.3557 4.43599 21.3329 4.78589C21.3253 4.94563 21.3329 5.10537 21.3177 5.26511C21.3025 5.42485 21.2949 5.58459 21.3025 5.74433C21.3253 5.59219 21.3329 5.56938 21.3177 5.68348C21.2949 5.84322 21.2721 5.99535 21.2569 6.15509C21.2265 6.46696 21.2266 6.79404 21.2266 7.10591C21.2266 7.49385 21.3253 7.85134 21.3709 8.23167C21.3177 7.82091 21.3329 8.2621 21.3329 8.33056C21.3329 8.51312 21.3177 8.69567 21.3177 8.87823C21.3101 9.67692 22.0241 10.4376 22.8368 10.3995C23.6495 10.3615 24.3407 9.73017 24.3559 8.87823C24.3559 8.56636 24.3939 8.25451 24.3711 7.94264C24.3559 7.71444 24.3104 7.47102 24.2648 7.24282C24.2496 7.18197 24.242 7.12872 24.2268 7.06786C24.2571 7.28085 24.2648 7.29607 24.2572 7.10591C24.2724 6.9766 24.2572 6.83207 24.2572 6.69515C24.2572 6.6343 24.2572 6.06381 24.242 6.42132C24.2572 6.03339 24.3331 5.65304 24.3407 5.26511C24.3483 4.87717 24.3407 4.50446 24.2723 4.10892C24.242 3.92636 24.242 3.92636 24.2723 4.10892C24.2647 4.01764 24.2647 3.92635 24.2723 3.83507L24.2572 3.96439C24.2876 3.78183 24.3103 3.60689 24.3331 3.42433C24.3635 3.09725 24.3179 2.79298 24.3104 2.47351C24.3028 2.15403 24.3407 1.84216 24.3483 1.52268C24.3635 0.723994 23.6343 -0.0366641 22.8292 0.00136876C22.0241 0.0394017 21.3253 0.670748 21.3101 1.52268H21.3253Z" fill="white"/>
<path d="M1.92452 20.7369C2.46381 20.638 2.89676 20.5771 3.45124 20.5847C4.03609 20.5999 4.59058 20.5087 5.17544 20.4858C5.81347 20.4554 6.45906 20.4934 7.08949 20.3793C7.59839 20.2881 7.98576 20.1968 8.50985 20.2044C8.7605 20.2044 9.01116 20.25 9.26941 20.2424C9.55804 20.2424 9.84667 20.1207 10.1277 20.1283C10.4087 20.1359 10.705 20.2729 10.9936 20.2729C11.2822 20.2729 11.5937 20.1207 11.8519 20.0979C12.4444 20.0447 12.9989 20.2424 13.5761 20.2805C13.8572 20.3033 14.1609 20.3261 14.442 20.3109C14.7458 20.2957 15.0496 20.1512 15.3079 20.1131C16.1206 20.0066 16.827 19.4894 16.827 18.5918C16.827 17.854 16.1282 16.964 15.3079 17.0705C14.685 17.1542 14.199 17.3139 13.5761 17.2378C13.0065 17.1694 12.4368 17.0324 11.8519 17.0553C11.5709 17.0705 11.2367 17.2226 10.9936 17.2302C10.7202 17.2302 10.4163 17.0857 10.1277 17.0857C9.83908 17.0857 9.55044 17.1846 9.26941 17.1998C8.9428 17.215 8.61621 17.1542 8.2972 17.1618C7.65917 17.1618 7.09709 17.2987 6.48185 17.4052C5.95016 17.4965 5.38812 17.4052 4.84884 17.466C4.25638 17.5193 3.72468 17.5497 3.12463 17.5497C2.41825 17.5497 1.80299 17.6714 1.11179 17.8007C0.306665 17.9529 -0.156635 18.9265 0.0484445 19.6719C0.283907 20.5239 1.1042 20.8814 1.91692 20.7369H1.92452Z" fill="white"/>
<path d="M27.0808 18.2875C27.2934 18.2419 27.5061 18.1126 27.7112 18.0898C27.6505 18.0898 28.0834 18.1278 28.1821 18.1278C28.6986 18.1126 29.1847 18.0365 29.7012 18.0365C30.1798 18.0365 30.6431 17.9376 31.1216 17.93C31.114 17.93 31.7217 17.9452 31.4482 17.9148C31.7444 17.9452 32.0331 18.0517 32.3369 18.0517C32.6104 18.0517 32.8838 17.9528 33.1496 17.9528C33.3471 17.9528 33.5598 17.9985 33.7573 18.0213C34.2282 18.0746 34.6991 18.143 35.1777 18.1354C35.6562 18.1278 36.1195 18.1963 36.5904 18.2343C36.8487 18.2571 37.1069 18.2875 37.3576 18.2799C37.5475 18.2571 37.7374 18.2343 37.9272 18.2039C37.7981 18.2191 37.8285 18.2191 38.0184 18.2191C39.9704 18.2419 39.978 15.1992 38.0184 15.1764C37.9272 15.1764 37.0841 15.2449 37.3576 15.2373C37.0993 15.2373 36.8411 15.2145 36.5904 15.1917C36.1119 15.1536 35.6562 15.0852 35.1777 15.0928C34.6308 15.0928 34.0991 15.0091 33.5598 14.9559C33.3547 14.933 33.1572 14.9178 32.9522 14.933C33.2408 14.9102 32.0407 14.9939 32.4205 15.0167C31.9116 14.9863 31.433 14.8722 30.9165 14.8874C30.362 14.9026 29.838 14.9711 29.2911 14.9787C28.8126 14.9787 28.3493 15.0851 27.8707 15.0775C27.2783 15.0775 26.8225 15.2449 26.268 15.359C25.4629 15.5263 24.9996 16.4772 25.2047 17.2302C25.4326 18.0669 26.268 18.4549 27.0732 18.2951L27.0808 18.2875Z" fill="white"/>
<path d="M21.7431 23.7414C21.7811 25.0878 21.8646 26.3809 21.7355 27.7197C21.6823 28.2826 21.6443 28.8302 21.5912 29.3855C21.5304 30.0169 21.4848 30.7319 21.5152 31.3708C21.5228 31.6142 21.6671 31.9109 21.6747 32.1087C21.6747 32.4662 21.5456 32.8465 21.5456 33.2192C21.5456 33.8734 21.4924 34.5124 21.5152 35.1741C21.538 35.7522 21.4316 36.1706 21.3329 36.7106C21.2493 37.1594 21.3861 37.5017 21.3785 37.9429C21.3785 38.2168 21.2949 38.5134 21.2645 38.7949C21.1734 39.6164 22.0241 40.3162 22.7837 40.3162C23.6799 40.3162 24.2116 39.6164 24.3028 38.7949C24.3407 38.445 24.4167 38.1103 24.4015 37.7528C24.3787 37.5474 24.3484 37.342 24.3104 37.1366C24.28 37.3876 24.2951 37.38 24.3711 37.1138C24.5914 36.5205 24.5838 35.8055 24.561 35.1817C24.5382 34.558 24.5762 33.881 24.5914 33.2268C24.599 32.8541 24.7205 32.489 24.7205 32.1163C24.7205 31.8348 24.5838 31.5382 24.5686 31.2796C24.4926 30.2146 24.6826 28.99 24.7813 27.9174C24.9104 26.5102 24.842 25.1639 24.8041 23.7491C24.7509 21.7942 21.7127 21.7866 21.7658 23.7491L21.7431 23.7414Z" fill="white"/>
</svg>
