<svg width="30" height="27" viewBox="0 0 30 27" fill="none" xmlns="http://www.w3.org/2000/svg">
<path d="M14.7246 1.23471C14.6998 1.90419 14.6008 2.41249 14.5636 3.15636C14.5327 3.77625 14.5451 4.39615 14.5079 5.00984C14.4708 5.62353 14.5327 6.24962 14.5141 6.86951C14.4956 7.58859 14.4584 8.19608 14.4089 8.79118C14.3594 9.44206 15.0155 10.062 15.6469 10.031C16.3587 9.99996 16.8291 9.48545 16.8849 8.79118C16.8972 8.6362 16.8972 8.60521 16.8849 8.71059C16.9034 8.55562 16.9282 8.40064 16.9468 8.24567C16.9592 8.10929 16.9591 7.97291 16.9591 7.83034C16.9591 7.50799 16.9715 7.19186 16.9777 6.86951C16.9963 6.24962 16.9282 5.62973 16.9715 5.00984C17.0149 4.38995 16.9963 3.77625 17.0273 3.15636C17.0334 3.01998 17.0458 2.88362 17.052 2.74724C17.0644 2.59227 17.0644 2.56127 17.052 2.66666C17.0706 2.57367 17.0892 2.48689 17.1077 2.3939C17.1696 2.00957 17.1758 1.62523 17.1944 1.2409C17.2191 0.590011 16.6063 -0.0298791 15.9564 0.00111546C15.2631 0.03211 14.7431 0.546619 14.7184 1.2409L14.7246 1.23471Z" fill="white"/>
<path d="M1.58076 14.8351C2.39164 14.6739 3.20871 14.5685 4.0134 14.3639C4.23004 14.3082 4.03817 14.3206 4.29815 14.3391C4.55812 14.3577 4.5705 14.3392 4.72525 14.3702C5.20188 14.4817 5.54849 14.4011 6.01892 14.3763C6.39032 14.3577 6.57602 14.4445 6.91647 14.5251C7.28786 14.6181 7.6902 14.6429 8.06778 14.7111C8.96532 14.8661 9.87524 14.959 10.779 15.083C11.4413 15.1698 12.017 14.4507 12.017 13.8432C12.017 13.0994 11.4475 12.6902 10.779 12.6035C9.98047 12.4981 9.18198 12.3927 8.38348 12.2625C7.58498 12.1323 6.73078 11.8472 5.83943 11.903C6.02513 11.8906 5.12759 11.9526 5.37519 11.9774C5.17092 11.9588 4.97904 11.8906 4.76859 11.872C4.29815 11.8348 3.79673 11.8286 3.33868 11.9712C2.60827 12.1943 1.72311 12.2811 0.906045 12.4423C0.249914 12.5725 -0.127648 13.3535 0.0394794 13.9672C0.225177 14.6491 0.906044 14.9652 1.56217 14.8351H1.58076Z" fill="white"/>
<path d="M14.7446 18.7714C14.7261 19.0504 14.6827 19.3231 14.6704 19.6021C14.6642 19.7199 14.658 19.8376 14.6518 19.9554C14.6518 19.9988 14.6084 20.4761 14.6394 20.2158C14.6022 20.5319 14.5404 20.8233 14.5651 21.1394C14.5837 21.2882 14.6023 21.4369 14.627 21.5857C14.6147 21.4555 14.6085 21.4618 14.6146 21.6167C14.5837 21.8895 14.6456 21.4617 14.6023 21.7593C14.5156 22.342 14.4661 22.9309 14.4784 23.5136C14.4784 23.7925 14.4846 24.0715 14.4908 24.3442C14.4908 24.5426 14.5094 24.71 14.5466 24.9145C14.5528 24.9641 14.6146 25.4353 14.5961 25.1811C14.6456 25.8258 15.1346 26.4519 15.834 26.4209C16.4654 26.3899 17.1215 25.8754 17.072 25.1811C17.0535 24.9517 17.0163 24.7224 16.9792 24.493C16.9297 24.2327 16.9544 24.6294 16.973 24.3504C16.9916 24.0715 16.9606 23.7925 16.9606 23.5198C16.9606 23.2842 16.9482 23.0425 16.973 22.8069C16.9916 22.6457 17.0163 22.4908 17.0225 22.3296C17.0349 22.0568 16.9916 22.4784 17.0349 22.187C17.103 21.7531 17.0844 21.4308 17.0349 20.9906C17.0225 20.8976 17.0225 20.91 17.0349 21.0216C17.0349 20.941 17.0349 20.8604 17.0349 20.7861C17.0163 21.1456 17.1154 20.1972 17.0844 20.4327C17.1463 19.8872 17.1711 19.3231 17.2144 18.7714C17.2639 18.1205 16.6078 17.5006 15.9764 17.5316C15.2646 17.5626 14.7942 18.0771 14.7384 18.7714H14.7446Z" fill="white"/>
<path d="M21.6141 15.3807C21.7565 15.3807 21.7441 15.3807 21.5832 15.3683C21.6512 15.3807 21.7193 15.3931 21.7812 15.4055C21.9422 15.4303 22.1402 15.4675 22.3074 15.4613C22.5364 15.4613 22.7592 15.3993 22.9821 15.3745C22.7592 15.3931 23.0502 15.3745 23.1182 15.3745C23.731 15.3249 24.3501 15.3621 24.9567 15.2505C25.0248 15.2381 25.3095 15.2009 25.0866 15.2133C25.2414 15.2009 25.3961 15.2133 25.5509 15.2133C25.8232 15.2133 26.0956 15.1947 26.3618 15.1823C26.6279 15.1699 26.9065 15.2133 27.1788 15.2009C27.3583 15.1947 27.5317 15.1637 27.705 15.1327C27.7731 15.1203 28.2002 15.0521 27.8721 15.0831C28.5158 15.0211 29.141 14.5562 29.1101 13.8433C29.0853 13.2235 28.5654 12.5354 27.8721 12.6036C27.6616 12.6222 27.4512 12.6532 27.2469 12.6965C27.1974 12.7089 27.1479 12.7213 27.0984 12.7275C27.0055 12.7461 27.0303 12.7461 27.1788 12.7213C27.0798 12.7771 26.8198 12.7028 26.7146 12.7028C26.597 12.7028 26.4856 12.7028 26.3679 12.7028C25.7551 12.7213 25.1362 12.6904 24.5296 12.8019C24.4615 12.8143 24.1767 12.8515 24.3996 12.8391C24.2448 12.8453 24.0901 12.8391 23.9353 12.8391C23.663 12.8391 23.3968 12.8701 23.1244 12.8949C23.0068 12.9011 22.8954 12.9135 22.7778 12.9259C22.6292 12.9445 22.4807 12.9631 22.3321 12.9879C22.4683 12.9693 22.4621 12.9693 22.3136 12.9879H22.2145C22.3755 13.0065 22.3878 13.0065 22.2455 12.9817C22.0412 12.9321 21.8246 12.9073 21.6141 12.9073C20.9642 12.8949 20.3452 13.4838 20.3761 14.1471C20.4071 14.8104 20.9208 15.3745 21.6141 15.3869V15.3807Z" fill="white"/>
</svg>
