<svg width="329" height="140" viewBox="0 0 329 140" fill="none" xmlns="http://www.w3.org/2000/svg">
<path d="M52.1011 62.7948C51.5804 62.8614 51.1705 62.8586 50.7966 62.9695C46.6504 64.2115 42.5014 65.4424 38.3719 66.7399C37.2585 67.0892 36.9012 66.8674 36.8929 65.6642C36.8818 64.1034 36.6547 62.5453 36.2974 60.9069C35.5967 62.8059 34.9209 64.7161 34.1897 66.6012C31.3397 73.9562 29.1018 81.5246 26.4706 88.9572C26.1023 89.9941 25.5733 90.2242 24.5928 89.836C24.1358 89.6558 23.6151 89.6198 23.1193 89.5699C20.7097 89.3259 18.2946 89.1374 15.8905 88.8519C15.043 88.7521 14.9461 88.12 15.2092 87.3853C17.8237 80.0636 20.43 72.7392 23.0473 65.4202C23.2634 64.8159 23.5846 64.2531 23.8173 63.6543C24.0832 62.9667 23.8838 62.4954 23.0833 62.6867C21.6874 63.0194 20.2998 63.4075 18.9316 63.8428C16.7574 64.5359 14.6192 65.3454 12.4367 66.0052C9.36795 66.9367 6.26869 67.7711 3.18883 68.6638C2.83985 68.7636 2.53242 69.0575 2.18621 69.0991C1.77353 69.1462 1.32208 69.0686 0.934322 68.9217C0.856772 68.8939 0.981407 68.3117 1.02295 67.9846C1.05896 67.6907 1.20575 67.3664 1.1282 67.1086C0.712749 65.7085 0.831845 65.0903 0.903856 63.2079C0.95094 61.9992 0.532721 60.7267 0.114502 59.5568C-0.217858 58.6308 0.21421 58.337 0.884468 58.1623C3.44087 57.4942 6.00558 56.851 8.57859 56.2383C10.7251 55.7254 12.891 55.2985 15.0319 54.7717C15.8739 54.5638 16.6577 54.1397 17.4941 53.9012C20.8399 52.942 24.1967 52.0244 27.5425 51.0652C27.9136 50.9598 28.3651 50.7713 28.5617 50.4774C29.1461 49.5903 29.7333 49.3408 30.531 50.1863C30.5614 50.2196 30.6057 50.2806 30.6334 50.275C33.2314 49.7372 34.9735 52.2933 37.4967 52.1547C38.8843 52.0798 39.2388 52.82 38.6544 54.1397C38.2001 55.171 37.7598 56.2078 37.1283 57.6771C38.9507 57.2557 40.3633 57.0035 41.7342 56.5987C45.2988 55.5452 48.8329 54.4003 52.4002 53.3523C53.2727 53.0973 53.6604 52.6592 53.8155 51.7666C54.6298 47.0508 55.4745 42.3407 56.3664 37.6416C56.9148 34.7501 57.6016 31.8835 58.1473 28.9919C58.3162 28.0965 58.6292 27.8331 59.5293 28.0189C62.3018 28.5955 65.077 29.1832 67.8743 29.5991C69.1622 29.7904 69.2592 30.4114 69.0182 31.4066C68.0239 35.493 67.0157 39.5767 66.0491 43.6714C65.8636 44.4615 65.9051 45.307 65.7057 46.0916C65.581 46.5851 65.2016 47.012 64.9468 47.45C65.0631 47.694 65.4675 48.1348 65.3899 48.4592C64.9717 50.2141 65.2099 52.1907 64.0799 53.6878C64.127 54.2228 64.3153 54.8715 64.2184 55.4731C63.5537 59.6011 62.7837 63.7152 62.1328 67.846C61.4487 72.2069 60.856 76.5844 60.2301 80.9563C59.9891 82.6363 59.7232 84.3136 59.5515 86.0019C59.4379 87.1164 59.2496 87.7429 57.8204 87.8871C55.0342 88.1671 52.2839 88.8241 49.5281 89.3675C48.5005 89.5699 48.0989 89.1263 48.3039 87.9315C48.6667 85.8134 49.0046 83.6898 49.4062 81.2474C47.1102 81.91 45.0994 82.4617 43.1052 83.0771C40.7289 83.809 38.3636 84.5659 36.0093 85.3643C34.9901 85.7108 34.7879 85.2007 34.7491 84.3746C34.6522 82.2648 34.09 80.1496 34.871 78.0509C34.9209 77.9151 34.8184 77.6905 34.7298 77.5408C34.0207 76.3432 34.9043 76.0992 35.7407 75.8746C39.6376 74.8267 43.5373 73.7982 47.4342 72.7586C47.5228 72.7336 47.6059 72.6671 47.6918 72.6643C50.082 72.5423 51.0874 71.2781 51.1982 68.8967C51.2924 66.9062 51.7743 64.9323 52.1094 62.7948H52.1011ZM14.8602 63.9176C15.8074 62.7283 21.4298 61.1093 22.6568 61.6748C22.6097 60.8071 22.2718 60.4578 21.3634 60.796C20.5962 61.0815 19.7819 61.2368 18.9898 61.4614C17.3529 61.9216 15.7188 62.3901 14.021 62.8697C14.3617 63.2911 14.6109 63.6044 14.863 63.9176H14.8602ZM25.4929 58.0569C25.4265 57.7769 25.3628 57.4969 25.2963 57.2142C24.5014 57.4276 23.7065 57.6439 22.9116 57.8573C22.9615 58.0847 23.0141 58.3092 23.0639 58.5366C23.8754 58.3758 24.6842 58.215 25.4957 58.0542L25.4929 58.0569ZM6.26316 64.0341L6.25485 63.5434C5.09436 63.7624 3.9311 63.9842 2.77061 64.2032C2.79554 64.3473 2.81769 64.4915 2.84262 64.6357L6.26316 64.0341Z" fill="#F15583"/>
<path d="M42.2816 127.121C45.7271 125.898 48.8347 124.781 51.9533 123.694C57.2988 121.831 62.6553 119.999 67.998 118.128C69.9478 117.443 71.8755 116.689 73.8087 115.957C74.9166 115.538 75.3154 115.865 75.4207 116.977C75.6533 119.392 75.8971 121.812 76.354 124.191C76.5479 125.205 76.2654 125.502 75.4345 125.776C69.8897 127.62 64.3088 129.364 58.8276 131.379C51.8868 133.933 45.0319 136.716 38.1382 139.389C37.432 139.663 36.8725 139.713 36.5346 138.734C36.3352 138.158 35.7065 137.697 35.2024 137.262C34.413 136.577 33.5655 135.956 32.7429 135.31C32.8454 135.211 32.9451 135.108 33.0476 135.008C32.6875 135.152 32.3358 135.38 31.9646 135.416C31.7015 135.441 31.4107 135.208 31.1337 135.091C32.0477 133.919 30.4995 132.81 31.1448 131.46C31.732 130.237 31.6018 128.668 31.7708 127.249C31.9951 125.38 32.2084 123.509 32.4106 121.637C32.4327 121.424 32.369 121.202 32.3746 121.249C31.4689 121.133 30.6934 121.033 29.9179 120.933C30.0342 120.587 30.1505 120.24 30.2585 119.919C29.9566 119.774 29.5107 119.564 28.8266 119.237C30.2475 118.546 31.3498 117.812 32.3524 119.517C32.5352 118.527 32.718 117.537 32.9756 116.145C32.0173 116.825 31.3775 117.279 30.7349 117.731C30.2114 116.855 29.9677 116.966 28.7712 118.646C28.2422 117.024 28.3696 116.886 29.9594 116.614C31.0839 116.423 32.1751 116.048 33.2415 115.638C31.4439 115.098 29.8569 116.997 27.7188 115.818C28.2727 115.405 28.5967 115.02 29.0039 114.887C32.8786 113.603 36.7617 112.342 40.6559 111.111C43.3286 110.268 46.0151 109.464 48.7045 108.685C49.444 108.472 49.8594 108.15 50.0007 107.321C50.3054 105.527 50.7485 103.759 51.1861 101.74C48.3998 102.447 45.9099 103.057 43.4311 103.709C39.0273 104.865 34.6291 106.046 30.2281 107.213C29.4996 107.407 29.0814 107.188 29.026 106.365C28.8875 104.299 28.7186 102.237 28.5552 100.174C28.522 99.7666 28.5303 99.3369 28.3945 98.9626C28.101 98.1559 28.4859 97.8648 29.1811 97.7095C31.9563 97.0885 34.7371 96.4925 37.5012 95.8216C42.6362 94.5796 47.8293 93.5067 52.8535 91.9071C54.6233 91.3443 56.0912 90.9589 57.9302 91.2971C59.0436 91.5023 60.3094 90.8924 61.6554 90.6179C61.5973 91.1724 61.5447 91.6492 61.4782 92.2591C61.877 92.2369 62.2786 92.2536 62.6664 92.1898C63.813 92.0041 64.2395 92.492 63.9626 93.6398C62.539 99.5365 61.0683 105.422 59.761 111.344C59.4674 112.669 59.0436 113.074 57.6837 113.271C55.3794 113.606 53.1415 114.399 50.8648 114.959C48.9953 115.416 47.0926 115.743 45.248 116.276C44.7162 116.428 44.021 117.024 43.9213 117.521C43.3037 120.62 42.8356 123.747 42.2733 127.127L42.2816 127.121ZM48.9344 113.678C48.879 113.462 48.8236 113.246 48.7682 113.027C47.0178 113.52 45.2673 114.016 43.5169 114.51C43.5585 114.668 43.5972 114.826 43.6388 114.984C45.4031 114.549 47.1673 114.113 48.9344 113.675V113.678Z" fill="#F15583"/>
<path d="M315.284 12.3414C315.232 12.8182 315.248 13.3145 315.118 13.7691C314.705 15.2052 313.83 16.5498 314.235 17.9942C313.744 18.2769 313.229 18.5736 312.717 18.8674C312.803 18.9922 312.886 19.1142 312.972 19.2389C313.152 19.0504 313.332 18.8591 313.509 18.6706C315.461 19.3665 313.085 20.7027 313.971 21.5511C313.44 21.7285 312.941 21.892 312.418 22.0667V23.4972C312.844 23.3059 313.149 23.1673 313.456 23.0287C313.598 23.1729 313.739 23.3142 313.88 23.4584C313.34 23.6275 312.797 23.7966 312.11 24.0101C312.797 24.6228 313.08 24.8778 313.47 25.2271C312.955 25.4406 312.551 25.6069 312.047 25.8149C312.318 26.2751 312.584 26.7242 312.902 27.2648C312.739 27.3341 312.47 27.4505 312.113 27.6086C312.071 27.9801 313.708 28.3155 312.177 28.6981C312.808 29.807 313.625 29.8791 314.678 29.6324C318.12 28.8256 321.582 28.1076 325.031 27.3286C325.604 27.1983 326.147 26.9266 326.704 26.7214C327.77 26.3278 328.484 26.8517 328.302 27.9662C328.213 28.5179 327.908 29.0335 327.726 29.5741C327.673 29.7322 327.673 29.929 327.706 30.0953C328.036 31.7338 328.412 33.3667 328.703 35.0107C328.842 35.7869 329.146 36.8404 328.784 37.3089C328.415 37.783 327.31 37.6554 326.543 37.8523C324.153 38.4594 321.763 39.061 319.389 39.7236C316.924 40.4111 314.492 41.2096 312.022 41.8694C311.002 42.1411 310.426 42.751 310.52 43.6991C310.681 45.307 310.183 46.5352 308.684 47.4916C310.332 47.4916 310.473 48.0489 309.606 50.4192H307.554C307.446 51.1345 307.346 51.786 307.28 52.2351C307.845 51.7721 308.449 51.2759 309.052 50.7796C309.185 50.86 309.316 50.9404 309.449 51.0208C309.468 51.3978 309.543 51.7832 309.496 52.1519C308.74 58.068 307.956 63.9786 307.205 69.8975C307.078 70.9094 306.718 71.3447 305.585 71.1867C304.699 71.0619 303.762 71.2948 302.848 71.3835C301.009 71.5609 299.173 71.7799 297.329 71.9158C296.309 71.9906 296.082 71.2754 296.207 70.4464C296.822 66.3379 297.495 62.2348 298.09 58.1235C298.935 52.3182 299.741 46.5047 300.544 40.6939C301.513 33.6883 302.391 26.6715 303.449 19.6797C304.311 13.9826 305.383 8.31599 306.358 2.63551C306.457 2.04778 306.407 1.3852 306.671 0.886178C306.887 0.475875 307.496 -0.0342325 307.884 0.00180762C310.698 0.265178 313.501 0.653299 316.306 1.00261C317.547 1.15786 317.874 1.65688 317.594 2.87393C316.963 5.61852 316.375 8.37144 315.711 11.1077C315.617 11.4986 315.201 11.8091 314.935 12.1584C315.052 12.2194 315.168 12.2832 315.284 12.3442V12.3414Z" fill="#F15583"/>
<path d="M294.704 19.2029C297.202 19.2195 295.233 20.7803 295.449 21.6536C297.169 22.136 295.953 22.9427 295.737 23.475C296.094 23.877 296.388 24.2097 296.681 24.5396C296.291 24.7586 295.923 25.0719 295.502 25.1717C294.768 25.3463 294.003 25.3796 293.255 25.4933C292.211 25.654 291.156 25.776 290.134 26.0283C289.53 26.178 289.007 26.6354 288.403 26.8018C286.412 27.3562 284.403 27.8608 282.393 28.3432C281.479 28.5622 281.085 28.9697 281.011 30.0094C280.903 31.5064 280.393 32.9702 280.174 34.4645C279.568 38.6091 279.044 42.7676 278.438 46.9122C278.319 47.7189 277.956 48.4869 277.731 49.2798C277.474 50.1863 278.03 50.8073 278.928 50.5301C281.119 49.8509 283.293 49.119 285.461 48.3732C288.403 47.3585 291.33 46.3023 294.272 45.2848C295.014 45.027 295.452 45.2294 295.316 46.1332C295.189 46.9926 295.194 47.8825 294.964 48.7114C294.812 49.2603 294.349 49.7206 293.981 50.2889C294.183 50.2695 294.474 50.239 294.801 50.2085C294.859 50.3083 295.017 50.4746 294.984 50.5273C294.247 51.7333 295.125 52.9919 294.853 54.2089C294.815 54.3808 294.787 54.6082 294.867 54.7468C295.726 56.2272 295.169 56.6874 293.615 56.9785C292.059 57.2724 290.599 58.0652 289.068 58.5365C288.328 58.7639 287.514 58.7444 286.738 58.8581C286.472 58.8969 286.121 58.9219 285.974 59.0938C284.041 61.3643 281.047 61.417 278.604 62.6118C276.18 63.7984 273.605 64.6717 271.137 65.7723C269.494 66.5069 269.115 66.3212 269.046 64.5192C269.012 63.6792 268.904 62.8447 268.821 61.9188C268.83 61.9271 268.763 61.8106 268.694 61.8106C266.93 61.794 266.667 61.5334 267.517 59.9449C268.276 58.5282 267.384 57.3555 267.376 56.0692C267.376 55.7614 267.16 55.4149 267.245 55.1515C268.774 50.5023 268.4 45.612 269.079 40.8547C269.469 38.1239 269.63 35.3627 269.929 32.2494C268.893 32.6098 268.029 32.8926 267.179 33.2086C265.797 33.7243 265.636 33.5219 265.581 32.0082C265.528 30.5583 265.179 29.1194 265.049 27.6695C265.005 27.1816 265.226 26.6715 265.345 26.0865C265.29 26.0255 264.933 25.8121 264.85 25.521C264.678 24.9194 264.553 24.2679 264.606 23.6524C264.636 23.3114 265.01 22.8013 265.32 22.7154C267.129 22.2302 268.979 21.8976 270.793 21.4263C273.663 20.6805 276.518 19.8738 279.374 19.0781C282.689 18.1549 285.999 17.2096 289.314 16.2864C291.294 15.7347 293.283 15.2163 295.269 14.6784C296.019 14.4761 296.307 14.8115 296.266 15.5295C296.219 16.3086 296.313 17.1403 296.061 17.8472C295.875 18.3601 295.227 18.7066 294.709 19.2001L294.704 19.2029ZM275.651 26.3055C275.69 26.4608 275.726 26.616 275.762 26.7713C277.031 26.4636 278.302 26.1558 279.57 25.8481C279.543 25.7344 279.512 25.6208 279.485 25.5071C278.208 25.7733 276.928 26.0394 275.651 26.3055Z" fill="#F15583"/>
<path d="M90.169 96.0905C83.5938 98.0588 77.3565 99.9079 71.1359 101.81C70.1332 102.115 69.6624 102.009 69.6375 100.853C69.5821 98.3693 69.4685 95.8853 69.3633 93.4013C69.355 93.1879 69.2719 92.9716 69.186 92.772C68.7927 91.835 69.2193 91.4357 70.1028 91.1973C73.6812 90.2353 77.2457 89.2234 80.8214 88.2476C84.0564 87.3632 87.3024 86.5176 90.5346 85.625C92.1742 85.1731 93.908 84.8653 95.3732 84.0725C95.9687 83.7509 96.0379 82.3259 96.1681 81.3778C96.193 81.1976 95.376 80.718 94.9328 80.6958C92.922 80.5904 91.5483 79.3263 90.133 78.1702C88.4573 76.8007 86.8149 75.384 85.2196 73.923C82.8155 71.719 81.5498 68.5974 83.4027 64.3446C85.2252 60.1667 88.0059 56.9453 92.5537 55.5786C92.8611 55.4871 93.1076 55.1489 93.3513 54.8966C94.4924 53.7267 95.4397 52.2407 96.7913 51.4312C99.9792 49.5183 103.452 48.5424 107.222 49.6902C108.767 50.1587 110.058 50.9322 111.027 52.274C112.398 54.1702 113.966 55.9362 115.229 57.899C116.364 59.6622 116.821 61.7137 116.412 63.8234C115.694 67.5134 113.659 70.4964 111.135 73.1689C110.16 74.2002 109.005 75.0624 107.995 76.066C107.698 76.3599 107.54 76.8533 107.449 77.2831C107.205 78.4336 107.031 79.6007 106.79 80.9869C110.734 79.9306 114.453 78.927 118.176 77.9401C122.089 76.9005 126.003 75.8636 129.922 74.8462C130.77 74.6272 131.639 74.4969 132.498 74.3278C132.492 75.1733 132.467 76.0189 132.487 76.8644C132.503 77.7017 132.633 78.5445 132.57 79.3734C132.545 79.695 132.121 79.9833 132.013 80.1191C132.332 80.4878 132.794 80.79 132.897 81.1837C133.124 82.0598 133.301 82.9913 133.229 83.8784C133.199 84.2693 132.564 84.7822 132.107 84.9291C131.116 85.2479 130.044 85.3117 129.03 85.5723C124.433 86.7505 119.838 87.9454 115.251 89.1708C113.354 89.6781 111.49 90.3102 109.59 90.8147C107.277 91.433 104.951 92.0013 102.619 92.5363C101.957 92.6888 101.646 92.8274 101.613 93.6564C101.563 94.8817 101.167 96.0877 100.946 97.3075C100.339 100.64 99.7465 103.978 99.1012 107.582C100.015 107.332 100.694 107.169 101.361 106.961C105.917 105.552 110.465 104.127 115.024 102.725C120.383 101.078 125.748 99.4533 131.107 97.8038C131.808 97.5875 132.467 97.241 133.162 96.997C134.329 96.5895 134.641 96.839 134.669 98.0505C134.7 99.3202 134.705 100.598 134.863 101.857C135.035 103.224 135.209 104.626 135.68 105.904C136.076 106.983 135.625 107.235 134.819 107.454C131.539 108.336 128.232 109.134 124.981 110.11C120.585 111.43 116.237 112.896 111.861 114.274C109.039 115.164 106.172 115.924 103.378 116.891C99.741 118.147 96.1626 119.569 92.5454 120.883C91.1051 121.407 90.9639 121.108 90.5263 119.7C90.1108 118.369 89.1691 117.21 88.5903 115.918C88.0973 114.815 87.6015 113.648 87.4769 112.469C87.4021 111.776 88.2275 111.03 88.3382 110.265C88.8146 107.024 89.1719 103.767 89.5791 100.518C89.7508 99.1567 89.9447 97.801 90.1773 96.0988L90.169 96.0905ZM95.8994 63.4658C93.3375 65.2567 91.2824 68.5225 90.5484 71.877C90.0305 74.2501 90.4903 74.7769 92.875 74.3721C98.5001 73.4157 102.862 70.355 106.46 66.069C108.139 64.0674 109.413 61.8412 110 59.263C110.327 57.8241 109.997 57.4277 108.554 57.8158C107.274 58.1596 105.975 58.581 104.818 59.2103C102.278 60.5937 100.27 62.4761 99.6828 65.5118C99.6219 65.8251 99.212 66.2187 98.899 66.2908C98.5888 66.3601 98.0902 66.1661 97.8631 65.9165C97.1596 65.1403 96.5448 64.2836 95.8994 63.4658Z" fill="#F15583"/>
<path d="M107.502 36.7462C108.688 36.4662 109.865 36.1613 111.056 35.9145C112.125 35.6927 113.227 35.6096 114.277 35.3212C114.836 35.1688 115.277 34.581 115.836 34.4202C117.764 33.8658 119.719 33.4139 121.993 32.8372C121.788 33.5664 121.666 33.9933 121.511 34.5394C122.456 34.7058 123.395 34.8693 124.331 35.0329C124.347 34.8888 124.364 34.7446 124.378 34.6004H123.256C123.24 34.5311 123.223 34.459 123.206 34.3897C123.802 34.1846 124.392 33.96 124.996 33.7826C126.117 33.4527 126.214 33.0784 125.234 32.0028C125.693 31.9113 126.042 31.842 126.394 31.7727C126.455 32.0943 126.599 32.4269 126.56 32.7347C126.225 35.3905 126.386 38.0215 126.893 40.6413C127.059 41.5035 126.524 41.7502 125.815 41.911C120.849 43.0477 115.919 44.3701 110.912 45.2683C108.92 45.6259 107.065 46.2525 105.148 46.7681C104.774 46.868 104.309 46.6295 104.148 46.599C102.661 47.1729 101.343 47.7911 99.9605 48.1876C98.1187 48.7199 96.2326 49.1108 94.352 49.5016C93.1111 49.7595 91.8426 49.8925 90.5935 50.1171C90.1614 50.1947 89.7377 50.3528 89.3305 50.5219C88.832 50.727 88.3445 51.1983 87.8682 51.1789C86.018 51.1013 84.4393 52.0882 82.6917 52.3433C81.6226 52.5013 80.5341 52.4625 79.5592 53.089C79.4318 53.1694 78.6452 52.6676 78.6396 52.4209C78.6009 50.9072 78.756 49.3852 78.7255 47.8715C78.7033 46.8402 78.695 45.7202 78.2934 44.8109C77.8614 43.8295 78.3461 43.5689 78.9859 43.4358C82.2928 42.7511 85.6164 42.1605 88.9206 41.4702C89.6934 41.3094 90.3913 40.8298 91.153 40.5914C92.992 40.012 94.8477 39.4991 96.8336 39.4492C96.8253 38.1185 98.3957 39.1526 99.3152 38.2211C97.7448 38.3985 96.5538 38.5593 95.3546 38.6536C94.8782 38.6896 94.3353 38.6813 93.9282 38.4789C93.7205 38.3763 93.6429 37.7803 93.69 37.4365C94.3658 32.6986 95.0804 27.9635 95.7728 23.2256C95.903 22.3412 96.2963 22.0224 97.1909 22.344C97.6949 22.5242 98.2516 22.6185 98.7862 22.6296C100.983 22.6795 103.179 22.7127 105.375 22.6961C106.541 22.6878 106.912 23.0315 106.624 24.2791C105.766 28.0023 105.029 31.756 104.276 35.5042C104.179 35.9866 104.262 36.5022 104.262 37.0484C105.381 36.9569 106.455 36.8682 107.533 36.7822C106.406 37.2702 105.278 37.7581 104.151 38.246C104.19 38.3209 104.229 38.3985 104.27 38.4734C105.53 38.2155 106.791 37.9549 108.051 37.6971C108.031 37.6195 108.012 37.5419 107.993 37.4615C107.774 37.5031 107.555 37.5419 107.331 37.5835C107.394 37.2563 107.447 36.9957 107.5 36.7351L107.502 36.7462ZM100.39 38.6841C100.398 38.9363 100.406 39.1886 100.415 39.4381C101.456 39.2829 102.498 39.1276 103.539 38.9724C103.536 38.8282 103.533 38.6868 103.528 38.5427C102.481 38.5898 101.437 38.6369 100.39 38.6841Z" fill="#F15583"/>
<path d="M256.566 31.6618C256.851 31.8503 257.139 32.0443 257.521 32.2994C257.1 32.7929 256.732 33.2253 256.355 33.6634C257.441 34.4119 257.181 35.909 255.804 37.0123C257.039 38.6092 256.923 39.3577 255.444 41.0433C255.663 42.1217 256.028 42.9091 255.912 43.6188C255.779 44.4255 255.22 45.1602 254.785 46.0473C256.485 47.1618 255.228 49.0525 255.153 50.6494C255.006 53.7932 254.477 56.9204 254.117 60.0559C253.635 64.2393 253.145 68.4255 252.694 72.6117C252.55 73.9563 252.494 75.3147 252.431 76.6676C252.383 77.7155 251.976 78.2146 250.852 77.9401C250.47 77.8486 250.029 77.8985 249.63 77.9678C247.304 78.3698 244.983 78.8078 242.654 79.2043C241.831 79.3457 241.33 78.5666 241.463 77.6407C241.914 74.4858 242.338 71.3253 242.731 68.1621C243.113 65.0738 243.457 61.9771 243.798 58.8832C244.086 56.2439 244.302 53.5964 244.626 50.9627C245.476 44.0679 246.321 37.1731 247.257 30.2895C248.096 24.1294 249.029 17.9804 250.007 11.8425C250.087 11.3407 250.821 10.5533 251.242 10.5589C253.289 10.5921 255.336 10.8389 257.38 11.0413C258.017 11.105 258.64 11.3213 259.277 11.3684C260.717 11.4793 261.047 11.8896 260.717 13.3035C260.033 16.2394 259.244 19.1586 258.69 22.1194C258.255 24.4537 258.189 26.8573 257.79 29.2027C257.646 30.0483 257.006 30.8107 256.566 31.659V31.6618Z" fill="#F15583"/>
<path d="M222.303 58.3703C224.319 57.7215 225.953 57.1366 227.621 56.6708C230.324 55.914 233.055 55.2486 235.761 54.5029C236.342 54.3421 236.868 53.9817 237.436 53.7544C237.655 53.6656 237.99 53.5797 238.137 53.685C238.325 53.8209 238.483 54.1591 238.458 54.3892C238.439 54.5666 238.143 54.7524 237.929 54.8605C237.622 55.0185 237.281 55.11 237.054 55.5037C237.422 55.3845 237.791 55.2625 238.303 55.0962C238.336 55.573 238.364 55.9694 238.392 56.3659C238.539 58.5394 238.744 60.7101 238.785 62.8836C238.793 63.3383 238.278 64.0979 237.863 64.2171C236.076 64.73 234.232 65.0266 232.42 65.4591C231.501 65.6809 230.252 65.7474 229.775 66.3684C228.557 67.9542 226.809 67.8266 225.244 68.4088C221.821 69.6869 218.495 71.2338 215.152 72.7198C214.085 73.1939 213.601 72.9638 213.501 71.7911C213.437 71.0619 213.321 70.3245 213.108 69.6259C213.008 69.3015 212.57 69.0936 212.387 68.7748C212.122 68.3146 211.759 67.7934 211.778 67.311C211.82 66.2658 212.277 65.2151 212.21 64.1894C211.961 60.4412 212.792 56.7873 213.005 53.0807C213.218 49.3519 213.697 45.6398 214.06 41.9221C214.163 40.8714 214.202 39.8068 214.415 38.7783C214.492 38.4096 214.988 37.8579 215.301 37.8523C216.844 37.8246 218.389 37.9715 219.938 38.0159C221.356 38.0575 222.774 38.0381 224.192 38.0603C225.02 38.0741 225.175 38.6203 225.067 39.2967C224.438 43.2916 223.771 47.281 223.172 51.2787C222.843 53.491 222.624 55.7199 222.303 58.3703Z" fill="#F15583"/>
<path d="M177.544 88.1672C179.466 87.5795 181.375 86.9529 183.311 86.4151C185.28 85.869 187.288 85.4697 189.243 84.882C189.734 84.7351 190.343 84.1723 190.454 83.6982C191.719 78.2783 192.897 72.8363 194.107 67.4025C194.29 66.5847 194.603 65.9637 195.622 66.5098C195.852 66.6318 196.148 66.6457 196.417 66.6762C198.821 66.9534 201.222 67.2445 203.632 67.4829C204.623 67.58 204.95 68.0984 204.693 68.9772C203.701 72.3622 202.618 75.725 201.679 79.1239C201.239 80.7235 201.092 82.4036 200.718 84.0254C200.591 84.5826 200.181 85.0788 199.918 85.5668C199.981 85.8551 200.192 86.2682 200.139 86.648C200.001 87.6876 199.743 88.7106 199.549 89.7447C198.488 95.342 197.411 100.937 196.386 106.539C196.184 107.643 196.04 108.527 194.531 108.197C194.01 108.084 193.39 108.491 192.805 108.608C190.52 109.068 188.224 109.47 185.95 109.974C185.166 110.149 184.416 110.518 183.682 110.867C182.618 111.374 181.594 111.97 180.524 112.467C180.272 112.583 179.766 112.591 179.622 112.431C178.212 110.85 177.312 109.029 177.458 106.858C177.481 106.528 177.999 106.104 178.381 105.952C180.857 104.965 183.366 104.064 185.839 103.068C186.247 102.905 186.742 102.47 186.825 102.079C187.327 99.7028 187.723 97.3048 188.202 94.6461C186.62 95.1257 185.191 95.5249 183.787 95.9907C181.125 96.8695 178.467 97.7622 175.827 98.7131C175.489 98.8351 175.126 99.2925 175.046 99.6529C174.401 102.619 173.794 105.597 173.24 108.58C173.107 109.29 172.93 109.661 172.124 109.589C169.939 109.389 167.751 109.168 165.56 109.109C164.466 109.082 164.322 108.619 164.463 107.745C166.07 97.8287 167.662 87.9121 169.313 78.0039C169.371 77.649 169.983 77.114 170.324 77.1251C172.703 77.1944 175.077 77.4189 177.456 77.527C179.115 77.6019 179.383 77.9179 179.012 79.5314C178.378 82.2982 177.774 85.0733 177.157 87.8456C177.284 87.951 177.414 88.0591 177.542 88.1644L177.544 88.1672Z" fill="#F15583"/>
<path d="M193.583 26.5246C193.583 27.4006 193.685 28.2933 193.547 29.1472C193.455 29.7155 193.023 30.2312 192.71 30.8328C194.281 31.6062 192.148 32.6209 192.655 33.7049C195.422 34.3564 198.022 33.1809 200.67 32.5765C202.9 32.0664 205.071 31.3013 207.281 30.6941C207.963 30.5056 208.483 30.5638 208.575 31.5591C208.835 34.4728 209.248 37.3754 209.503 40.2891C209.533 40.6412 209.029 41.2983 208.666 41.3898C206.066 42.0412 203.415 42.4931 200.825 43.1862C198.175 43.8959 195.566 44.7803 192.96 45.6508C191.918 45.9973 190.979 46.488 191.306 47.9463C191.561 49.0857 191.788 50.2972 190.902 50.8156C191.073 51.6695 191.317 52.2406 191.273 52.7868C191.082 55.1765 190.796 57.5607 190.564 59.9477C190.306 62.562 190.115 65.1846 189.777 67.7905C189.716 68.2563 189.135 68.9189 188.686 69.0215C186.027 69.6369 183.324 70.0528 180.665 70.6627C178.989 71.048 178.668 70.7348 178.898 68.966C179.297 65.9137 179.557 62.8447 179.887 59.7813C180.504 54.0343 181.116 48.2873 181.759 42.543C182.402 36.7849 183.058 31.024 183.753 25.2715C184.155 21.9336 184.617 18.6041 185.144 15.2828C185.196 14.9474 185.869 14.4622 186.249 14.465C188.431 14.4899 190.614 14.6369 192.793 14.7561C193.566 14.7977 194.367 14.7672 195.095 14.9806C195.436 15.0804 195.909 15.7264 195.851 16.0369C195.339 18.7149 194.71 21.3708 194.137 24.0378C194.04 24.4952 194.034 24.9693 193.984 25.4378C193.948 25.7733 193.904 26.1087 193.862 26.4469C193.771 26.4747 193.682 26.5024 193.591 26.5273L193.583 26.5246Z" fill="#F15583"/>
<path d="M174.113 57.0478C173.794 59.8728 173.279 62.6923 171.568 65.1624C170.127 67.2389 168.9 69.49 167.28 71.4112C164.336 74.9044 160.708 77.5297 156.282 78.902C153.315 79.8197 150.551 79.5092 148.142 77.4105C146.131 75.6584 143.946 74.0477 142.204 72.0544C139.39 68.8302 139.561 65.021 141.029 61.2535C142.589 57.2447 145.045 53.9428 148.995 51.9385C149.38 51.7444 149.784 51.3979 149.967 51.0208C152.335 46.0944 156.681 44.029 161.691 43.4884C164.832 43.1502 167.333 45.0548 169.197 47.622C170.005 48.7364 170.714 49.9895 171.739 50.8628C173.686 52.5234 173.83 54.733 174.116 57.0506L174.113 57.0478ZM152.401 59.3101C149.488 62.8475 147.757 66.6068 147.402 70.9649C147.258 72.7281 147.718 73.338 149.327 72.9305C151.318 72.4259 153.368 71.8298 155.13 70.818C159.259 68.4393 162.536 65.0682 165.053 61.0178C166.593 58.5366 167.773 55.9001 167.967 52.9004C168.05 51.5947 167.424 51.3618 166.394 51.5642C165.765 51.6889 165.164 51.9468 164.552 52.1464C160.541 53.4494 157.043 57.7576 156.636 61.8135C156.6 62.1628 156.237 62.659 155.93 62.7477C155.625 62.8337 155.091 62.5869 154.844 62.3152C154.047 61.4336 153.332 60.4744 152.401 59.3128V59.3101ZM147.181 55.9472C147.898 55.7088 148.588 55.6284 149.061 55.2652C149.316 55.0656 149.2 54.3836 149.25 53.9179C149.125 53.8902 149.003 53.8624 148.878 53.8375C148.413 54.4141 147.948 54.9935 147.181 55.9472Z" fill="#F15583"/>
<path d="M136.57 42.2325C136.379 41.6531 136.204 41.2511 136.121 40.8297C135.994 40.1921 135.83 39.5351 135.875 38.9002C135.9 38.5647 136.326 37.9936 136.592 37.9853C139.63 37.8689 142.217 36.2221 145.084 35.5318C147.823 34.872 150.521 34.0431 153.227 33.2474C155.37 32.6181 157.492 31.9112 159.633 31.268C161.056 30.8411 162.486 30.428 163.931 30.0842C164.441 29.9622 165.003 30.0648 165.565 30.0648C165.712 29.904 165.931 29.4438 166.258 29.3468C167.388 29.0113 168.565 28.8367 169.706 28.5345C170.326 28.3709 170.894 28.0188 171.515 27.847C171.927 27.7333 172.384 27.7915 172.822 27.7721C172.778 28.1242 172.686 28.479 172.7 28.8284C172.736 29.8957 172.811 30.963 172.877 32.0304C172.888 32.2134 173.024 32.4961 172.952 32.5571C171.972 33.3777 173.575 34.3758 172.775 35.2213C172.736 35.2629 173.113 35.6677 173.257 35.9255C173.791 36.893 173.514 37.3033 172.49 37.5639C169.324 38.3651 166.186 39.2855 163.02 40.0895C161.799 40.4 160.522 40.4943 159.278 40.7327C158.938 40.7992 158.619 41.0155 158.314 41.204C158.176 41.2899 158.065 41.606 157.993 41.5893C156.805 41.3066 156.046 42.2658 155.071 42.568C153.786 42.9672 152.457 43.2306 151.169 43.6242C147.848 44.6444 144.541 45.709 141.226 46.7486C140.06 47.1146 138.899 47.5332 137.708 47.7716C137.359 47.8409 136.609 47.4306 136.548 47.1367C136.312 45.9862 136.213 44.7941 136.199 43.6159C136.193 43.067 136.495 42.5153 136.578 42.2353L136.57 42.2325ZM154.124 33.6577C155.908 34.2427 157.636 34.5948 159.079 33.009C158.636 33.0229 158.237 33.2197 157.813 33.2946C157.093 33.4249 156.312 33.6855 155.644 33.5219C154.11 33.1476 153.113 33.3639 151.994 34.6835C152.313 34.9801 152.631 35.2768 152.944 35.5706C154.015 34.6151 154.408 33.9765 154.124 33.655V33.6577ZM143.336 40.5275C143.297 40.3862 143.259 40.2475 143.22 40.1062C142.056 40.4776 140.893 40.8491 139.73 41.2206C139.774 41.362 139.816 41.5006 139.86 41.642C141.021 41.2705 142.178 40.899 143.339 40.5248L143.336 40.5275Z" fill="#F15583"/>
<path d="M155.854 31.2432C156.007 31.2321 155.768 31.2071 155.555 31.2709C153.265 31.9279 150.977 32.5933 148.692 33.2697C147.659 33.5747 147.218 33.1727 147.227 32.0582C147.265 27.3869 147.265 22.7155 147.288 18.0469C147.29 17.3039 147.501 16.8576 148.437 16.9574C149.329 17.0544 150.254 16.9435 151.157 16.8521C153.24 16.6441 155.32 16.4002 157.4 16.1562C158.38 16.0398 158.599 16.5776 158.516 17.3954C158.2 20.542 157.851 23.6886 157.574 26.8379C157.491 27.7888 157.516 28.7675 157.641 29.7101C157.796 30.8717 157.405 31.3762 155.854 31.2459V31.2432Z" fill="#F15583"/>
</svg>
