<svg width="95" height="20" viewBox="0 0 95 20" fill="none" xmlns="http://www.w3.org/2000/svg">
<path d="M-0.00186011 19.684C0.11014 18.564 0.19414 17.696 0.19414 15.652V4.11596C0.19414 2.07196 0.11014 1.20396 -0.00186011 0.0839586H3.94614C3.83414 1.20396 3.75014 2.07196 3.75014 4.11596V15.652C3.75014 17.696 3.83414 18.564 3.94614 19.684H-0.00186011ZM8.86167 19.684C9.25367 18.48 9.42167 17.612 9.42167 15.652V4.47996C9.42167 2.26796 9.28167 1.23196 8.77767 0.0839586L10.4857 -4.02927e-05C10.6537 1.84796 11.3257 2.79996 12.6137 4.19996L17.4297 9.77196C17.9337 10.332 18.4657 10.948 18.9697 11.788V4.84396C18.9697 2.18396 18.8577 1.14796 18.2417 0.0839586H20.0897C19.8657 1.34396 19.8097 2.15596 19.8097 4.11596V15.652C19.8097 17.612 19.8097 18.48 20.0897 19.684H18.5777C18.7737 19.096 18.8577 18.62 18.8577 18.172C18.8577 16.94 18.3537 16.24 16.9537 14.616L12.8937 9.82796C11.4937 8.34396 10.7657 7.58796 10.2617 6.35596V15.68C10.2617 17.64 10.3177 18.536 10.9897 19.684H8.86167ZM24.5345 3.16396C24.1425 2.15596 23.8345 1.11996 23.3025 0.0839586H28.0625C27.8385 0.923959 28.0065 1.65196 28.4545 2.88396L32.8785 14.588L37.1625 3.16396C37.6385 1.90396 37.9185 0.923959 37.3025 0.0839586H39.2345L31.6185 19.964H31.0865L24.5345 3.16396ZM42.4717 19.684C42.5837 18.564 42.6677 17.696 42.6677 15.652V4.11596C42.6677 2.07196 42.5837 1.20396 42.4717 0.0839586H46.4197C46.3077 1.20396 46.2237 2.07196 46.2237 4.11596V15.652C46.2237 17.696 46.3077 18.564 46.4197 19.684H42.4717ZM53.4346 19.684C53.8546 18.592 53.9666 17.696 53.9666 15.652V0.699959C52.1746 0.78396 50.7746 1.42796 49.9906 3.49996H49.8226L50.1586 0.0839586H61.2746L61.6106 3.49996H61.4706C60.6586 1.39996 59.2586 0.78396 57.5226 0.699959V15.652C57.5226 17.696 57.6066 18.592 58.0266 19.684H53.4346ZM64.8805 19.684C64.9925 18.508 65.0765 17.612 65.0765 15.652V4.11596C65.0765 2.09996 65.0485 1.20396 64.8805 0.0839586H73.9805V1.90396C72.4405 1.00796 70.8165 0.727959 69.1645 0.727959H68.6325V7.13996C70.8725 7.13996 71.9085 7.02796 73.3085 6.71996V8.20396C71.9085 7.89596 70.8725 7.78396 68.6325 7.78396V19.04H69.4165C71.1525 19.04 72.6085 18.592 73.9805 17.864V19.684H64.8805ZM78.291 19.684C78.403 18.564 78.487 17.696 78.487 15.68V4.08796C78.487 2.07196 78.403 1.20396 78.291 0.0839586H82.519C89.043 0.0839586 94.475 3.30396 94.475 9.68796C94.475 16.072 89.071 19.684 82.519 19.684H78.291ZM82.827 19.04C86.971 19.04 90.667 16.66 90.667 9.68796C90.667 2.71596 86.971 0.727959 82.827 0.727959H82.043V19.04H82.827Z" fill="#C43F66"/>
</svg>
