<svg width="108" height="21" viewBox="0 0 108 21" fill="none" xmlns="http://www.w3.org/2000/svg">
<path d="M10.4725 20.496C5.06851 20.496 0.000514738 16.38 0.000514738 10.192C0.000514738 4.05997 5.32052 -2.69413e-05 10.9765 -2.69413e-05C13.2165 -2.69413e-05 15.0085 0.391973 16.5205 0.895973L17.2485 5.54397C15.4845 1.87597 12.7685 0.755973 10.8085 0.755973C7.25252 0.755973 3.80851 3.13597 3.80851 10.192C3.80851 17.192 7.22451 19.656 10.5005 19.656C11.8725 19.656 13.0765 19.376 13.6925 18.788V14.756C13.6925 13.076 13.6085 12.292 13.2445 11.452H17.5845C17.3605 12.264 17.2485 12.964 17.2485 14.504V18.676C15.4005 19.824 12.9085 20.496 10.4725 20.496ZM20.1811 20.048L27.7971 0.167973H28.3291L34.8811 16.968C35.2731 17.976 35.5811 19.04 36.0851 20.048H30.9891C31.4651 18.9 31.1291 17.724 30.4291 15.848L29.0851 12.264H23.9891L22.7291 15.652C21.9731 17.668 21.8331 18.9 22.4491 20.048H20.1811ZM24.2691 11.536H28.8051L26.5371 5.51597L24.2691 11.536ZM39.3092 20.048C39.4212 18.928 39.5052 18.06 39.5052 16.016V4.47997C39.5052 2.43597 39.4212 1.56797 39.3092 0.447972H43.2572C43.1452 1.56797 43.0612 2.43597 43.0612 4.47997V19.404L43.4812 19.376C46.3652 19.152 48.1012 18.144 49.3052 17.444L48.4092 20.048H39.3092ZM52.4189 20.048C52.5309 18.928 52.6149 18.06 52.6149 16.016V4.47997C52.6149 2.43597 52.5309 1.56797 52.4189 0.447972H56.3669C56.2549 1.56797 56.1709 2.43597 56.1709 4.47997V19.404L56.5909 19.376C59.4749 19.152 61.2109 18.144 62.4149 17.444L61.5189 20.048H52.4189ZM65.5286 20.048C65.6406 18.872 65.7246 17.976 65.7246 16.016V4.47997C65.7246 2.46397 65.6966 1.56797 65.5286 0.447972H74.6286V2.26797C73.0886 1.37197 71.4646 1.09197 69.8126 1.09197H69.2806V7.50397C71.5206 7.50397 72.5566 7.39197 73.9566 7.08397V8.56797C72.5566 8.25997 71.5206 8.14797 69.2806 8.14797V19.404H70.0646C71.8006 19.404 73.2566 18.956 74.6286 18.228V20.048H65.5286ZM78.9391 20.048C79.0511 18.928 79.1351 18.06 79.1351 16.016V4.47997C79.1351 2.43597 79.0511 1.56797 78.9391 0.447972H83.2511C87.8711 0.447972 90.4191 2.12797 90.4191 4.73197C90.4191 6.63597 88.4031 8.25997 86.3311 8.65197C87.4791 8.93197 88.0951 9.51997 88.6551 10.528C90.2791 13.412 90.9511 19.376 92.1271 19.964V20.048H87.7591C86.0791 12.264 84.8751 9.65997 83.5311 9.40797V9.07197C85.6871 8.53997 86.6111 7.27997 86.6111 4.87197C86.6111 2.49197 85.4071 1.09197 82.9991 1.09197H82.6911V16.016C82.6911 18.06 82.7751 18.928 82.8871 20.048H78.9391ZM98.207 20.048C98.319 18.928 98.403 18.06 98.403 16.016V10.976L94.875 3.83597C94.175 2.43597 93.643 1.42797 92.999 0.447972H98.487C97.983 1.39997 98.179 2.68797 98.991 4.39597L101.847 10.36L105.039 3.80797C105.711 2.43597 105.655 1.31597 105.235 0.447972H107.531L102.267 10.976V16.016C102.267 18.06 102.351 18.928 102.463 20.048H98.207Z" fill="#C43F66"/>
</svg>
