<svg width="130" height="21" viewBox="0 0 130 21" fill="none" xmlns="http://www.w3.org/2000/svg">
<path d="M0.0018153 20.048C0.113815 18.928 0.197815 18.06 0.197815 16.016V4.47997C0.197815 2.43597 0.113815 1.56797 0.0018153 0.447972H3.94982C3.83782 1.56797 3.75382 2.43597 3.75382 4.47997V19.404L4.17382 19.376C7.05782 19.152 8.79382 18.144 9.99782 17.444L9.10182 20.048H0.0018153ZM21.2337 20.496C15.6337 20.496 11.0417 16.324 11.0417 10.192C11.0417 4.05997 15.6337 -2.69413e-05 21.2337 -2.69413e-05C26.8617 -2.69413e-05 31.4817 4.05997 31.4817 10.192C31.4817 16.324 26.8617 20.496 21.2337 20.496ZM21.2617 19.656C24.6217 19.656 27.6737 17.36 27.6737 10.192C27.6737 3.02397 24.6217 0.839972 21.2617 0.839972C17.9017 0.839972 14.8497 3.02397 14.8497 10.192C14.8497 17.36 17.9017 19.656 21.2617 19.656ZM45.7081 20.496C40.0801 20.496 34.7881 16.576 34.7881 10.192C34.7881 3.80797 40.0801 -2.69413e-05 45.7081 -2.69413e-05C47.6681 -2.69413e-05 49.7121 0.447972 51.2521 1.23197L51.7001 4.89997C50.3841 1.84797 47.9481 0.755973 45.6801 0.755973C42.3481 0.755973 38.5961 3.33197 38.5961 10.192C38.5961 17.052 42.3481 19.74 45.9321 19.74C48.5361 19.74 50.4121 18.396 52.0361 15.736L51.4201 19.18C49.8241 20.02 47.7521 20.496 45.7081 20.496ZM54.5312 20.048L62.1472 0.167973H62.6792L69.2312 16.968C69.6232 17.976 69.9312 19.04 70.4352 20.048H65.3392C65.8152 18.9 65.4792 17.724 64.7792 15.848L63.4352 12.264H58.3392L57.0792 15.652C56.3232 17.668 56.1832 18.9 56.7992 20.048H54.5312ZM58.6192 11.536H63.1552L60.8872 5.51597L58.6192 11.536ZM74.3388 20.048C74.7588 18.956 74.8708 18.06 74.8708 16.016V1.06397C73.0788 1.14797 71.6788 1.79197 70.8948 3.86397H70.7268L71.0628 0.447972H82.1788L82.5148 3.86397H82.3748C81.5628 1.76397 80.1628 1.14797 78.4268 1.06397V16.016C78.4268 18.06 78.5108 18.956 78.9308 20.048H74.3388ZM85.9038 20.048C86.0158 18.928 86.0998 18.06 86.0998 16.016V4.47997C86.0998 2.43597 86.0158 1.56797 85.9038 0.447972H89.8518C89.7398 1.56797 89.6558 2.43597 89.6558 4.47997V16.016C89.6558 18.06 89.7398 18.928 89.8518 20.048H85.9038ZM104.091 20.496C98.4907 20.496 93.8987 16.324 93.8987 10.192C93.8987 4.05997 98.4907 -2.69413e-05 104.091 -2.69413e-05C109.719 -2.69413e-05 114.339 4.05997 114.339 10.192C114.339 16.324 109.719 20.496 104.091 20.496ZM104.119 19.656C107.479 19.656 110.531 17.36 110.531 10.192C110.531 3.02397 107.479 0.839972 104.119 0.839972C100.759 0.839972 97.7067 3.02397 97.7067 10.192C97.7067 17.36 100.759 19.656 104.119 19.656ZM118.049 20.048C118.441 18.844 118.609 17.976 118.609 16.016V4.84397C118.609 2.63197 118.469 1.59597 117.965 0.447972L119.673 0.363973C119.841 2.21197 120.513 3.16397 121.801 4.56397L126.617 10.136C127.121 10.696 127.653 11.312 128.157 12.152V5.20797C128.157 2.54797 128.045 1.51197 127.429 0.447972H129.277C129.053 1.70797 128.997 2.51997 128.997 4.47997V16.016C128.997 17.976 128.997 18.844 129.277 20.048H127.765C127.961 19.46 128.045 18.984 128.045 18.536C128.045 17.304 127.541 16.604 126.141 14.98L122.081 10.192C120.681 8.70797 119.953 7.95197 119.449 6.71997V16.044C119.449 18.004 119.505 18.9 120.177 20.048H118.049Z" fill="#C43F66"/>
</svg>
