<svg width="169" height="21" viewBox="0 0 169 21" fill="none" xmlns="http://www.w3.org/2000/svg">
<path d="M0.00142053 20.0481C0.113421 18.9281 0.197421 18.0601 0.197421 16.0161V4.48009C0.197421 2.4361 0.113421 1.56809 0.00142053 0.448094H3.94942C3.83742 1.56809 3.75342 2.4361 3.75342 4.48009V16.0161C3.75342 18.0601 3.83742 18.9281 3.94942 20.0481H0.00142053ZM8.86495 20.0481C9.25695 18.8441 9.42495 17.9761 9.42495 16.0161V4.84409C9.42495 2.63209 9.28495 1.59609 8.78095 0.448094L10.489 0.364095C10.657 2.2121 11.329 3.16409 12.617 4.56409L17.433 10.1361C17.937 10.6961 18.469 11.3121 18.973 12.1521V5.20809C18.973 2.5481 18.861 1.51209 18.245 0.448094H20.093C19.869 1.70809 19.813 2.52009 19.813 4.48009V16.0161C19.813 17.9761 19.813 18.8441 20.093 20.0481H18.581C18.777 19.4601 18.861 18.9841 18.861 18.5361C18.861 17.3041 18.357 16.6041 16.957 14.9801L12.897 10.1921C11.497 8.70809 10.769 7.9521 10.265 6.7201V16.0441C10.265 18.0041 10.321 18.9001 10.993 20.0481H8.86495ZM25.0078 20.0481C25.1198 18.9281 25.2038 18.0601 25.2038 16.0161V4.48009C25.2038 2.4361 25.1198 1.56809 25.0078 0.448094H34.0238V2.26809C32.4558 1.34409 30.8318 1.09209 29.2638 1.09209H28.7598V8.0081H29.3478C31.1678 8.0081 32.0918 7.86809 33.3518 7.5881V9.0721C32.1478 8.8201 31.1678 8.6521 29.3478 8.6521H28.7598V14.5321C28.7598 17.3321 28.7878 18.5361 29.5998 20.0481H25.0078ZM46.7319 20.4961C41.1319 20.4961 36.5399 16.3241 36.5399 10.1921C36.5399 4.06009 41.1319 9.5129e-05 46.7319 9.5129e-05C52.3599 9.5129e-05 56.9799 4.06009 56.9799 10.1921C56.9799 16.3241 52.3599 20.4961 46.7319 20.4961ZM46.7599 19.6561C50.1199 19.6561 53.1719 17.3601 53.1719 10.1921C53.1719 3.02409 50.1199 0.840094 46.7599 0.840094C43.3999 0.840094 40.3479 3.02409 40.3479 10.1921C40.3479 17.3601 43.3999 19.6561 46.7599 19.6561ZM60.8522 20.0481C60.9642 18.9281 61.0482 18.0601 61.0482 16.0161V4.48009C61.0482 2.4361 60.9642 1.56809 60.8522 0.448094H65.1642C69.7842 0.448094 72.3322 2.12809 72.3322 4.73209C72.3322 6.63609 70.3162 8.26009 68.2442 8.6521C69.3922 8.9321 70.0082 9.5201 70.5682 10.5281C72.1922 13.4121 72.8642 19.3761 74.0402 19.9641V20.0481H69.6722C67.9922 12.2641 66.7882 9.6601 65.4442 9.4081V9.0721C67.6002 8.5401 68.5242 7.28009 68.5242 4.87209C68.5242 2.49209 67.3202 1.09209 64.9122 1.09209H64.6042V16.0161C64.6042 18.0601 64.6882 18.9281 64.8002 20.0481H60.8522ZM77.1311 20.0481C77.4671 18.6481 77.4671 17.0521 77.4671 15.5961V4.48009C77.4671 2.52009 77.3831 1.6521 76.9631 0.448094H79.0071C79.1191 1.56809 79.8471 2.60409 80.6871 3.7521L84.1591 8.5961L86.8751 4.2281C87.9111 2.5761 88.4991 1.51209 88.4431 0.448094H90.5991C90.1231 1.62409 90.0391 2.52009 90.0391 4.48009V16.0161C90.0391 17.9481 90.2071 19.1241 90.4591 20.0481H86.0071C86.3711 18.9841 86.4831 17.8081 86.4831 16.1561V6.4681L82.8151 12.2641H82.4791L78.2791 6.49609V15.5961C78.2791 17.3321 78.3351 18.7041 78.7551 20.0481H77.1311ZM93.5219 20.0481L101.138 0.168095H101.67L108.222 16.9681C108.614 17.9761 108.922 19.0401 109.426 20.0481H104.33C104.806 18.9001 104.47 17.7241 103.77 15.8481L102.426 12.2641H97.3299L96.0699 15.6521C95.3139 17.6681 95.1739 18.9001 95.7899 20.0481H93.5219ZM97.6099 11.5361H102.146L99.8779 5.51609L97.6099 11.5361ZM113.329 20.0481C113.749 18.9561 113.861 18.0601 113.861 16.0161V1.06409C112.069 1.1481 110.669 1.7921 109.885 3.8641H109.717L110.053 0.448094H121.169L121.505 3.8641H121.365C120.553 1.76409 119.153 1.1481 117.417 1.06409V16.0161C117.417 18.0601 117.501 18.9561 117.921 20.0481H113.329ZM124.895 20.0481C125.007 18.9281 125.091 18.0601 125.091 16.0161V4.48009C125.091 2.4361 125.007 1.56809 124.895 0.448094H128.843C128.731 1.56809 128.647 2.4361 128.647 4.48009V16.0161C128.647 18.0601 128.731 18.9281 128.843 20.0481H124.895ZM143.081 20.4961C137.481 20.4961 132.889 16.3241 132.889 10.1921C132.889 4.06009 137.481 9.5129e-05 143.081 9.5129e-05C148.709 9.5129e-05 153.329 4.06009 153.329 10.1921C153.329 16.3241 148.709 20.4961 143.081 20.4961ZM143.109 19.6561C146.469 19.6561 149.521 17.3601 149.521 10.1921C149.521 3.02409 146.469 0.840094 143.109 0.840094C139.749 0.840094 136.697 3.02409 136.697 10.1921C136.697 17.3601 139.749 19.6561 143.109 19.6561ZM157.04 20.0481C157.432 18.8441 157.6 17.9761 157.6 16.0161V4.84409C157.6 2.63209 157.46 1.59609 156.956 0.448094L158.664 0.364095C158.832 2.2121 159.504 3.16409 160.792 4.56409L165.608 10.1361C166.112 10.6961 166.644 11.3121 167.148 12.1521V5.20809C167.148 2.5481 167.036 1.51209 166.42 0.448094H168.268C168.044 1.70809 167.988 2.52009 167.988 4.48009V16.0161C167.988 17.9761 167.988 18.8441 168.268 20.0481H166.756C166.952 19.4601 167.036 18.9841 167.036 18.5361C167.036 17.3041 166.532 16.6041 165.132 14.9801L161.072 10.1921C159.672 8.70809 158.944 7.9521 158.44 6.7201V16.0441C158.44 18.0041 158.496 18.9001 159.168 20.0481H157.04Z" fill="#C43F66"/>
</svg>
