<svg width="188" height="121" viewBox="0 0 188 121" fill="none" xmlns="http://www.w3.org/2000/svg">
<path d="M32.2558 28.8823C30.8928 30.1273 29.8166 31.1151 28.4089 32.4048C31.0753 33.0012 33.6336 32.9676 35.1343 35.3309C34.9593 34.8277 34.9258 34.1716 34.5795 33.8548C33.6485 32.9975 33.8906 32.1178 33.9315 31.0182C33.9688 30.0826 32.967 29.106 32.6207 28.4946C33.6522 26.985 34.397 25.5238 35.4769 24.3758C40.4186 19.1088 46.5296 15.9143 53.605 14.5874C55.0462 14.3152 56.5395 14.3152 58.003 14.1438C58.461 14.0916 58.9377 13.9611 59.3473 13.7561C61.146 12.8578 63.0787 13.2268 64.5199 14.6917C64.7247 14.9005 65.2907 14.7327 65.6817 14.7886C66.3632 14.8856 67.324 14.7775 67.6629 15.18C69.361 17.1891 70.9734 19.284 72.4704 21.4497C74.1164 23.839 75.6283 26.3215 77.1514 28.7966C80.4769 34.2014 80.6594 39.8859 78.0861 45.5442C75.2075 51.8735 70.9101 57.1442 65.5626 61.6358C59.9729 66.3325 53.9663 70.2948 47.1031 72.7661C38.3183 75.9271 32.3079 74.3541 26.0293 66.8581C23.8881 64.301 21.4675 61.9862 19.2369 59.5037C15.8407 55.724 15.0326 51.4747 16.7046 46.6028C18.224 42.1708 20.4844 38.2234 23.5231 34.7121C24.1823 33.948 25.1877 33.497 25.9809 32.8372C26.7369 32.2072 27.3886 31.4543 28.1483 30.8318C29.001 30.1347 29.8948 29.475 30.8369 28.9084C31.1497 28.722 31.6711 28.8786 32.2595 28.8786L32.2558 28.8823ZM38.2252 38.2122C36.7096 40.158 35.4546 41.6415 34.3374 43.222C31.1162 47.7882 29.3362 52.9619 28.0626 58.3519C27.5934 60.3349 28.0328 61.0953 30.4981 61.0506C32.0174 61.0245 33.5479 60.6406 35.0412 60.279C40.7463 58.8961 46.0119 56.4993 50.9238 53.2937C57.3662 49.0891 63.2165 44.2471 66.9479 37.3624C68.2587 34.9432 69.0891 32.2445 70.0089 29.6315C70.3701 28.599 69.9605 27.7603 68.6348 27.8871C67.2942 28.0138 65.9126 28.0213 64.6241 28.3679C55.5377 30.8243 48.6299 35.5657 46.8014 45.5964C46.6971 46.1704 45.9412 47.0427 45.4943 47.0389C44.865 47.0389 44.0532 46.4798 43.6398 45.9244C41.8747 43.55 40.225 41.0861 38.2215 38.2085L38.2252 38.2122ZM33.6299 35.9273C32.6281 35.2675 31.6562 34.5481 30.606 33.9629C29.5149 33.3553 28.4387 32.2035 27.0609 33.3031C26.5432 33.7169 26.2006 34.3505 25.6272 35.0774C27.3141 34.9656 28.8111 34.8649 30.472 34.7531C30.2634 35.275 30.1108 35.6477 29.9655 36.0242C31.892 36.6976 33.1135 36.6653 33.6299 35.9273Z" fill="#F15583"/>
<path d="M45.5959 92.6C44.3335 92.9429 43.4063 93.2299 42.4641 93.4424C41.1719 93.7369 39.8536 93.9232 38.5726 94.2625C37.8874 94.4451 37.2692 94.8812 36.5989 95.1421C35.9808 95.3807 35.0758 95.8988 34.7444 95.6603C33.4224 94.7135 32.7707 95.3844 32.1004 96.402C32.0073 96.5437 31.7988 96.6853 31.6424 96.689C28.8904 96.7599 26.5592 98.4932 23.7402 98.5379C21.9639 98.5677 20.2025 99.4399 18.5006 100.2C18.1022 100.446 17.3499 98.7019 17.1898 100.711C17.1749 100.879 16.7355 101.069 16.4674 101.151C12.3338 102.359 8.1928 103.551 4.05552 104.744C3.87677 104.796 3.6794 104.785 3.5081 104.845C0.744944 105.81 0.674195 105.814 0.487999 102.921C0.242219 99.1119 0.0969871 95.295 0.000164978 91.478C-0.0110068 91.1164 0.547581 90.5238 0.95349 90.397C3.30329 89.6702 5.68288 89.0365 8.06247 88.3954C11.846 87.374 15.6444 86.4086 19.4167 85.3388C21.2414 84.8207 22.9917 84.0417 24.8127 83.5049C29.8326 82.0288 34.8785 80.6347 39.9021 79.1773C43.976 77.9919 48.0277 76.732 52.1054 75.5504C60.8864 73.0083 69.6749 70.481 78.467 67.9799C84.3918 66.295 90.3352 64.6624 96.2674 63.0037C97.5112 62.657 97.6378 63.4547 97.5782 64.3418C97.4889 65.6315 97.3288 66.9138 97.191 68.2743C96.5207 68.4197 95.8839 68.5613 95.2434 68.6993C98.2821 68.3936 97.4703 70.8128 97.7533 72.3038C98.0624 73.9289 98.2374 75.6026 98.215 77.2539C98.2076 77.7049 97.2394 78.566 96.7888 78.5175C93.9772 78.2081 91.7131 80.1203 89.0207 80.2732C87.8849 80.3402 86.7751 80.8472 85.6617 81.1789C82.8129 82.0288 80.0088 83.2999 77.1041 83.6242C74.866 83.8739 73.0487 85.965 70.5351 84.9102C70.0361 84.7014 69.1423 85.5774 68.3864 85.8197C66.2339 86.5018 64.0554 87.1168 62.3797 87.6089C62.2307 89.3608 62.2047 90.822 61.9589 92.2496C61.6051 94.3072 61.2923 96.4132 60.5922 98.3664C59.8846 100.338 59.542 102.262 59.4974 104.353C59.4676 105.661 58.5738 106.932 58.2201 108.259C57.8775 109.549 57.8402 110.928 57.4529 112.203C57.1401 113.224 56.5033 114.149 55.9745 115.189C56.5219 115.617 57.3226 119.49 56.615 120.284C56.2873 120.653 55.5798 120.791 55.0286 120.828C53.3827 120.936 51.7292 121.004 50.0795 120.974C48.3926 120.94 46.7094 120.754 45.0225 120.668C44.5756 120.646 44.1213 120.743 43.6707 120.769C42.978 120.806 42.155 121.059 41.6374 120.769C41.3134 120.59 41.2948 119.557 41.3991 118.953C42.4008 113.112 43.5031 107.286 44.4788 101.438C44.9443 98.6572 45.1975 95.8392 45.5997 92.6074L45.5959 92.6ZM47.767 102.344C47.4356 104.498 47.1078 106.641 46.7764 108.781C46.9291 108.815 47.0855 108.848 47.2382 108.882C47.6441 107.48 48.05 106.079 48.4745 104.621C48.307 104.081 48.0612 103.287 47.767 102.34V102.344Z" fill="#F15583"/>
<path d="M170.654 28.0547H168.539C169.023 24.8304 169.437 21.7999 169.943 18.7844C170.9 13.0515 171.936 7.33352 172.874 1.60063C173.105 0.180449 173.41 -0.483046 174.997 0.396643C175.745 0.810396 176.814 0.605383 177.711 0.799213C180.72 1.45898 183.737 2.10384 186.701 2.93134C187.155 3.05808 187.71 4.16514 187.617 4.71681C187.003 8.31012 186.153 11.8662 185.513 15.4557C184.846 19.2019 184.34 22.9778 183.737 26.7389C182.266 35.9346 180.698 45.1154 179.328 54.3298C177.495 66.6417 175.808 78.9723 174.084 91.2991C173.876 92.7939 173.377 93.6661 171.671 93.0734C171.351 92.9616 170.926 93.0548 170.576 93.148C167.243 94.0128 163.91 94.8701 160.596 95.7945C159.341 96.1449 158.492 95.5671 158.704 94.1581C159.714 87.4188 160.805 80.6944 161.836 73.9588C162.171 71.7745 162.38 69.5716 162.693 67.3798C163.873 59.1346 165.065 50.8931 166.264 42.6516C166.841 38.6781 167.508 34.712 168.014 30.7273C168.226 29.0648 168.774 28.0696 170.789 28.5579C170.744 28.3902 170.703 28.2187 170.658 28.051L170.654 28.0547Z" fill="#F15583"/>
<path d="M120.557 67.0481C125.19 65.4043 129.368 63.9021 133.561 62.4409C140.748 59.9361 147.95 57.4722 155.134 54.9561C157.755 54.0354 160.347 53.0215 162.946 52.0375C164.436 51.4746 164.972 51.9145 165.114 53.4092C165.427 56.6558 165.754 59.91 166.369 63.1081C166.629 64.4724 166.25 64.8713 165.132 65.2403C157.677 67.7191 150.173 70.0637 142.804 72.7736C133.472 76.2066 124.255 79.949 114.986 83.5423C114.036 83.9113 113.284 83.9784 112.83 82.6626C112.562 81.8873 111.716 81.2685 111.039 80.6833C109.977 79.7626 108.838 78.9277 107.732 78.0591C107.87 77.925 108.004 77.787 108.141 77.6528C107.657 77.8467 107.184 78.1523 106.685 78.2008C106.332 78.2343 105.941 77.9212 105.568 77.7647C106.797 76.1879 104.715 74.6969 105.583 72.8817C106.373 71.2378 106.198 69.1281 106.425 67.2196C106.726 64.7072 107.013 62.1912 107.285 59.6751C107.315 59.3881 107.229 59.0899 107.237 59.1533C106.019 58.9967 104.976 58.8625 103.933 58.7283C104.09 58.2624 104.246 57.7965 104.391 57.3641C103.986 57.1702 103.386 56.887 102.466 56.4471C104.377 55.519 105.859 54.5312 107.207 56.8236C107.452 55.4929 107.698 54.1621 108.045 52.2909C106.756 53.2042 105.896 53.8155 105.032 54.4231C104.328 53.2452 104 53.3943 102.392 55.6531C101.68 53.4726 101.852 53.2862 103.989 52.9209C105.501 52.6637 106.968 52.1605 108.402 51.6088C105.985 50.882 103.851 53.4353 100.977 51.8511C101.721 51.2957 102.157 50.7776 102.704 50.5987C107.914 48.8728 113.135 47.1768 118.371 45.5218C121.965 44.3886 125.577 43.3077 129.193 42.2602C130.187 41.9732 130.746 41.5408 130.936 40.4263C131.345 38.0146 131.941 35.6365 132.529 32.9229C128.783 33.8734 125.435 34.6934 122.102 35.5694C116.181 37.1238 110.268 38.7117 104.35 40.2809C103.371 40.5419 102.809 40.2474 102.734 39.1403C102.548 36.3633 102.321 33.5901 102.101 30.8168C102.057 30.2689 102.068 29.6911 101.885 29.1879C101.49 28.1032 102.008 27.7118 102.943 27.5031C106.674 26.6681 110.413 25.8667 114.129 24.9647C121.034 23.2947 128.016 21.8522 134.771 19.7014C137.151 18.9447 139.124 18.4266 141.597 18.8814C143.094 19.1572 144.796 18.3372 146.606 17.9681C146.528 18.7136 146.457 19.3548 146.368 20.1748C146.904 20.145 147.444 20.1674 147.965 20.0816C149.507 19.8319 150.08 20.4879 149.708 22.0311C147.794 29.9595 145.816 37.873 144.059 45.8349C143.664 47.6167 143.094 48.1609 141.266 48.4255C138.167 48.8766 135.159 49.9426 132.097 50.6956C129.584 51.3106 127.025 51.7505 124.545 52.4661C123.83 52.6712 122.896 53.4726 122.762 54.1398C121.931 58.3071 121.302 62.5117 120.546 67.0556L120.557 67.0481ZM129.502 48.9735C129.427 48.6827 129.353 48.392 129.278 48.0975C126.925 48.761 124.571 49.4282 122.218 50.0917C122.274 50.3042 122.326 50.5167 122.382 50.7291C124.754 50.1439 127.126 49.5587 129.502 48.9697V48.9735Z" fill="#F15583"/>
</svg>
